<svg width="24" height="24" viewBox="0 0 24 24" fill="none" xmlns="http://www.w3.org/2000/svg">
<rect x="0.5" y="2.5" width="23" height="19" rx="5.5" stroke="#61449B"/>
<path d="M7.30438 16C7.23771 16 7.19438 15.9667 7.17438 15.9L6.84438 14.83C6.83104 14.8033 6.81438 14.79 6.79438 14.79H4.15438C4.13438 14.79 4.11771 14.8033 4.10438 14.83L3.77438 15.9C3.75438 15.9667 3.71104 16 3.64438 16H2.64438C2.60438 16 2.57438 15.99 2.55438 15.97C2.53438 15.9433 2.53104 15.9067 2.54438 15.86L4.71438 9.1C4.73438 9.03333 4.77771 9 4.84438 9H6.09438C6.16104 9 6.20438 9.03333 6.22438 9.1L8.40438 15.86C8.41104 15.8733 8.41438 15.89 8.41438 15.91C8.41438 15.97 8.37771 16 8.30438 16H7.30438ZM4.41438 13.82C4.40771 13.86 4.42104 13.88 4.45438 13.88H6.48438C6.52438 13.88 6.53771 13.86 6.52438 13.82L5.49438 10.47C5.48771 10.4433 5.47771 10.43 5.46438 10.43C5.45104 10.43 5.44104 10.4433 5.43438 10.47L4.41438 13.82Z" fill="white"/>
<path d="M13.5188 9.12C13.5188 9.08667 13.5288 9.06 13.5488 9.04C13.5754 9.01333 13.6054 9 13.6388 9H14.5588C14.5921 9 14.6188 9.01333 14.6388 9.04C14.6654 9.06 14.6788 9.08667 14.6788 9.12V15.88C14.6788 15.9133 14.6654 15.9433 14.6388 15.97C14.6188 15.99 14.5921 16 14.5588 16H13.6688C13.6021 16 13.5554 15.9733 13.5288 15.92L10.6488 11.2C10.6354 11.18 10.6221 11.1733 10.6088 11.18C10.5954 11.18 10.5888 11.1933 10.5888 11.22L10.6088 15.88C10.6088 15.9133 10.5954 15.9433 10.5688 15.97C10.5488 15.99 10.5221 16 10.4888 16H9.56875C9.53542 16 9.50542 15.99 9.47875 15.97C9.45875 15.9433 9.44875 15.9133 9.44875 15.88V9.12C9.44875 9.08667 9.45875 9.06 9.47875 9.04C9.50542 9.01333 9.53542 9 9.56875 9H10.4588C10.5254 9 10.5721 9.02667 10.5988 9.08L13.4688 13.8C13.4821 13.82 13.4954 13.83 13.5088 13.83C13.5221 13.8233 13.5288 13.8067 13.5288 13.78L13.5188 9.12Z" fill="white"/>
<path d="M18.5882 16.08C18.0949 16.08 17.6582 15.9833 17.2782 15.79C16.8982 15.5967 16.6015 15.3233 16.3882 14.97C16.1815 14.61 16.0782 14.1967 16.0782 13.73V9.12C16.0782 9.08667 16.0882 9.06 16.1082 9.04C16.1349 9.01333 16.1649 9 16.1982 9H17.1182C17.1515 9 17.1782 9.01333 17.1982 9.04C17.2249 9.06 17.2382 9.08667 17.2382 9.12V13.75C17.2382 14.1433 17.3615 14.4633 17.6082 14.71C17.8549 14.9567 18.1815 15.08 18.5882 15.08C18.9949 15.08 19.3215 14.9567 19.5682 14.71C19.8149 14.4633 19.9382 14.1433 19.9382 13.75V9.12C19.9382 9.08667 19.9482 9.06 19.9682 9.04C19.9949 9.01333 20.0249 9 20.0582 9H20.9782C21.0115 9 21.0382 9.01333 21.0582 9.04C21.0849 9.06 21.0982 9.08667 21.0982 9.12V13.73C21.0982 14.1967 20.9949 14.61 20.7882 14.97C20.5815 15.3233 20.2882 15.5967 19.9082 15.79C19.5282 15.9833 19.0882 16.08 18.5882 16.08Z" fill="white"/>
</svg>
