<svg width="24" height="24" viewBox="0 0 24 24" fill="none" xmlns="http://www.w3.org/2000/svg">
<path d="M20.842 20.0783C20.5896 20.0783 20.3622 19.91 20.2936 19.6576C20.1098 18.9721 19.8138 18.5203 19.3869 18.2773C19.3744 18.271 19.3619 18.2617 19.3495 18.2554C19.2716 18.2181 18.4583 17.8691 14.0056 16.0088C13.8156 15.931 13.6847 15.7533 13.6598 15.5508C13.6348 15.3452 13.7252 15.1457 13.8903 15.0242C14.2985 14.7282 14.6849 14.3169 15.0432 13.7996C15.8378 12.681 16.2304 11.3069 16.2148 9.71464C16.2086 9.07899 16.1089 8.49631 15.9157 7.97594C15.8783 7.86689 15.8378 7.76406 15.7973 7.66747C15.7755 7.63631 15.7537 7.60515 15.7412 7.5771C15.5543 7.18138 15.305 6.81058 15.0027 6.47406C14.9654 6.43978 14.9155 6.38993 14.8625 6.34319C14.0586 5.54862 13.1675 5.16225 12.1111 5.14044H11.9616C10.9022 5.16225 10.0048 5.54862 9.21955 6.32449C9.16346 6.37747 9.11672 6.4242 9.06998 6.47406C8.76774 6.80435 8.52158 7.1658 8.33151 7.55218C8.32216 7.57399 8.31593 7.59892 8.30969 7.61138C8.25361 7.72979 8.20375 7.85131 8.15701 7.97283C7.96382 8.49631 7.86411 9.07587 7.85788 9.69906C7.8423 11.3038 8.23491 12.6779 9.02636 13.7903C9.38781 14.3107 9.77419 14.722 10.1824 15.018C10.3475 15.1395 10.4379 15.3389 10.413 15.5446C10.388 15.7502 10.2572 15.9247 10.0671 16.0026C5.6144 17.8628 4.80114 18.2118 4.71078 18.2554C4.25897 18.5141 3.96295 18.9659 3.77911 19.6514C3.6981 19.9568 3.3865 20.1375 3.08114 20.0533C2.77889 19.9723 2.59817 19.6607 2.67918 19.3554C2.94092 18.3801 3.42078 17.6852 4.1094 17.2895C4.13433 17.2739 4.16237 17.2583 4.19042 17.2428C4.25273 17.2116 4.36179 17.1555 8.78955 15.3015C8.54651 15.046 8.31281 14.7594 8.09158 14.4415C7.16303 13.1328 6.69875 11.5344 6.71745 9.69595C6.72368 8.92942 6.84832 8.21899 7.08824 7.57087C7.14121 7.42754 7.20042 7.28732 7.26585 7.15022C7.26585 7.15022 7.26585 7.1471 7.26585 7.14399C7.27208 7.12218 7.28143 7.10036 7.29078 7.07855C7.52759 6.58312 7.8423 6.11884 8.22556 5.70131C8.2318 5.69507 8.25049 5.67638 8.25672 5.66703C8.30346 5.61718 8.36266 5.55797 8.42498 5.49877C9.40651 4.53594 10.5906 4.02804 11.9367 4C11.974 4 12.0083 4 12.0457 4C12.0613 4 12.0956 4 12.133 4C13.4759 4.02804 14.6569 4.53594 15.6415 5.51435C15.6851 5.55174 15.7475 5.61094 15.8129 5.67326C15.8222 5.68261 15.8409 5.70131 15.8472 5.71065C16.2055 6.10638 16.5015 6.54261 16.7321 7.00689C16.7633 7.04428 16.7882 7.0879 16.81 7.13152C16.8785 7.28109 16.9377 7.43377 16.9907 7.58957C17.2275 8.22522 17.3522 8.93566 17.3553 9.69283C17.374 11.5406 16.9097 13.1391 15.9749 14.454C15.7568 14.7687 15.5262 15.0554 15.2832 15.3078C19.7078 17.1586 19.8169 17.2147 19.873 17.2428C19.9104 17.2615 19.9384 17.2802 19.9664 17.2957C20.6519 17.6915 21.1349 18.3863 21.3967 19.3616C21.4777 19.667 21.2969 19.9786 20.9947 20.0596C20.9448 20.072 20.895 20.0783 20.8483 20.0783H20.842Z" fill="#F16024"/>
<path d="M23.9798 17.0246C23.7835 16.2955 23.4251 15.7751 22.911 15.4791C22.8923 15.4667 22.8705 15.4542 22.8425 15.4386C22.802 15.4168 22.7209 15.3763 19.4087 13.9897C19.5894 13.7996 19.7639 13.5846 19.9259 13.3509C20.6239 12.3694 20.9698 11.1729 20.9573 9.78942C20.9542 9.22232 20.8607 8.69261 20.6831 8.21587C20.6426 8.10058 20.599 7.98529 20.5491 7.87311C20.5335 7.83884 20.5149 7.80768 20.493 7.77963C20.3217 7.43065 20.1004 7.10659 19.8325 6.81058C19.8262 6.80434 19.8106 6.78876 19.8044 6.78253C19.7577 6.73579 19.7109 6.69217 19.6767 6.66413C18.9382 5.93188 18.0564 5.55173 17.0499 5.52992C17.0219 5.52992 16.997 5.52992 16.9845 5.52992C16.9564 5.52992 16.9315 5.52992 16.9035 5.52992C17.1185 5.81347 17.3117 6.1126 17.4768 6.42731C18.0782 6.52702 18.6048 6.80434 19.0909 7.2842C19.1314 7.31847 19.1688 7.35587 19.1968 7.38079C19.4243 7.63319 19.6112 7.9105 19.7514 8.20652C19.7608 8.22521 19.7764 8.25014 19.7951 8.27195C19.8262 8.34362 19.8543 8.42152 19.8823 8.50253C20.0256 8.89203 20.1035 9.32826 20.1067 9.805C20.1191 10.9984 19.8231 12.0236 19.228 12.8617C18.96 13.2481 18.6702 13.5535 18.368 13.7778C18.2433 13.8682 18.1779 14.0178 18.1966 14.1736C18.2153 14.3262 18.315 14.4571 18.4552 14.5163C21.7862 15.9091 22.3969 16.1709 22.453 16.1989C22.4623 16.2051 22.4717 16.2114 22.481 16.2145C22.7988 16.3952 23.0232 16.7317 23.1603 17.2459C23.2101 17.4359 23.3846 17.5606 23.5716 17.5606C23.609 17.5606 23.6464 17.5544 23.6838 17.545C23.9112 17.4827 24.0452 17.249 23.986 17.0215L23.9798 17.0246Z" fill="white"/>
<path d="M5.79201 14.1704C5.81071 14.0178 5.74527 13.8682 5.62064 13.7778C5.31527 13.5566 5.02549 13.2481 4.75752 12.8586C4.16549 12.0267 3.87259 10.9984 3.88194 9.79565C3.88505 9.32826 3.95984 8.89514 4.10629 8.50253C4.14056 8.40905 4.17795 8.31869 4.22158 8.23145C4.22469 8.2221 4.23404 8.2034 4.24027 8.18782C4.38049 7.90116 4.56745 7.62695 4.79179 7.38079C4.82607 7.3434 4.86346 7.30913 4.90397 7.26862C5.3994 6.77942 5.95716 6.49898 6.59281 6.41173C6.75795 6.10637 6.94491 5.81347 7.15991 5.53615C7.13498 5.53615 7.11006 5.52992 7.08513 5.52992C7.05709 5.52992 7.03216 5.52992 7.01969 5.52992C6.99165 5.52992 6.96672 5.52992 6.93868 5.52992C5.93223 5.55173 5.0473 5.93188 4.31194 6.65789C4.2652 6.70152 4.22158 6.74514 4.1873 6.78253C4.18107 6.78876 4.1686 6.80123 4.16237 6.80746C3.87571 7.12217 3.64201 7.46804 3.4644 7.83884C3.45817 7.85442 3.44882 7.87 3.44571 7.88558C3.44571 7.88558 3.44571 7.88558 3.44571 7.88869C3.39585 7.99152 3.35223 8.09746 3.31484 8.2034C3.13411 8.68637 3.04063 9.2192 3.03752 9.79253C3.02505 11.1667 3.37092 12.3632 4.06578 13.3416C4.23092 13.5784 4.40542 13.7965 4.58614 13.9866C1.27389 15.3732 1.19288 15.4137 1.14614 15.4386C1.12433 15.4511 1.10252 15.4636 1.08382 15.476C0.569689 15.772 0.211356 16.2924 0.0150512 17.0215C-0.0472677 17.249 0.0898338 17.4827 0.317298 17.545C0.544762 17.6073 0.778458 17.4702 0.840776 17.2428C0.977878 16.7286 1.19911 16.3921 1.53875 16.1989C1.60418 16.1678 2.21491 15.906 5.54585 14.5132C5.68919 14.454 5.78578 14.3231 5.80448 14.1704H5.79201Z" fill="white"/>
</svg>
