<svg width="24" height="24" viewBox="0 0 24 24" fill="none" xmlns="http://www.w3.org/2000/svg">
<path d="M17.8193 12.921H17.4518V6.38122C18.8393 6.23123 20.1292 7.25119 20.118 8.67988V10.6186C20.118 11.886 19.0868 12.9172 17.8193 12.9172V12.921ZM18.1793 7.14994V12.1522C18.873 11.9873 19.3905 11.3648 19.3905 10.6223V8.68363C19.3905 7.94116 18.873 7.31494 18.1793 7.15369V7.14994Z" fill="#61449B"/>
<path d="M8.81216 16.4908H7.61595V15.7634H8.81216C9.14589 15.7634 9.41963 15.4934 9.41963 15.1596V14.1922H10.1471V15.1596C10.1471 15.8946 9.54713 16.4908 8.81216 16.4908Z" fill="#61449B"/>
<path d="M16.8481 17.3045C16.6793 17.3045 16.5144 17.2745 16.3531 17.2108L7.75845 13.7759V5.53001L16.3531 2.09514C16.7656 1.93015 17.2306 1.98265 17.5943 2.23014C17.9618 2.47763 18.1793 2.89011 18.1793 3.33259V15.9733C18.1943 16.6896 17.5568 17.3195 16.8481 17.3045ZM8.48592 13.281L16.6231 16.5321C17.0056 16.6971 17.4668 16.3858 17.4556 15.9696V3.33259C17.4668 2.91636 17.0056 2.60512 16.6231 2.77011L8.48592 6.02124V13.281Z" fill="white"/>
<path d="M3.64111 12.9247H1.33495C0.599976 12.9247 0 12.3247 0 11.5898V7.71242C0 6.97745 0.599976 6.37747 1.33495 6.37747H3.64111V12.9247ZM1.33495 7.10869C1.00121 7.10869 0.727472 7.37868 0.727472 7.71617V11.5973C0.727472 11.931 0.997461 12.2047 1.33495 12.2047H2.91364V7.10869H1.33495Z" fill="white"/>
<path d="M8.65841 20.1882H5.01356L3.81735 13.1647H7.46221L8.65841 20.1882ZM5.62478 19.4607H7.79595L6.84723 13.8922H4.67607L5.62478 19.4607Z" fill="white"/>
<path d="M8.07718 13.8922H4.24858C3.51361 13.8922 2.91364 13.2922 2.91364 12.5572V6.74871C2.91364 6.01373 3.51361 5.41376 4.24858 5.41376H8.07718C8.30592 5.41376 8.48967 5.5975 8.48967 5.82624V13.4797C8.48967 13.7084 8.30592 13.8922 8.07718 13.8922ZM4.24858 6.14123C3.91485 6.14123 3.64111 6.41122 3.64111 6.74871V12.5572C3.64111 12.891 3.9111 13.1647 4.24858 13.1647H7.7622V6.14123H4.24858Z" fill="#61449B"/>
<path d="M8.84965 22.1269H4.00484C3.53611 22.1269 3.15738 21.7444 3.15738 21.2794V20.7957C3.15738 20.0607 3.75735 19.4607 4.49232 19.4607H8.36967C9.10464 19.4607 9.70462 20.0607 9.70462 20.7957V21.2794C9.70462 21.7481 9.32213 22.1269 8.85715 22.1269H8.84965ZM4.48857 20.1882C4.15484 20.1882 3.8811 20.4582 3.8811 20.7957V21.2794C3.8811 21.3469 3.93734 21.3994 4.00109 21.3994H8.8459C8.9134 21.3994 8.9659 21.3431 8.9659 21.2794V20.7957C8.9659 20.4619 8.69591 20.1882 8.35842 20.1882H4.48857Z" fill="#61449B"/>
<path d="M23.6428 10.0186H21.7004C21.2242 10.0186 21.2242 9.29486 21.7004 9.29111H23.6428C24.1191 9.29111 24.1191 10.0148 23.6428 10.0186Z" fill="#61449B"/>
<path d="M20.7292 6.14122C20.418 6.15247 20.238 5.73624 20.4705 5.51875L22.5329 3.46008C22.8704 3.12634 23.3841 3.63632 23.0466 3.97381L20.9842 6.03248C20.9129 6.10373 20.8192 6.13747 20.7254 6.13747L20.7292 6.14122Z" fill="#61449B"/>
<path d="M22.7879 15.9509C22.6941 15.9509 22.6004 15.9171 22.5291 15.8459L20.4667 13.7872C20.133 13.4497 20.6429 12.936 20.9804 13.2735L23.0429 15.3321C23.2753 15.5459 23.0953 15.9659 22.7841 15.9546L22.7879 15.9509Z" fill="#61449B"/>
</svg>
