<svg width="24" height="24" viewBox="0 0 24 24" fill="none" xmlns="http://www.w3.org/2000/svg">
<path d="M4.27042 21.907C4.14936 21.9079 4.03152 21.8681 3.93574 21.794C3.84383 21.7237 3.77633 21.6263 3.74279 21.5156C3.70925 21.4048 3.71137 21.2863 3.74884 21.1768L4.58553 18.7559C3.85482 18.5547 3.16135 18.2369 2.53184 17.8149C1.65297 17.2276 0.988076 16.3713 0.636786 15.3743C-0.212262 12.6952 -0.212262 9.81911 0.636786 7.13999C0.98743 6.13922 1.65215 5.27858 2.53184 4.68642C3.50916 4.05785 4.61077 3.6479 5.76125 3.48463L6.01769 3.44768C7.99969 3.15781 9.99968 3.00821 12.0027 3C14.0022 3.00821 15.9986 3.15781 17.9769 3.44768L18.2312 3.48463C19.384 3.64679 20.488 4.05679 21.4671 4.68642C22.3444 5.27532 23.0077 6.13221 23.3578 7.12913C24.2141 9.80714 24.2141 12.6855 23.3578 15.3635C23.0087 16.3645 22.3446 17.2253 21.465 17.817C20.4881 18.4458 19.3875 18.8572 18.2377 19.0232L17.9661 19.0558C15.9903 19.3408 13.9968 19.486 12.0006 19.4904C10.7488 19.4904 9.47963 19.4274 8.22568 19.31L4.57901 21.8093C4.48817 21.8718 4.38072 21.9059 4.27042 21.907V21.907ZM12.0027 3.65197C10.0304 3.65809 8.0609 3.80333 6.10896 4.08661L5.86556 4.11921C4.81032 4.26472 3.79867 4.63528 2.89911 5.20582C2.12903 5.72083 1.5471 6.47208 1.24094 7.34645C0.435919 9.89219 0.435919 12.6243 1.24094 15.1701C1.54821 16.035 2.12678 16.7775 2.89042 17.2868C3.55373 17.7255 4.2895 18.0434 5.06364 18.2256C5.10653 18.2365 5.14667 18.2562 5.18147 18.2836C5.21628 18.3109 5.24499 18.3452 5.26575 18.3843C5.28748 18.423 5.30066 18.4659 5.30441 18.5101C5.30816 18.5544 5.30239 18.5989 5.28749 18.6407L4.44645 21.1225L7.96055 18.732C8.02445 18.6891 8.10132 18.6699 8.17787 18.6776C9.44921 18.7993 10.7379 18.8624 12.0071 18.8645C13.9737 18.8596 15.9375 18.7143 17.8835 18.4299L18.1465 18.3995C19.2 18.2484 20.2087 17.8727 21.1042 17.2976C21.8693 16.7856 22.4474 16.039 22.7515 15.1701C23.5638 12.6254 23.5638 9.89106 22.7515 7.34645C22.4452 6.48162 21.8683 5.73858 21.1064 5.22755C20.2047 4.65651 19.1908 4.28594 18.1334 4.14094L17.8835 4.08661C15.9359 3.80334 13.9708 3.6581 12.0027 3.65197V3.65197Z" fill="#61449B"/>
<path d="M14.7758 14.0834H9.22973C9.14497 14.0424 9.07143 13.9814 9.01541 13.9057C8.9594 13.83 8.92257 13.7418 8.90809 13.6488C8.90614 13.6075 8.91329 13.5662 8.92903 13.528C8.94477 13.4897 8.96873 13.4554 8.9992 13.4274C9.02967 13.3994 9.06592 13.3784 9.10538 13.366C9.14483 13.3536 9.18654 13.3499 9.22755 13.3554H14.7758C14.8163 13.351 14.8573 13.3554 14.8959 13.3683C14.9346 13.3812 14.97 13.4023 14.9997 13.4301C15.0295 13.458 15.0528 13.492 15.0682 13.5297C15.0835 13.5675 15.0905 13.6081 15.0887 13.6488C15.0752 13.741 15.0396 13.8286 14.9852 13.9042C14.9307 13.9798 14.8589 14.0413 14.7758 14.0834V14.0834Z" fill="white"/>
<path d="M14.7758 9.68701H9.22972C9.14439 9.68588 9.06291 9.65133 9.00278 9.59079C8.94264 9.53024 8.90864 9.44853 8.90808 9.3632C8.91839 9.27224 8.9537 9.1859 9.01009 9.11378C9.06648 9.04166 9.14175 8.98658 9.22755 8.95464H14.7758C14.8616 8.98658 14.9369 9.04166 14.9932 9.11378C15.0496 9.1859 15.0849 9.27224 15.0953 9.3632C15.0947 9.44816 15.061 9.52955 15.0013 9.59004C14.9417 9.65052 14.8607 9.68531 14.7758 9.68701Z" fill="white"/>
<path d="M16.9077 11.882H7.09125C7.00553 11.8588 6.92896 11.8099 6.87185 11.7419C6.81473 11.674 6.77981 11.5901 6.77179 11.5017C6.77551 11.4149 6.8095 11.3322 6.86786 11.2679C6.92622 11.2035 7.00526 11.1617 7.09125 11.1496H16.9077C16.9937 11.1617 17.0727 11.2035 17.1311 11.2679C17.1895 11.3322 17.2234 11.4149 17.2272 11.5017C17.2191 11.5901 17.1842 11.674 17.1271 11.7419C17.07 11.8099 16.9934 11.8588 16.9077 11.882Z" fill="white"/>
</svg>
