<svg width="24" height="24" viewBox="0 0 24 24" fill="none" xmlns="http://www.w3.org/2000/svg">
<path d="M10.0974 17.2572C9.19296 17.2565 8.31857 16.9327 7.63196 16.344C6.94535 15.7554 6.49173 14.9407 6.35296 14.047C6.21419 13.1533 6.3994 12.2395 6.87518 11.4704C7.35095 10.7012 8.08596 10.1275 8.94758 9.85259C9.04486 9.8221 9.15026 9.83149 9.24061 9.87872C9.33095 9.92594 9.39884 10.0071 9.42934 10.1044C9.45983 10.2017 9.45043 10.3071 9.40321 10.3974C9.35599 10.4878 9.27481 10.5557 9.17754 10.5861C8.7342 10.7276 8.32951 10.9695 7.99496 11.293C7.66041 11.6165 7.40503 12.0128 7.24872 12.4512C7.0924 12.8895 7.03936 13.358 7.09372 13.8202C7.14809 14.2823 7.30839 14.7257 7.56215 15.1158C7.81591 15.5059 8.15628 15.8322 8.55676 16.0692C8.95724 16.3062 9.40702 16.4476 9.87109 16.4824C10.3352 16.5171 10.801 16.4443 11.2323 16.2696C11.6636 16.0949 12.0488 15.8229 12.3578 15.475C12.3905 15.4345 12.431 15.4011 12.477 15.3767C12.523 15.3524 12.5734 15.3376 12.6253 15.3334C12.6771 15.3291 12.7293 15.3355 12.7786 15.352C12.828 15.3685 12.8734 15.3949 12.9123 15.4295C12.9511 15.4641 12.9825 15.5063 13.0045 15.5534C13.0266 15.6005 13.0388 15.6516 13.0405 15.7036C13.0422 15.7556 13.0333 15.8074 13.0144 15.8559C12.9955 15.9043 12.9669 15.9484 12.9304 15.9855C12.5743 16.3849 12.1379 16.7047 11.6497 16.9238C11.1615 17.143 10.6325 17.2566 10.0974 17.2572V17.2572Z" fill="#61449B"/>
<path d="M13.4248 22.9509C13.2641 22.9503 13.1072 22.9018 12.9741 22.8117C12.841 22.7216 12.7377 22.5939 12.6774 22.445L12.4705 21.9322C12.3522 21.6401 12.1507 21.3892 11.8912 21.2106C11.6316 21.032 11.3253 20.9334 11.0103 20.9272L9.33389 20.8951C9.04619 20.8874 8.76181 20.958 8.51111 21.0993C8.26041 21.2407 8.05281 21.4475 7.91047 21.6976L7.42756 22.53C7.33173 22.6969 7.1793 22.8238 6.9979 22.888C6.81651 22.9521 6.61814 22.9491 6.43875 22.8796C5.45244 22.4977 4.53275 21.9622 3.71378 21.2929C3.55316 21.1592 3.45104 20.968 3.42914 20.7602C3.40723 20.5523 3.46728 20.3442 3.5965 20.1799L3.93684 19.7453C4.13123 19.4969 4.24838 19.1969 4.27373 18.8825C4.29908 18.5681 4.23151 18.2532 4.07941 17.9769L3.27687 16.5098C3.1387 16.2582 2.93579 16.0482 2.68916 15.9014C2.44252 15.7547 2.16113 15.6765 1.87414 15.6751H0.919822C0.727216 15.676 0.540601 15.6082 0.393503 15.4838C0.246405 15.3595 0.148465 15.1868 0.117277 14.9967C0.0394366 14.4899 0.00023122 13.9779 0 13.4652C0.000561363 12.9408 0.0413061 12.4173 0.121876 11.8992C0.153971 11.711 0.251751 11.5402 0.397845 11.4173C0.543939 11.2944 0.728885 11.2272 0.919822 11.2277H1.88104C2.16835 11.2275 2.45039 11.1505 2.69786 11.0045C2.94533 10.8585 3.14922 10.649 3.28836 10.3976L4.10241 8.93277C4.25497 8.65738 4.32344 8.3433 4.29932 8.0294C4.27521 7.7155 4.15957 7.41556 3.96673 7.16671L3.6264 6.7298C3.49797 6.56469 3.43908 6.35596 3.46227 6.14807C3.48546 5.94018 3.58891 5.74956 3.75057 5.61681C4.55966 4.95866 5.46667 4.43105 6.43875 4.05312C6.61707 3.98572 6.81348 3.98362 6.99321 4.04717C7.17293 4.11073 7.32435 4.23584 7.42066 4.40035L7.90357 5.23509C8.04572 5.48539 8.25328 5.69231 8.50403 5.83369C8.75477 5.97506 9.03925 6.04556 9.32699 6.03763C9.37739 6.0361 9.4276 6.04463 9.47466 6.06272C9.52173 6.08082 9.56472 6.10811 9.60111 6.14301C9.63751 6.17791 9.66659 6.21971 9.68664 6.26597C9.7067 6.31224 9.71733 6.36204 9.71792 6.41246C9.71883 6.46289 9.7098 6.51301 9.69134 6.55995C9.67288 6.6069 9.64536 6.64974 9.61033 6.68604C9.57531 6.72235 9.53348 6.75139 9.48724 6.77153C9.44099 6.79166 9.39122 6.80249 9.34079 6.80338C8.91715 6.81196 8.49895 6.70684 8.12971 6.49897C7.76047 6.2911 7.45369 5.98807 7.2413 5.62141L6.75609 4.78667C6.75609 4.77058 6.7285 4.76138 6.717 4.76828C5.81655 5.11668 4.97623 5.60396 4.22658 6.2124C4.22092 6.21872 4.2178 6.22691 4.2178 6.23539C4.2178 6.24388 4.22092 6.25206 4.22658 6.25839L4.56462 6.6953C4.85114 7.0623 5.02315 7.5056 5.05914 7.9698C5.09513 8.43401 4.99351 8.89853 4.76698 9.3053L3.95293 10.7724C3.74749 11.1414 3.44747 11.449 3.08374 11.6636C2.72 11.8782 2.30566 11.9921 1.88334 11.9935H0.919822C0.911764 11.9931 0.903798 11.9953 0.89715 11.9999C0.890502 12.0045 0.88554 12.0111 0.883029 12.0188C0.807897 12.4972 0.770223 12.9809 0.770351 13.4652C0.770241 13.9378 0.8056 14.4098 0.87613 14.8771C0.878641 14.8848 0.883603 14.8914 0.890251 14.896C0.896899 14.9006 0.904865 14.9028 0.912923 14.9024H1.87644C2.29973 14.9045 2.71478 15.0196 3.07865 15.2359C3.44251 15.4522 3.74197 15.7618 3.94604 16.1327L4.75318 17.5998C4.97817 18.0074 5.07829 18.4722 5.04108 18.9363C5.00387 19.4003 4.83098 19.8432 4.54392 20.2098L4.20359 20.6467C4.19793 20.653 4.1948 20.6612 4.1948 20.6697C4.1948 20.6782 4.19793 20.6864 4.20359 20.6927C4.96402 21.3116 5.8178 21.806 6.7331 22.1575C6.74073 22.1594 6.74877 22.1585 6.75588 22.1552C6.76299 22.1518 6.76874 22.1462 6.77219 22.1391L7.2482 21.3159C7.46295 20.9513 7.77024 20.65 8.13893 20.4424C8.50762 20.2349 8.92462 20.1284 9.34769 20.1339L11.0241 20.1638C11.4895 20.173 11.9421 20.3187 12.3255 20.5828C12.709 20.8469 13.0064 21.2177 13.181 21.6493L13.388 22.1621C13.3914 22.1701 13.3972 22.1769 13.4046 22.1815C13.412 22.186 13.4207 22.1881 13.4294 22.1874C14.3561 21.831 15.2206 21.3304 15.9911 20.7042C15.9968 20.6979 15.9999 20.6897 15.9999 20.6812C15.9999 20.6727 15.9968 20.6645 15.9911 20.6582L15.6508 20.2213C15.3637 19.8547 15.1908 19.4118 15.1536 18.9478C15.1164 18.4837 15.2165 18.0189 15.4415 17.6113C15.4641 17.5641 15.496 17.522 15.5354 17.4877C15.5748 17.4533 15.6209 17.4273 15.6707 17.4113C15.7205 17.3954 15.773 17.3897 15.825 17.3948C15.8771 17.3998 15.9276 17.4155 15.9734 17.4407C16.0192 17.466 16.0593 17.5003 16.0914 17.5416C16.1234 17.5829 16.1467 17.6304 16.1598 17.681C16.1728 17.7316 16.1754 17.7844 16.1674 17.8361C16.1593 17.8878 16.1408 17.9373 16.113 17.9815C15.9609 18.2578 15.8933 18.5727 15.9187 18.8871C15.944 19.2015 16.0612 19.5015 16.2556 19.7499L16.5959 20.1845C16.7251 20.3488 16.7852 20.5569 16.7633 20.7648C16.7414 20.9726 16.6392 21.1638 16.4786 21.2975C15.6466 21.9794 14.7102 22.5229 13.7053 22.9072C13.6152 22.9384 13.5202 22.9532 13.4248 22.9509V22.9509Z" fill="#61449B"/>
<path d="M17.2812 11.8877C16.6662 11.8869 16.0688 11.6827 15.5819 11.307C15.0951 10.9312 14.7462 10.405 14.5896 9.81033C14.433 9.21564 14.4775 8.58584 14.7162 8.01907C14.9548 7.4523 15.3742 6.98037 15.909 6.67681C16.4439 6.37325 17.0641 6.25509 17.6731 6.34076C18.282 6.42643 18.8456 6.7111 19.2759 7.15044C19.7062 7.58977 19.9791 8.15909 20.0521 8.76971C20.1252 9.38033 19.9942 9.99796 19.6796 10.5264V10.5264C19.4937 10.8418 19.2469 11.1171 18.9536 11.3362C18.6602 11.5553 18.3262 11.7139 17.971 11.8026C17.7454 11.8592 17.5137 11.8878 17.2812 11.8877V11.8877ZM17.2812 7.23341C16.8733 7.23406 16.477 7.36837 16.1528 7.61577C15.8286 7.86317 15.5944 8.21002 15.4861 8.6032C15.3779 8.99639 15.4014 9.41422 15.5533 9.79271C15.7051 10.1712 15.9769 10.4895 16.3268 10.6988C16.5377 10.8245 16.7713 10.9074 17.0142 10.9427C17.2572 10.9781 17.5047 10.9651 17.7426 10.9047C17.9806 10.8442 18.2043 10.7375 18.4009 10.5905C18.5975 10.4435 18.7632 10.2592 18.8885 10.0481C19.0581 9.76437 19.1492 9.44072 19.1525 9.11025C19.1558 8.77978 19.0713 8.45435 18.9075 8.1673C18.7438 7.88024 18.5067 7.64185 18.2205 7.47655C17.9343 7.31124 17.6093 7.22495 17.2789 7.22651L17.2812 7.23341Z" fill="#F16024"/>
<path d="M17.2812 16.1902C16.8758 16.1901 16.4711 16.1555 16.0716 16.0867C15.8798 16.0513 15.7093 15.9427 15.5961 15.784C15.4828 15.6252 15.4356 15.4287 15.4645 15.2359L15.522 14.861C15.5501 14.6863 15.5258 14.5072 15.4521 14.3464C15.3785 14.1855 15.2587 14.0501 15.1081 13.9573L14.1354 13.3525C13.9983 13.2664 13.8405 13.2189 13.6786 13.2148C13.5168 13.2108 13.3568 13.2504 13.2156 13.3295L12.6476 13.6561C12.4918 13.7414 12.3109 13.7691 12.1368 13.7342C11.9626 13.6993 11.8064 13.604 11.6955 13.4652C11.238 12.8802 10.8756 12.2268 10.6217 11.529C10.5564 11.3452 10.5652 11.1433 10.6464 10.966C10.7275 10.7887 10.8745 10.6499 11.0563 10.5793L11.4081 10.4436C11.5725 10.3795 11.7145 10.2687 11.8167 10.1249C11.9188 9.98104 11.9766 9.81045 11.983 9.63414L12.0198 8.48436C12.0258 8.32394 11.9886 8.16484 11.9122 8.02367C11.8358 7.8825 11.7228 7.76444 11.5852 7.68182L11.0195 7.34148C10.866 7.25091 10.7502 7.10817 10.6932 6.93931C10.6362 6.77044 10.6418 6.58672 10.709 6.42166C10.8448 6.08851 11.0046 5.76572 11.1873 5.45585C11.3768 5.13928 11.5905 4.8379 11.8266 4.55442C11.9399 4.41759 12.0984 4.32589 12.2735 4.29593C12.4486 4.26598 12.6286 4.29976 12.7809 4.39115L13.3374 4.73839C13.4765 4.82144 13.6354 4.86529 13.7973 4.86529C13.9593 4.86529 14.1182 4.82144 14.2573 4.73839L15.2484 4.1635C15.401 4.07473 15.5243 3.94306 15.6028 3.78484C15.6813 3.62663 15.7116 3.44885 15.6899 3.27357L15.637 2.90564C15.6127 2.71107 15.6659 2.51475 15.7851 2.35903C15.9042 2.20331 16.0798 2.10066 16.274 2.0732C17.0006 1.96774 17.7392 1.97628 18.4631 2.0985C18.6394 2.12673 18.7995 2.21767 18.914 2.35457C19.0285 2.49146 19.0897 2.66511 19.0863 2.84355V3.50353C19.0849 3.66452 19.1269 3.82293 19.2078 3.96212C19.2887 4.1013 19.4056 4.21614 19.5462 4.29457L20.5419 4.86256C20.6952 4.94926 20.8706 4.98915 21.0463 4.9773C21.2221 4.96545 21.3905 4.90238 21.5307 4.79588L21.832 4.56592C21.9876 4.44818 22.183 4.39576 22.3767 4.4198C22.5703 4.44385 22.747 4.54247 22.8691 4.6947C23.3319 5.28015 23.699 5.9352 23.9568 6.63552C24.0217 6.81871 24.0132 7.01993 23.9331 7.197C23.8529 7.37406 23.7073 7.5132 23.5268 7.58524L23.1749 7.72321C23.0103 7.78663 22.8681 7.89731 22.7662 8.04134C22.6643 8.18537 22.6073 8.3563 22.6023 8.53265L22.5678 9.68243C22.5622 9.84138 22.5988 9.99898 22.6739 10.1392C22.7491 10.2793 22.8601 10.3971 22.9956 10.4804L23.5612 10.8184C23.7145 10.9093 23.8304 11.0518 23.8881 11.2203C23.9458 11.3889 23.9416 11.5725 23.8763 11.7382C23.6041 12.4147 23.2295 13.0452 22.7656 13.6078C22.6523 13.7446 22.4938 13.8363 22.3187 13.8663C22.1436 13.8962 21.9636 13.8624 21.8113 13.771L21.2433 13.4376C21.1043 13.3546 20.9453 13.3107 20.7834 13.3107C20.6214 13.3107 20.4625 13.3546 20.3235 13.4376L19.3393 14.0148C19.1864 14.1032 19.0631 14.2349 18.9849 14.3933C18.9068 14.5516 18.8772 14.7296 18.9001 14.9047L18.9483 15.2795C18.9722 15.4729 18.9201 15.668 18.803 15.8237C18.6859 15.9794 18.513 16.0836 18.3206 16.1143C17.9764 16.1648 17.629 16.1902 17.2812 16.1902V16.1902ZM16.4027 15.206C16.9361 15.2834 17.4774 15.2895 18.0124 15.2244L17.9871 15.022C17.942 14.6678 18.0018 14.3082 18.1592 13.9877C18.3166 13.6672 18.5646 13.4 18.8725 13.2191L19.859 12.6397C20.1381 12.4766 20.4555 12.3907 20.7788 12.3907C21.102 12.3907 21.4195 12.4766 21.6986 12.6397L22.1355 12.8972C22.298 12.6908 22.447 12.4742 22.5816 12.2487C22.7188 12.0165 22.8417 11.7762 22.9496 11.529L22.5104 11.2668C22.2328 11.1015 22.0042 10.8653 21.8482 10.5824C21.6922 10.2994 21.6144 9.9801 21.6227 9.65713L21.6572 8.50736C21.6671 8.15147 21.7814 7.80633 21.9858 7.51483C22.1902 7.22334 22.4758 6.99833 22.807 6.86777L22.9979 6.79189C22.7981 6.30097 22.537 5.83736 22.2206 5.41216L22.0573 5.53633C21.773 5.75283 21.4314 5.88091 21.0748 5.90463C20.7182 5.92834 20.3626 5.84665 20.0521 5.66971L19.0863 5.09482C18.8029 4.93344 18.5681 4.69893 18.4063 4.41577C18.2445 4.13262 18.1617 3.81122 18.1665 3.48513V2.97693C17.6431 2.90106 17.1119 2.8941 16.5867 2.95623L16.612 3.15859C16.6564 3.51284 16.5955 3.87233 16.4368 4.19215C16.2781 4.51197 16.0287 4.77795 15.7198 4.95684L14.7172 5.54093C14.4375 5.70239 14.1203 5.7874 13.7973 5.7874C13.4744 5.7874 13.1572 5.70239 12.8775 5.54093L12.4406 5.27878C12.2727 5.49067 12.1191 5.71345 11.9807 5.94565C11.846 6.16745 11.7262 6.39791 11.622 6.63552L12.0589 6.89767C12.3362 7.06632 12.564 7.30535 12.7191 7.59048C12.8741 7.87561 12.951 8.1967 12.9419 8.52115L12.9028 9.67093C12.8916 10.0262 12.7768 10.3704 12.5725 10.6613C12.3682 10.9522 12.0834 11.1771 11.753 11.3082L11.5599 11.3818C11.7583 11.8802 12.0204 12.3509 12.3394 12.7822L12.7855 12.5339C13.0685 12.3774 13.388 12.299 13.7113 12.3067C14.0345 12.3143 14.35 12.4078 14.6252 12.5776L15.5979 13.1824C15.9011 13.3706 16.1423 13.6438 16.2915 13.968C16.4407 14.2922 16.4914 14.6531 16.4372 15.0059L16.4027 15.206Z" fill="#F16024"/>
</svg>
