<svg width="24" height="24" viewBox="0 0 24 24" fill="none" xmlns="http://www.w3.org/2000/svg">
<rect x="0.5" y="2.5" width="23" height="19" rx="5.5" stroke="#61449B"/>
<path d="M8.17673 8.99001C8.59673 8.99001 8.96673 9.07667 9.28673 9.25001C9.60673 9.42334 9.8534 9.67001 10.0267 9.99001C10.2067 10.3033 10.2967 10.6667 10.2967 11.08C10.2967 11.4867 10.2067 11.8467 10.0267 12.16C9.84673 12.4733 9.59007 12.7167 9.25673 12.89C8.93007 13.0567 8.55007 13.14 8.11673 13.14H6.51673C6.4834 13.14 6.46673 13.1567 6.46673 13.19V15.88C6.46673 15.9133 6.4534 15.9433 6.42673 15.97C6.40673 15.99 6.38007 16 6.34673 16H5.42673C5.3934 16 5.3634 15.99 5.33673 15.97C5.31673 15.9433 5.30673 15.9133 5.30673 15.88V9.11001C5.30673 9.07667 5.31673 9.05001 5.33673 9.03001C5.3634 9.00334 5.3934 8.99001 5.42673 8.99001H8.17673ZM8.00673 12.2C8.34673 12.2 8.62007 12.1 8.82673 11.9C9.0334 11.7 9.13673 11.4367 9.13673 11.11C9.13673 10.7767 9.0334 10.5067 8.82673 10.3C8.62007 10.0933 8.34673 9.99001 8.00673 9.99001H6.51673C6.4834 9.99001 6.46673 10.0067 6.46673 10.04V12.15C6.46673 12.1833 6.4834 12.2 6.51673 12.2H8.00673Z" fill="white"/>
<path d="M11.434 16C11.4007 16 11.3707 15.99 11.344 15.97C11.324 15.9433 11.314 15.9133 11.314 15.88V9.12001C11.314 9.08667 11.324 9.06001 11.344 9.04001C11.3707 9.01334 11.4007 9.00001 11.434 9.00001H12.354C12.3873 9.00001 12.414 9.01334 12.434 9.04001C12.4607 9.06001 12.474 9.08667 12.474 9.12001V15.88C12.474 15.9133 12.4607 15.9433 12.434 15.97C12.414 15.99 12.3873 16 12.354 16H11.434Z" fill="white"/>
<path d="M13.6412 16C13.5945 16 13.5612 15.99 13.5412 15.97C13.5279 15.9433 13.5345 15.9067 13.5612 15.86L15.5512 12.53C15.5645 12.51 15.5645 12.49 15.5512 12.47L13.5612 9.14001C13.5479 9.10001 13.5412 9.07667 13.5412 9.07001C13.5412 9.02334 13.5745 9.00001 13.6412 9.00001H14.6412C14.7145 9.00001 14.7645 9.02667 14.7912 9.08001L16.2512 11.56C16.2712 11.6 16.2912 11.6 16.3112 11.56L17.7812 9.08001C17.8079 9.02667 17.8545 9.00001 17.9212 9.00001H18.9212C18.9679 9.00001 18.9979 9.01334 19.0112 9.04001C19.0312 9.06001 19.0279 9.09334 19.0012 9.14001L17.0112 12.47C17.0045 12.49 17.0045 12.51 17.0112 12.53L19.0012 15.86C19.0145 15.9 19.0212 15.9233 19.0212 15.93C19.0212 15.9767 18.9879 16 18.9212 16H17.9212C17.8545 16 17.8079 15.9733 17.7812 15.92L16.3112 13.45C16.2912 13.41 16.2712 13.41 16.2512 13.45L14.7812 15.92C14.7545 15.9733 14.7079 16 14.6412 16H13.6412Z" fill="white"/>
</svg>
