<svg width="24" height="24" viewBox="0 0 24 24" fill="none" xmlns="http://www.w3.org/2000/svg">
<path fill-rule="evenodd" clip-rule="evenodd" d="M7.88212 9.60168L14.625 16.3446L18.75 12.2196L23.7804 17.2499L23.25 17.7803L18.75 13.2803L14.625 17.4053L7.86798 10.6482L0.735718 17.4051L0.21991 16.8606L7.88212 9.60168Z" fill="white"/>
<path fill-rule="evenodd" clip-rule="evenodd" d="M15 9C16.2426 9 17.25 7.99264 17.25 6.75C17.25 5.50736 16.2426 4.5 15 4.5C13.7574 4.5 12.75 5.50736 12.75 6.75C12.75 7.99264 13.7574 9 15 9ZM15 9.75C16.6569 9.75 18 8.40685 18 6.75C18 5.09315 16.6569 3.75 15 3.75C13.3431 3.75 12 5.09315 12 6.75C12 8.40685 13.3431 9.75 15 9.75Z" fill="white"/>
<path fill-rule="evenodd" clip-rule="evenodd" d="M23.25 0.75H0.75V23.25H23.25V0.75ZM0 0V24H24V0H0Z" fill="#F16024"/>
</svg>
