<svg width="25" height="24" viewBox="0 0 25 24" fill="none" xmlns="http://www.w3.org/2000/svg">
<path d="M4.27204 21.9023C4.15471 21.9023 4.03737 21.8654 3.93741 21.7893C3.74837 21.6459 3.67449 21.3982 3.75054 21.1722L4.58495 18.7537C3.794 18.5234 3.10301 18.2083 2.53153 17.8129C1.63411 17.2001 0.99744 16.3787 0.636733 15.3727C0.208666 14.0037 -0.00428067 12.6217 6.51922e-05 11.2528C-0.00428067 9.88384 0.208666 8.49968 0.63456 7.13943C0.999613 6.12033 1.63628 5.29896 2.5337 4.68619C3.37245 4.11254 4.45674 3.70837 5.7605 3.48674L6.01691 3.4498C8.01383 3.15645 10.0281 3.00652 12.0033 3C13.9763 3.00652 15.9863 3.15645 17.9767 3.44762L18.2309 3.48456C19.5434 3.70837 20.6277 4.11037 21.4664 4.68619C22.3617 5.29896 22.9983 6.1225 23.3569 7.12856C23.7893 8.49751 24.0044 9.88384 24.0022 11.255C24.0044 12.6239 23.7893 14.0059 23.3612 15.3618C22.9983 16.3809 22.3639 17.2023 21.4686 17.815C20.6299 18.393 19.5434 18.7972 18.2418 19.021L17.9702 19.0536C15.9906 19.3426 13.9807 19.4904 12.0055 19.4947C10.7539 19.4925 9.4849 19.4317 8.23112 19.3165L4.58277 21.8089C4.48934 21.8741 4.38069 21.9045 4.27204 21.9045V21.9023ZM12.0033 3.64101C10.0607 3.64753 8.07684 3.79529 6.11251 4.08212L5.86263 4.11906C4.65882 4.32331 3.65928 4.69271 2.89658 5.21421C2.11215 5.74875 1.55588 6.46582 1.24298 7.34368C0.840989 8.62571 0.636733 9.94685 0.641079 11.2528C0.636733 12.5587 0.840989 13.8755 1.24515 15.1706C1.55588 16.0354 2.11215 16.7525 2.89441 17.287C3.48327 17.6933 4.21772 18.0084 5.0782 18.2257C5.16512 18.2474 5.239 18.3061 5.28246 18.3843C5.32591 18.4626 5.33243 18.556 5.30418 18.6407L4.44805 21.1222L7.96385 18.7211C8.02469 18.6799 8.09857 18.6581 8.17462 18.6668C9.44579 18.7885 10.7343 18.8515 12.0055 18.8537C13.9481 18.8493 15.9276 18.7038 17.8854 18.4191L18.1484 18.3887C19.3413 18.1844 20.343 17.8129 21.1036 17.287C21.8858 16.7525 22.4399 16.0354 22.7528 15.1575C23.157 13.8755 23.3634 12.5565 23.3612 11.255C23.3634 9.94903 23.1591 8.63006 22.7506 7.33282C22.4421 6.46799 21.888 5.75093 21.1057 5.21639C20.3452 4.69488 19.3435 4.32549 18.1332 4.11906L17.8854 4.08429C15.9233 3.79746 13.9438 3.64971 12.0033 3.64319V3.64101Z" fill="#61449B"/>
<path d="M9.27653 9.17112C9.25697 9.19067 9.2309 9.20154 9.20265 9.20154H6.24747C6.21922 9.20154 6.20401 9.21675 6.20401 9.245V10.8703C6.20401 10.8986 6.21922 10.9138 6.24747 10.9138H8.23787C8.26612 10.9138 8.29219 10.9247 8.31175 10.9442C8.33131 10.9638 8.34217 10.9899 8.34217 11.0181V11.6787C8.34217 11.7069 8.33131 11.733 8.31175 11.7526C8.29219 11.7721 8.26612 11.783 8.23787 11.783H6.24747C6.21922 11.783 6.20401 11.7982 6.20401 11.8264V14.3123C6.20401 14.3405 6.19314 14.3666 6.17359 14.3861C6.15403 14.4057 6.12796 14.4166 6.09971 14.4166H5.30007C5.27182 14.4166 5.24575 14.4057 5.22619 14.3861C5.20663 14.3666 5.19577 14.3405 5.19577 14.3123V8.43667C5.19577 8.40842 5.20663 8.38234 5.22619 8.36279C5.24575 8.34323 5.27182 8.33237 5.30007 8.33237H9.20265C9.2309 8.33237 9.25697 8.34323 9.27653 8.36279C9.29609 8.38234 9.30695 8.40842 9.30695 8.43667V9.09724C9.30695 9.12549 9.29609 9.15156 9.27653 9.17112Z" fill="white"/>
<path d="M13.1574 14.3297L12.8706 13.3996C12.8597 13.3757 12.8445 13.3649 12.8271 13.3649H10.5325C10.5151 13.3649 10.4999 13.3757 10.489 13.3996L10.2022 14.3297C10.1848 14.3883 10.1479 14.4166 10.0892 14.4166H9.22004C9.18527 14.4166 9.1592 14.4057 9.14181 14.3861C9.12443 14.3666 9.12226 14.3362 9.13312 14.2949L11.0192 8.41928C11.0366 8.36061 11.0735 8.33237 11.1322 8.33237H12.2187C12.2773 8.33237 12.3143 8.36061 12.3317 8.41928L14.2265 14.2949C14.233 14.3057 14.2352 14.321 14.2352 14.3383C14.2352 14.3905 14.2026 14.4166 14.1395 14.4166H13.2704C13.2117 14.4166 13.1748 14.3883 13.1574 14.3297ZM10.7932 12.5739H12.5577C12.5924 12.5739 12.6033 12.5565 12.5924 12.5218L11.6972 9.61005C11.6907 9.58615 11.682 9.57528 11.6711 9.57528C11.6602 9.57528 11.6515 9.58615 11.645 9.61005L10.7585 12.5218C10.752 12.5565 10.765 12.5739 10.7932 12.5739Z" fill="white"/>
<path d="M18.0074 8.52358C18.3311 8.69742 18.5832 8.94296 18.7635 9.26238C18.9439 9.5818 19.033 9.94903 19.033 10.3662V12.4522C19.033 12.9629 18.8896 13.3953 18.6027 13.7517C18.3159 14.108 17.927 14.3362 17.4337 14.434C17.4098 14.4405 17.3989 14.4579 17.3989 14.4861V15.2162C17.3989 15.2445 17.3881 15.2705 17.3685 15.2901C17.349 15.3096 17.3229 15.3205 17.2946 15.3205H16.495C16.4668 15.3205 16.4407 15.3096 16.4211 15.2901C16.4016 15.2705 16.3907 15.2445 16.3907 15.2162V14.4861C16.3907 14.4622 16.3755 14.4448 16.3472 14.434C15.8605 14.3362 15.4716 14.1102 15.1826 13.756C14.8936 13.4018 14.748 12.9672 14.748 12.4522V10.3662C14.748 9.94903 14.8371 9.5818 15.0174 9.26238C15.1978 8.94296 15.4477 8.69742 15.7692 8.52358C16.0908 8.34975 16.4624 8.26283 16.8861 8.26283C17.3099 8.26283 17.6836 8.34975 18.0074 8.52358ZM18.0247 10.3141C18.0247 9.95989 17.9204 9.67524 17.7118 9.45794C17.5032 9.24065 17.2273 9.132 16.8861 9.132C16.545 9.132 16.2777 9.24065 16.0691 9.45794C15.8605 9.67524 15.7562 9.95989 15.7562 10.3141V12.4349C15.7562 12.789 15.8605 13.0737 16.0691 13.291C16.2777 13.5083 16.5493 13.6169 16.8861 13.6169C17.2229 13.6169 17.5032 13.5083 17.7118 13.291C17.9204 13.0737 18.0247 12.789 18.0247 12.4349V10.3141Z" fill="white"/>
</svg>
