<svg width="24" height="24" viewBox="0 0 24 24" fill="none" xmlns="http://www.w3.org/2000/svg">
<rect x="0.5" y="2.5" width="23" height="19" rx="5.5" stroke="#F16024"/>
<path d="M7.06876 16C7.03543 16 7.00543 15.99 6.97876 15.97C6.95876 15.9433 6.94876 15.9133 6.94876 15.88V9.12C6.94876 9.08666 6.95876 9.06 6.97876 9.04C7.00543 9.01333 7.03543 9 7.06876 9H7.98876C8.02209 9 8.04876 9.01333 8.06876 9.04C8.09543 9.06 8.10876 9.08666 8.10876 9.12V15.88C8.10876 15.9133 8.09543 15.9433 8.06876 15.97C8.04876 15.99 8.02209 16 7.98876 16H7.06876Z" fill="white"/>
<path d="M10.1659 16.02C9.95928 16.02 9.78928 15.9533 9.65595 15.82C9.52261 15.6867 9.45595 15.5167 9.45595 15.31C9.45595 15.1033 9.52261 14.9333 9.65595 14.8C9.78928 14.6667 9.95928 14.6 10.1659 14.6C10.3726 14.6 10.5393 14.6667 10.6659 14.8C10.7993 14.9333 10.8659 15.1033 10.8659 15.31C10.8659 15.5167 10.7993 15.6867 10.6659 15.82C10.5326 15.9533 10.3659 16.02 10.1659 16.02Z" fill="white"/>
<path d="M14.6703 16.1C14.1703 16.1 13.727 16 13.3403 15.8C12.9537 15.5933 12.6537 15.3033 12.4403 14.93C12.2337 14.5567 12.1303 14.1267 12.1303 13.64V11.36C12.1303 10.88 12.237 10.4567 12.4503 10.09C12.6637 9.71666 12.9603 9.43 13.3403 9.23C13.727 9.02333 14.1703 8.92 14.6703 8.92C15.177 8.92 15.6203 9.02333 16.0003 9.23C16.387 9.43 16.687 9.71666 16.9003 10.09C17.1137 10.4567 17.2203 10.88 17.2203 11.36V13.64C17.2203 14.1267 17.1137 14.5567 16.9003 14.93C16.687 15.3033 16.387 15.5933 16.0003 15.8C15.6203 16 15.177 16.1 14.6703 16.1ZM14.6703 15.1C15.0903 15.1 15.427 14.97 15.6803 14.71C15.9337 14.45 16.0603 14.1067 16.0603 13.68V11.35C16.0603 10.9167 15.9337 10.57 15.6803 10.31C15.427 10.05 15.0903 9.92 14.6703 9.92C14.257 9.92 13.9237 10.05 13.6703 10.31C13.417 10.57 13.2903 10.9167 13.2903 11.35V13.68C13.2903 14.1067 13.417 14.45 13.6703 14.71C13.9237 14.97 14.257 15.1 14.6703 15.1Z" fill="white"/>
</svg>
