<svg width="24" height="24" viewBox="0 0 24 24" fill="none" xmlns="http://www.w3.org/2000/svg">
<rect x="0.5" y="2.5" width="23" height="19" rx="5.5" stroke="#61449B"/>
<path d="M8.68497 16C8.65164 16 8.62164 15.99 8.59497 15.97C8.57497 15.9433 8.56497 15.9133 8.56497 15.88V9.12C8.56497 9.08667 8.57497 9.06 8.59497 9.04C8.62164 9.01333 8.65164 9 8.68497 9H9.60497C9.63831 9 9.66497 9.01333 9.68497 9.04C9.71164 9.06 9.72497 9.08667 9.72497 9.12V14.95C9.72497 14.9833 9.74164 15 9.77497 15H13.125C13.1583 15 13.185 15.0133 13.205 15.04C13.2316 15.06 13.245 15.0867 13.245 15.12V15.88C13.245 15.9133 13.2316 15.9433 13.205 15.97C13.185 15.99 13.1583 16 13.125 16H8.68497Z" fill="white"/>
<path d="M14.3979 16C14.3645 16 14.3345 15.99 14.3079 15.97C14.2879 15.9433 14.2779 15.9133 14.2779 15.88V9.12C14.2779 9.08667 14.2879 9.06 14.3079 9.04C14.3345 9.01333 14.3645 9 14.3979 9H15.3179C15.3512 9 15.3779 9.01333 15.3979 9.04C15.4245 9.06 15.4379 9.08667 15.4379 9.12V15.88C15.4379 15.9133 15.4245 15.9433 15.3979 15.97C15.3779 15.99 15.3512 16 15.3179 16H14.3979Z" fill="white"/>
</svg>
