<svg width="24" height="24" viewBox="0 0 24 24" fill="none" xmlns="http://www.w3.org/2000/svg">
<path d="M7.99779 19.996C7.94234 19.996 7.88689 19.9881 7.83145 19.9683C7.64927 19.9049 7.51857 19.7386 7.50273 19.5485L6.00171 4.5502C5.98587 4.35218 6.08092 4.16604 6.25122 4.06702C6.42152 3.96801 6.63539 3.97989 6.7938 4.09475L19.0317 12.9028C19.1901 13.0177 19.2653 13.2078 19.2297 13.4019C19.194 13.592 19.0515 13.7464 18.8653 13.7939L15.1068 14.7841L16.6316 17.4415C16.7702 17.6792 16.6871 17.9841 16.4494 18.1227L13.3127 19.9327C13.1979 20 13.0593 20.0158 12.9325 19.9842C12.8058 19.9485 12.6949 19.8653 12.6276 19.7505L11.0949 17.093L8.35027 19.8535C8.25522 19.9485 8.12848 20 7.99383 20L7.99779 19.996ZM11.2018 15.7742C11.2216 15.7742 11.2454 15.7742 11.2652 15.7781C11.4196 15.7979 11.5543 15.889 11.6335 16.0237L13.2415 18.8119L15.5148 17.5009L13.9147 14.7128C13.8355 14.5781 13.8276 14.4157 13.887 14.2692C13.9464 14.1266 14.0692 14.0197 14.2197 13.9801L17.5821 13.0929L7.11064 5.5522L8.39384 18.392L10.8493 15.9207C10.9444 15.8257 11.0711 15.7742 11.2058 15.7742H11.2018Z" fill="white"/>
</svg>
