<svg width="24" height="24" viewBox="0 0 24 24" fill="none" xmlns="http://www.w3.org/2000/svg">
<path d="M13.3314 8.21357C13.1139 8.4348 12.8139 8.56979 12.4314 8.61479C12.3789 8.58479 12.4202 8.97102 12.4127 9.10601C12.4352 9.22225 12.1352 9.1585 11.9139 9.1735C11.869 9.1735 11.8502 9.151 11.8502 9.10601C11.8427 8.97102 11.884 8.58104 11.8315 8.61104C11.0178 8.52105 10.5153 7.94733 10.5903 7.14864C10.5903 6.78116 11.1752 6.78116 11.1752 7.14864V7.30613C11.1752 8.47605 13.6313 8.26606 12.9526 7.03615C12.4427 6.45494 11.2802 6.40994 10.8378 5.73498C10.3578 4.98128 10.8903 3.9576 11.8127 3.90511C11.869 3.9426 11.824 3.44764 11.8315 3.36889C11.809 3.25265 12.1127 3.32015 12.3227 3.3014C12.3677 3.3014 12.3864 3.32389 12.3864 3.36889C12.3939 3.49263 12.3527 3.93885 12.4052 3.91635C13.1739 4.00635 13.6763 4.57256 13.6201 5.33751C13.6201 5.66374 13.0314 5.66374 13.0314 5.33751C13.0464 5.07878 12.9751 4.83879 12.7764 4.6663C12.3639 4.29133 11.2165 4.33258 11.254 5.09378C11.254 5.40126 11.4152 5.555 11.6777 5.69749C11.9664 5.85123 12.7426 6.13996 13.0276 6.31994C13.7176 6.64992 13.8751 7.6811 13.3351 8.21357H13.3314Z" fill="#F16024"/>
<path d="M12.1239 10.5122C9.7841 10.5122 7.88297 8.59603 7.88297 6.23744C8.11546 0.56407 16.1324 0.567819 16.3649 6.23744C16.3649 8.59603 14.4638 10.5122 12.1239 10.5122ZM12.1239 2.69018C10.1853 2.69018 8.61042 4.28007 8.61042 6.23744C8.79416 10.9396 15.4537 10.9396 15.6375 6.23744C15.6375 4.28007 14.0626 2.69018 12.1239 2.69018Z" fill="white"/>
<path d="M17.9398 11.9783H6.30807C5.83561 11.9783 5.82811 11.2546 6.30807 11.2509H17.9398C18.4123 11.2509 18.4198 11.9746 17.9398 11.9783Z" fill="white"/>
<path d="M17.9398 19.804H6.30807C5.83561 19.804 5.82811 19.0803 6.30807 19.0766H17.9398C18.4123 19.0766 18.4198 19.8003 17.9398 19.804Z" fill="white"/>
<path d="M17.9398 13.9357H6.30807C5.83561 13.9357 5.82811 13.212 6.30807 13.2082H17.9398C18.4123 13.2082 18.4198 13.9319 17.9398 13.9357Z" fill="#F16024"/>
<path d="M17.9398 15.8893H6.30807C5.83561 15.8893 5.82811 15.1656 6.30807 15.1618H17.9398C18.4123 15.1618 18.4198 15.8856 17.9398 15.8893Z" fill="white"/>
<path d="M17.9398 17.8467H6.30807C5.83561 17.8467 5.82811 17.123 6.30807 17.1192H17.9398C18.4123 17.1192 18.4198 17.8429 17.9398 17.8467Z" fill="#F16024"/>
<path d="M16.0012 24C15.7724 24 15.5587 23.91 15.4012 23.7488L14.1488 22.4851C14.1188 22.4551 14.0888 22.4514 14.0663 22.4514C14.0438 22.4439 13.9726 22.4851 13.9801 22.4889C13.9538 22.5189 13.0839 23.4 12.8176 23.67C12.7426 23.7375 12.7726 23.7225 12.7164 23.775C12.4014 24.0975 11.8015 24.0487 11.5427 23.7525C11.494 23.7 10.2678 22.4814 10.2528 22.4626C10.2078 22.4139 10.1028 22.4551 10.0953 22.4701C10.0428 22.5189 9.10539 23.4113 8.80166 23.7C8.47918 23.9963 7.93547 23.9513 7.66548 23.6738C7.62424 23.6213 6.40182 22.4814 6.39057 22.4626C6.34557 22.4176 6.24433 22.4514 6.23308 22.4739C6.21058 22.4964 5.58437 23.1301 5.42688 23.2838C4.67318 23.9175 3.92698 23.0888 4.00573 22.6501C4.00948 22.1814 3.99823 1.35902 4.00573 1.30652C3.98698 0.515327 4.84942 -0.0621344 5.34064 0.00536107C5.65937 0.0278596 18.8997 -0.00963792 18.9522 0.00536107C19.8222 0.00536107 20.3096 0.942798 20.2421 1.35152C20.2346 1.82399 20.2459 22.6388 20.2421 22.6913C20.2346 23.4075 19.286 23.7863 18.7947 23.2576L18.026 22.4814C17.966 22.4214 17.9135 22.4251 17.8573 22.4814L16.6049 23.745C16.4436 23.9063 16.2299 23.9963 16.0049 23.9963L16.0012 24ZM14.0626 21.7239C14.2913 21.7239 14.505 21.8139 14.6625 21.9751L15.9149 23.2388C15.9712 23.295 16.0274 23.2988 16.0837 23.2388L17.3361 21.9751C17.6548 21.6527 18.2173 21.6527 18.5398 21.9751L19.3085 22.7513C19.3984 22.8376 19.5072 22.7701 19.5147 22.6613V1.35152C19.5147 1.01404 19.2447 0.736562 18.9072 0.736562H5.33689C5.00316 0.736562 4.72943 1.01029 4.72943 1.35152C4.81568 1.48651 4.57569 22.7288 4.80443 22.7776C4.83817 22.7926 4.88692 22.8001 4.93567 22.7513L5.71187 21.9676C6.04184 21.6377 6.55931 21.6302 6.89679 21.9489L8.16045 23.1526C8.20545 23.1976 8.27669 23.1976 8.32544 23.1526L9.5891 21.9489C9.92658 21.6302 10.444 21.6377 10.7703 21.9639L12.0489 23.2426C12.0789 23.2725 12.1089 23.2763 12.1352 23.2763C12.1577 23.2763 12.1914 23.2688 12.2177 23.2388L13.4551 21.9789C13.6163 21.8139 13.8301 21.7239 14.0588 21.7239H14.0626Z" fill="#F16024"/>
</svg>
