<svg width="24" height="24" viewBox="0 0 24 24" fill="none" xmlns="http://www.w3.org/2000/svg">
<path d="M9.95271 21.1595C9.88186 21.1595 9.8139 21.1314 9.7638 21.0813C9.71369 21.0311 9.68555 20.9632 9.68555 20.8923V16.1689C9.68555 16.098 9.71369 16.03 9.7638 15.9799C9.8139 15.9298 9.88186 15.9017 9.95271 15.9017C10.0236 15.9017 10.0915 15.9298 10.1416 15.9799C10.1917 16.03 10.2199 16.098 10.2199 16.1689V20.8881C10.2204 20.9235 10.214 20.9587 10.2008 20.9916C10.1876 21.0245 10.168 21.0545 10.1432 21.0797C10.1183 21.105 10.0886 21.1251 10.0559 21.1388C10.0233 21.1525 9.98816 21.1595 9.95271 21.1595Z" fill="#F16024"/>
<path d="M20.2588 24H3.69451C3.60264 23.9997 3.51174 23.9813 3.42703 23.9457C3.34232 23.9102 3.26548 23.8583 3.20092 23.7929C3.13636 23.7276 3.08536 23.6501 3.05086 23.5649C3.01636 23.4798 2.99903 23.3887 2.99988 23.2968V0.69463C3.00044 0.510576 3.07381 0.334222 3.20395 0.204075C3.3341 0.0739288 3.51045 0.000563722 3.69451 0L20.2588 0C20.4428 0.000563722 20.6192 0.0739288 20.7493 0.204075C20.8795 0.334222 20.9528 0.510576 20.9534 0.69463V23.2968C20.9542 23.3887 20.9369 23.4798 20.9024 23.5649C20.8679 23.6501 20.8169 23.7276 20.7523 23.7929C20.6878 23.8583 20.6109 23.9102 20.5262 23.9457C20.4415 23.9813 20.3506 23.9997 20.2588 24ZM3.69451 0.534331C3.65217 0.534884 3.61171 0.551951 3.58177 0.581893C3.55183 0.611836 3.53476 0.652288 3.53421 0.69463V23.2968C3.53476 23.3392 3.55183 23.3796 3.58177 23.4096C3.61171 23.4395 3.65217 23.4566 3.69451 23.4571H20.2588C20.3011 23.4566 20.3416 23.4395 20.3715 23.4096C20.4014 23.3796 20.4185 23.3392 20.4191 23.2968V0.69463C20.4185 0.652288 20.4014 0.611836 20.3715 0.581893C20.3416 0.551951 20.3011 0.534884 20.2588 0.534331H3.69451Z" fill="#F16024"/>
<path d="M10.6345 21.1595H4.95779V17.0986C4.95779 17.0277 4.98594 16.9598 5.03605 16.9097C5.08615 16.8596 5.1541 16.8314 5.22496 16.8314C5.29582 16.8314 5.36377 16.8596 5.41387 16.9097C5.46398 16.9598 5.49212 17.0277 5.49212 17.0986V20.6209H10.6345C10.7054 20.6209 10.7733 20.649 10.8234 20.6991C10.8735 20.7492 10.9017 20.8172 10.9017 20.8881C10.9017 20.9589 10.8735 21.0269 10.8234 21.077C10.7733 21.1271 10.7054 21.1552 10.6345 21.1552V21.1595Z" fill="white"/>
<path d="M6.41972 21.1595C6.34887 21.1595 6.28091 21.1314 6.23081 21.0813C6.18071 21.0311 6.15256 20.9632 6.15256 20.8923V19.1825C6.15256 19.1116 6.18071 19.0437 6.23081 18.9936C6.28091 18.9435 6.34887 18.9153 6.41972 18.9153C6.49058 18.9153 6.55853 18.9435 6.60864 18.9936C6.65874 19.0437 6.68689 19.1116 6.68689 19.1825V20.8923C6.68689 20.9632 6.65874 21.0311 6.60864 21.0813C6.55853 21.1314 6.49058 21.1595 6.41972 21.1595Z" fill="white"/>
<path d="M8.18941 21.1595C8.15343 21.1604 8.11764 21.154 8.0842 21.1407C8.05076 21.1273 8.02035 21.1074 7.9948 21.0821C7.96924 21.0567 7.94908 21.0265 7.93551 20.9931C7.92194 20.9598 7.91525 20.9241 7.91584 20.8881V17.8958C7.91584 17.825 7.94398 17.757 7.99409 17.7069C8.04419 17.6568 8.11215 17.6286 8.183 17.6286C8.25386 17.6286 8.32181 17.6568 8.37192 17.7069C8.42202 17.757 8.45017 17.825 8.45017 17.8958V20.8881C8.45132 20.9586 8.42455 21.0267 8.37571 21.0775C8.32686 21.1283 8.2599 21.1578 8.18941 21.1595Z" fill="white"/>
<path d="M18.7606 16.5023H12.7077C12.6369 16.5023 12.5689 16.4741 12.5188 16.424C12.4687 16.3739 12.4406 16.306 12.4406 16.2351C12.4406 16.1642 12.4687 16.0963 12.5188 16.0462C12.5689 15.9961 12.6369 15.9679 12.7077 15.9679H18.7606C18.8315 15.9679 18.8994 15.9961 18.9495 16.0462C18.9996 16.0963 19.0278 16.1642 19.0278 16.2351C19.0278 16.306 18.9996 16.3739 18.9495 16.424C18.8994 16.4741 18.8315 16.5023 18.7606 16.5023Z" fill="#F16024"/>
<path d="M18.7606 18.8341H12.7077C12.6369 18.8341 12.5689 18.8059 12.5188 18.7558C12.4687 18.7057 12.4406 18.6378 12.4406 18.5669C12.4406 18.4961 12.4687 18.4281 12.5188 18.378C12.5689 18.3279 12.6369 18.2998 12.7077 18.2998H18.7606C18.8315 18.2998 18.8994 18.3279 18.9495 18.378C18.9996 18.4281 19.0278 18.4961 19.0278 18.5669C19.0278 18.6378 18.9996 18.7057 18.9495 18.7558C18.8994 18.8059 18.8315 18.8341 18.7606 18.8341Z" fill="white"/>
<path d="M18.7606 21.1595H12.7077C12.6369 21.1595 12.5689 21.1314 12.5188 21.0812C12.4687 21.0311 12.4406 20.9632 12.4406 20.8923C12.4406 20.8215 12.4687 20.7535 12.5188 20.7034C12.5689 20.6533 12.6369 20.6252 12.7077 20.6252H18.7606C18.8315 20.6252 18.8994 20.6533 18.9495 20.7034C18.9996 20.7535 19.0278 20.8215 19.0278 20.8923C19.0278 20.9632 18.9996 21.0311 18.9495 21.0812C18.8994 21.1314 18.8315 21.1595 18.7606 21.1595Z" fill="white"/>
<path d="M11.8314 7.4272L7.01175 5.66391L7.10365 5.41171C7.4402 4.49874 8.04787 3.71051 8.84516 3.15275C9.64245 2.59499 10.5912 2.29437 11.5642 2.29121H11.8314V7.4272ZM7.7021 5.34331L11.2928 6.65776V2.83409C10.5225 2.88542 9.78079 3.14631 9.14794 3.58855C8.51509 4.03078 8.01514 4.63756 7.7021 5.34331Z" fill="#F16024"/>
<path d="M12.9599 13.2514C12.3354 13.2533 11.7166 13.1312 11.1396 12.8924C10.5625 12.6536 10.0385 12.3027 9.5979 11.86L9.41196 11.6634L12.6927 8.38044V3.73817H12.9599C14.2214 3.73817 15.4313 4.23932 16.3233 5.13135C17.2154 6.02339 17.7165 7.23325 17.7165 8.49479C17.7165 9.75632 17.2154 10.9662 16.3233 11.8582C15.4313 12.7503 14.2214 13.2514 12.9599 13.2514ZM10.1707 11.657C10.6749 12.099 11.2771 12.4146 11.9276 12.5775C12.578 12.7404 13.2579 12.7459 13.9109 12.5935C14.5639 12.4412 15.1712 12.1354 15.6824 11.7015C16.1936 11.2677 16.5941 10.7182 16.8506 10.0987C17.1071 9.47914 17.2122 8.8074 17.1573 8.13912C17.1024 7.47085 16.8889 6.82529 16.5347 6.25597C16.1805 5.68664 15.6957 5.20993 15.1205 4.86537C14.5452 4.5208 13.8962 4.3183 13.2271 4.27464V8.60272L10.1707 11.657Z" fill="white"/>
<path d="M7.82179 12.234L7.63157 12.046C6.99049 11.4057 6.5463 10.5952 6.3516 9.71034C6.1569 8.82548 6.21985 7.90336 6.53299 7.05317L6.63344 6.80096L11.4873 8.57708L7.82179 12.234ZM6.9519 7.48063C6.74639 8.16434 6.71901 8.88923 6.87238 9.58648C7.02575 10.2837 7.35477 10.9302 7.82821 11.4646L10.5084 8.79081L6.9519 7.48063Z" fill="white"/>
</svg>
