<svg width="24" height="24" viewBox="0 0 24 24" fill="none" xmlns="http://www.w3.org/2000/svg">
<path d="M10.2936 13.9118C10.3299 13.9115 10.3659 13.9053 10.4003 13.8936C11.0847 13.6436 11.7204 13.276 12.2787 12.8073C12.3368 12.7578 12.3753 12.689 12.3869 12.6135C12.3986 12.5379 12.3827 12.4607 12.3422 12.3959L12.0178 11.8755C11.9444 11.7608 11.9027 11.6285 11.8971 11.4923C11.8915 11.3561 11.9222 11.2209 11.9861 11.1005L12.4398 10.2824C12.5141 10.1677 12.6182 10.0753 12.7409 10.0153C12.8636 9.95524 13.0002 9.92973 13.1363 9.94149L13.7284 9.95967C13.8029 9.96126 13.8757 9.9367 13.9341 9.89022C13.9926 9.84374 14.0329 9.77827 14.0482 9.70513C14.1979 8.98332 14.1979 8.23839 14.0482 7.51658C14.0319 7.44876 13.9937 7.38822 13.9396 7.34428C13.8854 7.30034 13.8184 7.27544 13.7488 7.27341H13.1204C12.9855 7.28383 12.8503 7.2564 12.7301 7.19418C12.6099 7.13195 12.5094 7.03741 12.4398 6.92115L11.9656 6.103C11.9042 5.98082 11.8762 5.84449 11.8846 5.70793C11.8929 5.57137 11.9374 5.43949 12.0133 5.32576L12.3286 4.81896C12.368 4.75499 12.3836 4.6792 12.3728 4.60484C12.362 4.53048 12.3255 4.46228 12.2696 4.41216C11.7254 3.92931 11.0885 3.56276 10.398 3.33493C10.3268 3.31058 10.2492 3.31255 10.1793 3.34047C10.1094 3.36839 10.0518 3.42044 10.0169 3.4872L9.71741 4.03036C9.65731 4.15152 9.56579 4.25427 9.45244 4.32784C9.33909 4.40141 9.20807 4.44309 9.07312 4.44852H8.12936C7.99496 4.44205 7.86485 4.39909 7.75295 4.32423C7.64106 4.24936 7.5516 4.14543 7.49414 4.02354L7.20376 3.48038C7.1679 3.41283 7.10895 3.36049 7.0377 3.33294C6.96645 3.30539 6.88768 3.30449 6.81582 3.33038C6.4733 3.45039 6.14288 3.60258 5.82896 3.78491C5.51475 3.96551 5.21782 4.17472 4.94192 4.40989C4.88495 4.45912 4.84712 4.52689 4.83509 4.60129C4.82306 4.67569 4.83759 4.75196 4.87613 4.81669L5.19601 5.34849C5.27 5.46203 5.31237 5.59331 5.31876 5.72875C5.32514 5.8642 5.29529 5.99889 5.23231 6.11891L4.76497 6.92797C4.69386 7.0425 4.5929 7.1354 4.47296 7.19668C4.35303 7.25796 4.21867 7.28527 4.08438 7.27568L3.47638 7.27341C3.40212 7.2731 3.32998 7.29814 3.27183 7.34441C3.21368 7.39068 3.17301 7.45542 3.1565 7.52795C3.00244 8.24486 2.99626 8.98575 3.13836 9.70513C3.15337 9.77673 3.1924 9.84102 3.24894 9.88732C3.30548 9.93363 3.37613 9.95916 3.44916 9.95967L4.0753 9.94149C4.20968 9.93313 4.34382 9.96123 4.4636 10.0228C4.58337 10.0844 4.68435 10.1772 4.75589 10.2915L5.20962 11.1005C5.27567 11.2201 5.30783 11.3555 5.30263 11.4921C5.29744 11.6287 5.25508 11.7613 5.18013 11.8755L4.86252 12.4005C4.82378 12.464 4.80868 12.5392 4.81988 12.6128C4.83109 12.6864 4.86789 12.7537 4.92378 12.8027C5.47536 13.2907 6.1208 13.6604 6.82036 13.8891C6.89186 13.9128 6.96944 13.9102 7.03926 13.8819C7.10907 13.8536 7.16657 13.8014 7.20149 13.7345L7.49414 13.1959C7.55256 13.0757 7.64255 12.9737 7.75446 12.9008C7.86637 12.8279 7.99597 12.787 8.12936 12.7823H9.06631C9.20297 12.7867 9.33584 12.8284 9.45058 12.9029C9.56532 12.9774 9.65758 13.0818 9.71741 13.205L10.0101 13.7436C10.0373 13.7951 10.0781 13.8381 10.1282 13.8678C10.1782 13.8974 10.2355 13.9127 10.2936 13.9118ZM11.6548 12.4937C11.4714 12.6349 11.2789 12.764 11.0786 12.88C10.8761 12.9981 10.6662 13.1029 10.4502 13.1936L10.28 12.8846C10.1644 12.6648 9.99254 12.4798 9.78207 12.3484C9.5716 12.217 9.33007 12.144 9.08219 12.1369H8.1339C7.89003 12.1428 7.65202 12.213 7.44377 12.3402C7.23551 12.4675 7.06432 12.6474 6.9474 12.8618L6.93606 12.88L6.76818 13.1823C6.33275 13.0167 5.92443 12.7869 5.55673 12.5005L5.74049 12.1982C5.87227 11.9897 5.9469 11.7502 5.95686 11.5036C5.96681 11.257 5.91175 11.0122 5.7972 10.7937L5.32306 9.96876C5.19329 9.76049 5.01121 9.58999 4.79503 9.47433C4.57885 9.35867 4.33614 9.3019 4.09118 9.30969H3.7214C3.65491 8.84284 3.65873 8.36864 3.73274 7.90293L4.07984 7.91429C4.32577 7.92295 4.56958 7.86609 4.7864 7.7495C5.00322 7.63292 5.18527 7.46079 5.31398 7.25068L5.78813 6.43026C5.9039 6.21455 5.96126 5.97223 5.9545 5.72741C5.94773 5.4826 5.87708 5.24382 5.74956 5.03486L5.5658 4.72578C5.75024 4.58302 5.94429 4.45318 6.14657 4.33716C6.34695 4.2209 6.55458 4.11766 6.76818 4.02808L6.93606 4.34398C7.05222 4.5618 7.22375 4.74503 7.43329 4.87512C7.64283 5.00522 7.88295 5.07757 8.12936 5.08486H9.08219C9.32731 5.07707 9.56606 5.00469 9.77436 4.87502C9.98267 4.74535 10.1532 4.56297 10.2687 4.34625L10.4388 4.03036C10.8756 4.19952 11.2847 4.43316 11.6526 4.72351L11.4711 5.01441C11.3396 5.22399 11.2655 5.46456 11.2564 5.71192C11.2472 5.95928 11.3033 6.20468 11.4189 6.42344L11.8998 7.25296C12.0271 7.46143 12.2069 7.63271 12.4211 7.74959C12.6353 7.86646 12.8765 7.92484 13.1204 7.91884L13.4879 7.90748C13.5582 8.37375 13.5582 8.84796 13.4879 9.31424H13.1521C12.9057 9.304 12.6608 9.35888 12.4422 9.47336C12.2236 9.58785 12.0389 9.75791 11.9066 9.96649L11.437 10.7983C11.3198 11.0128 11.261 11.2545 11.2665 11.4991C11.2721 11.7437 11.3419 11.9824 11.4688 12.1914V12.2119L11.6548 12.4937Z" fill="white"/>
<path d="M8.5831 17.2162C10.7672 17.2493 12.8762 16.4179 14.4521 14.9026L16.3963 16.8435C16.4261 16.8733 16.4615 16.897 16.5004 16.9132C16.5393 16.9293 16.581 16.9376 16.6232 16.9376C16.6653 16.9376 16.707 16.9293 16.7459 16.9132C16.7849 16.897 16.8202 16.8733 16.85 16.8435C16.8798 16.8136 16.9035 16.7782 16.9196 16.7392C16.9357 16.7002 16.944 16.6584 16.944 16.6162C16.944 16.574 16.9357 16.5322 16.9196 16.4932C16.9035 16.4542 16.8798 16.4188 16.85 16.389L14.9058 14.4458C16.3975 12.8725 17.2157 10.7771 17.1858 8.60744C17.2015 7.47506 16.9862 6.3514 16.5532 5.30528C16.1202 4.25916 15.4786 3.3126 14.6676 2.52359C13.8787 1.70979 12.9319 1.06621 11.8856 0.632399C10.8392 0.198586 9.71539 -0.0162948 8.5831 0.000962908C7.45426 -0.0133659 6.33434 0.202934 5.29172 0.636657C4.24911 1.07038 3.30568 1.71242 2.51903 2.52359C1.70806 3.3126 1.06643 4.25916 0.633421 5.30528C0.200417 6.3514 -0.0148411 7.47506 0.000835419 8.60744C-0.0150166 9.74018 0.20015 10.8642 0.633156 11.9108C1.06616 12.9573 1.70789 13.9042 2.51903 14.6936C3.30592 15.5044 4.2494 16.1462 5.29196 16.5799C6.33451 17.0136 7.45431 17.2301 8.5831 17.2162ZM8.5831 0.639574C9.6316 0.623451 10.6723 0.82217 11.6414 1.22353C12.6104 1.62489 13.4874 2.22043 14.2184 2.97357C14.9688 3.70455 15.5625 4.5812 15.9631 5.5499C16.3637 6.51861 16.5628 7.559 16.5483 8.60744C16.562 9.6534 16.3636 10.6913 15.9651 11.6581C15.5665 12.625 14.9761 13.5007 14.2297 14.2322C13.4977 14.988 12.6193 15.5858 11.6482 15.9892C10.6772 16.3925 9.63417 16.5927 8.5831 16.5776C7.53627 16.5914 6.49759 16.3916 5.53033 15.9903C4.56307 15.5891 3.68747 14.9948 2.95687 14.2436C2.20926 13.5108 1.61851 12.6332 1.22066 11.6642C0.822813 10.6951 0.626215 9.65508 0.64286 8.60744C0.627863 7.55934 0.826334 6.51919 1.22615 5.55052C1.62596 4.58185 2.21872 3.70501 2.96822 2.97357C3.69693 2.22305 4.57058 1.62906 5.53592 1.22779C6.50125 0.826515 7.53804 0.626378 8.5831 0.639574ZM8.5831 10.7278C9.13994 10.7248 9.67313 10.5019 10.0669 10.1075C10.4606 9.71302 10.6832 9.1789 10.6861 8.62108C10.6896 8.27241 10.6067 7.92832 10.4449 7.6196C10.2831 7.31088 10.0474 7.04717 9.75893 6.85206C9.47045 6.65696 9.13818 6.53655 8.79186 6.50162C8.44553 6.46669 8.09597 6.51832 7.77445 6.65189C7.45293 6.78546 7.16948 6.99681 6.94948 7.26702C6.72949 7.53723 6.5798 7.85786 6.51381 8.20022C6.44783 8.54259 6.46762 8.896 6.57139 9.22883C6.67517 9.56165 6.85971 9.86351 7.10849 10.1074C7.29995 10.3049 7.52924 10.4617 7.78263 10.5683C8.03601 10.6749 8.30828 10.7291 8.5831 10.7278ZM8.5831 7.15068C8.97163 7.15248 9.3437 7.30804 9.61822 7.58347C9.89273 7.8589 10.0475 8.23186 10.0486 8.62108C10.0505 8.86396 9.99225 9.10352 9.87912 9.31835C9.766 9.53318 9.60151 9.71659 9.40035 9.85219C9.1992 9.9878 8.96764 10.0714 8.72637 10.0954C8.48511 10.1195 8.24164 10.0834 8.01773 9.99016C7.79383 9.89698 7.59645 9.74968 7.44324 9.56142C7.29003 9.37317 7.18576 9.14983 7.13974 8.91136C7.09373 8.67288 7.1074 8.4267 7.17954 8.19481C7.25167 7.96292 7.38003 7.75255 7.55314 7.58248C7.68606 7.44357 7.84609 7.33354 8.02328 7.25925C8.20048 7.18497 8.39104 7.14801 8.5831 7.15068Z" fill="#61449B"/>
<path d="M21.7185 24C22.1708 23.9974 22.6122 23.8609 22.9873 23.6077C23.3624 23.3545 23.6543 22.9959 23.8265 22.5769C23.9986 22.1579 24.0432 21.6973 23.9548 21.253C23.8663 20.8087 23.6487 20.4005 23.3293 20.0797L18.2929 15.0231C18.2326 14.9631 18.151 14.9295 18.066 14.9295C17.981 14.9295 17.8995 14.9631 17.8392 15.0231L15.0487 17.8207C15.0186 17.8503 14.9946 17.8857 14.9782 17.9247C14.9618 17.9637 14.9534 18.0056 14.9534 18.048C14.9534 18.0903 14.9618 18.1322 14.9782 18.1712C14.9946 18.2102 15.0186 18.2456 15.0487 18.2752L20.0987 23.3273C20.3107 23.5415 20.563 23.7113 20.8411 23.8267C21.1192 23.9422 21.4175 24.0011 21.7185 24ZM18.0683 15.7003L22.8892 20.5319C23.0431 20.6858 23.1652 20.8686 23.2485 21.0698C23.3318 21.2711 23.3747 21.4868 23.3747 21.7046C23.3747 21.9225 23.3318 22.1382 23.2485 22.3394C23.1652 22.5406 23.0431 22.7234 22.8892 22.8773C22.578 23.1871 22.1572 23.3609 21.7185 23.3609C21.2799 23.3609 20.8591 23.1871 20.5479 22.8773L15.7248 18.0457L18.0683 15.7003Z" fill="white"/>
</svg>
