<svg width="24" height="24" viewBox="0 0 24 24" fill="none" xmlns="http://www.w3.org/2000/svg">
<rect x="0.5" y="2.5" width="23" height="19" rx="5.5" stroke="#F16024"/>
<path d="M6.01052 16.08C5.49052 16.08 5.03719 15.9967 4.65052 15.83C4.26385 15.6633 3.96385 15.43 3.75052 15.13C3.54385 14.83 3.44052 14.4767 3.44052 14.07V13.82C3.44052 13.7867 3.45052 13.76 3.47052 13.74C3.49719 13.7133 3.52719 13.7 3.56052 13.7H4.45052C4.48385 13.7 4.51052 13.7133 4.53052 13.74C4.55719 13.76 4.57052 13.7867 4.57052 13.82V14.01C4.57052 14.3167 4.70719 14.5733 4.98052 14.78C5.25385 14.98 5.62719 15.08 6.10052 15.08C6.50719 15.08 6.81385 14.9933 7.02052 14.82C7.22719 14.6467 7.33052 14.4233 7.33052 14.15C7.33052 13.9633 7.27385 13.8067 7.16052 13.68C7.04719 13.5467 6.88385 13.4267 6.67052 13.32C6.46385 13.2133 6.15052 13.08 5.73052 12.92C5.25719 12.7467 4.87385 12.5833 4.58052 12.43C4.28719 12.2767 4.04052 12.07 3.84052 11.81C3.64719 11.5433 3.55052 11.2133 3.55052 10.82C3.55052 10.2333 3.76385 9.77 4.19052 9.43C4.61719 9.09 5.18719 8.92 5.90052 8.92C6.40052 8.92 6.84052 9.00666 7.22052 9.18C7.60719 9.35333 7.90719 9.59666 8.12052 9.91C8.33385 10.2167 8.44052 10.5733 8.44052 10.98V11.15C8.44052 11.1833 8.42719 11.2133 8.40052 11.24C8.38052 11.26 8.35385 11.27 8.32052 11.27H7.42052C7.38719 11.27 7.35719 11.26 7.33052 11.24C7.31052 11.2133 7.30052 11.1833 7.30052 11.15V11.04C7.30052 10.7267 7.17052 10.4633 6.91052 10.25C6.65719 10.03 6.30385 9.92 5.85052 9.92C5.48385 9.92 5.19719 9.99666 4.99052 10.15C4.79052 10.3033 4.69052 10.52 4.69052 10.8C4.69052 11 4.74385 11.1633 4.85052 11.29C4.95719 11.4167 5.11719 11.5333 5.33052 11.64C5.54385 11.74 5.87385 11.87 6.32052 12.03C6.79385 12.21 7.17052 12.3733 7.45052 12.52C7.73719 12.6667 7.98052 12.8733 8.18052 13.14C8.38719 13.4 8.49052 13.7267 8.49052 14.12C8.49052 14.72 8.26719 15.1967 7.82052 15.55C7.38052 15.9033 6.77719 16.08 6.01052 16.08Z" fill="white"/>
<path d="M14.3987 9.88C14.3987 9.91333 14.3854 9.94333 14.3587 9.97C14.3387 9.99 14.3121 10 14.2787 10H10.8687C10.8354 10 10.8187 10.0167 10.8187 10.05V11.92C10.8187 11.9533 10.8354 11.97 10.8687 11.97H13.1587C13.1921 11.97 13.2187 11.9833 13.2387 12.01C13.2654 12.03 13.2787 12.0567 13.2787 12.09V12.85C13.2787 12.8833 13.2654 12.9133 13.2387 12.94C13.2187 12.96 13.1921 12.97 13.1587 12.97H10.8687C10.8354 12.97 10.8187 12.9867 10.8187 13.02V14.95C10.8187 14.9833 10.8354 15 10.8687 15H14.2787C14.3121 15 14.3387 15.0133 14.3587 15.04C14.3854 15.06 14.3987 15.0867 14.3987 15.12V15.88C14.3987 15.9133 14.3854 15.9433 14.3587 15.97C14.3387 15.99 14.3121 16 14.2787 16H9.77872C9.74539 16 9.71539 15.99 9.68872 15.97C9.66872 15.9433 9.65872 15.9133 9.65872 15.88V9.12C9.65872 9.08666 9.66872 9.06 9.68872 9.04C9.71539 9.01333 9.74539 9 9.77872 9H14.2787C14.3121 9 14.3387 9.01333 14.3587 9.04C14.3854 9.06 14.3987 9.08666 14.3987 9.12V9.88Z" fill="white"/>
<path d="M17.9167 16.08C17.4167 16.08 16.9767 15.9833 16.5967 15.79C16.2167 15.59 15.9234 15.31 15.7167 14.95C15.51 14.59 15.4067 14.1767 15.4067 13.71V11.29C15.4067 10.8167 15.51 10.4033 15.7167 10.05C15.9234 9.69 16.2167 9.41333 16.5967 9.22C16.9767 9.02 17.4167 8.92 17.9167 8.92C18.41 8.92 18.8434 9.01666 19.2167 9.21C19.5967 9.40333 19.89 9.66666 20.0967 10C20.3034 10.3333 20.4067 10.71 20.4067 11.13V11.21C20.4067 11.2433 20.3934 11.2733 20.3667 11.3C20.3467 11.32 20.32 11.33 20.2867 11.33H19.3767C19.3434 11.33 19.3134 11.32 19.2867 11.3C19.2667 11.2733 19.2567 11.2433 19.2567 11.21V11.16C19.2567 10.8 19.1334 10.5033 18.8867 10.27C18.6467 10.0367 18.3234 9.92 17.9167 9.92C17.51 9.92 17.1834 10.0433 16.9367 10.29C16.69 10.53 16.5667 10.85 16.5667 11.25V13.75C16.5667 14.15 16.6967 14.4733 16.9567 14.72C17.2167 14.96 17.5534 15.08 17.9667 15.08C18.3667 15.08 18.68 14.9767 18.9067 14.77C19.14 14.5567 19.2567 14.2667 19.2567 13.9V13.28C19.2567 13.2467 19.24 13.23 19.2067 13.23H17.9767C17.9434 13.23 17.9134 13.22 17.8867 13.2C17.8667 13.1733 17.8567 13.1433 17.8567 13.11V12.37C17.8567 12.3367 17.8667 12.31 17.8867 12.29C17.9134 12.2633 17.9434 12.25 17.9767 12.25H20.2867C20.32 12.25 20.3467 12.2633 20.3667 12.29C20.3934 12.31 20.4067 12.3367 20.4067 12.37V13.65C20.4067 14.4167 20.18 15.0133 19.7267 15.44C19.28 15.8667 18.6767 16.08 17.9167 16.08Z" fill="white"/>
</svg>
