<svg width="24" height="24" viewBox="0 0 24 24" fill="none" xmlns="http://www.w3.org/2000/svg">
<path d="M14.1545 23.2727C14.06 23.2727 13.9654 23.2364 13.9 23.1636L9.53635 18.8C9.2018 18.4727 9.71817 17.9491 10.0527 18.2836L14.4163 22.6473C14.6491 22.8654 14.4673 23.28 14.1618 23.2654L14.1545 23.2727Z" fill="#61449B"/>
<path d="M9.79093 23.2727C9.4782 23.28 9.30365 22.8655 9.53638 22.6545L13.9 18.2909C14.2273 17.9564 14.7509 18.4727 14.4164 18.8073L10.0527 23.1709C9.98002 23.2436 9.88547 23.28 9.7982 23.28L9.79093 23.2727Z" fill="#61449B"/>
<path d="M20.7 6.54545C16.3727 6.40727 16.3727 0.138182 20.7 0C25.0273 0.138182 25.0273 6.40727 20.7 6.54545ZM20.7 0.727273C17.3327 0.836364 17.34 5.70909 20.7 5.81818C24.0673 5.70909 24.06 0.836364 20.7 0.727273Z" fill="white"/>
<path d="M5.4273 5.81818C5.33275 5.81818 5.2382 5.78181 5.17275 5.70909L0.809113 1.34545C0.474568 1.01818 0.990931 0.49454 1.32548 0.829086L5.68911 5.19272C5.92184 5.4109 5.74002 5.82545 5.43457 5.8109L5.4273 5.81818Z" fill="#61449B"/>
<path d="M1.06363 5.81818C0.750905 5.82546 0.57636 5.41091 0.809087 5.2L5.17272 0.836365C5.5 0.50182 6.02363 1.01818 5.68909 1.35273L1.32545 5.71637C1.25272 5.78909 1.15818 5.82546 1.07091 5.82546L1.06363 5.81818Z" fill="#61449B"/>
<path d="M22.8818 23.2727C22.7873 23.2727 22.6927 23.2364 22.6273 23.1636L18.2636 18.8C17.9291 18.4727 18.4455 17.9491 18.78 18.2836L23.1436 22.6473C23.3764 22.8654 23.1946 23.28 22.8891 23.2654L22.8818 23.2727Z" fill="#61449B"/>
<path d="M18.5182 23.2727C18.2054 23.28 18.0309 22.8655 18.2636 22.6545L22.6273 18.2909C22.9545 17.9564 23.4782 18.4727 23.1436 18.8073L18.78 23.1709C18.7073 23.2436 18.6127 23.28 18.5254 23.28L18.5182 23.2727Z" fill="#61449B"/>
<path d="M14.1545 5.81818C14.06 5.81818 13.9654 5.78181 13.9 5.70909L9.53635 1.34545C9.2018 1.01818 9.71817 0.49454 10.0527 0.829086L14.4163 5.19272C14.6491 5.4109 14.4673 5.82545 14.1618 5.8109L14.1545 5.81818Z" fill="#61449B"/>
<path d="M9.79093 5.81818C9.4782 5.82546 9.30365 5.41091 9.53638 5.2L13.9 0.836365C14.2273 0.50182 14.7509 1.01818 14.4164 1.35273L10.0527 5.71637C9.98002 5.78909 9.88547 5.82546 9.7982 5.82546L9.79093 5.81818Z" fill="#61449B"/>
<path d="M3.24547 18.1818C3.04184 18.1818 2.88184 18.0218 2.88184 17.8182V12.7273C2.88184 12.1236 3.36911 11.6364 3.97275 11.6364H19.9727C20.5182 11.6145 20.2927 10.88 20.3364 10.4364C20.3364 9.96364 21.0637 9.95636 21.0637 10.4364V11.2727C21.0637 11.8764 20.5764 12.3636 19.9727 12.3636H3.97275C3.76911 12.3636 3.60911 12.5236 3.60911 12.7273V17.8182C3.60911 18.0218 3.44911 18.1818 3.24547 18.1818Z" fill="#61449B"/>
<path d="M19.5582 9.96363C19.2455 9.97091 19.0709 9.55636 19.3037 9.34545L20.7291 7.92L22.1473 9.33818C22.4891 9.66545 21.9582 10.1891 21.6309 9.85454L20.7291 8.95273C20.4309 9.20727 19.7764 10.0291 19.5582 9.97091V9.96363Z" fill="white"/>
<path d="M3.24545 24C-1.08182 23.8618 -1.08182 17.5927 3.24545 17.4545C7.57273 17.5927 7.57273 23.8618 3.24545 24ZM3.24545 18.1818C-0.121819 18.2909 -0.114546 23.1636 3.24545 23.2727C6.61273 23.1636 6.60545 18.2909 3.24545 18.1818Z" fill="white"/>
</svg>
