<svg width="48" height="32" viewBox="0 0 48 32" fill="none" xmlns="http://www.w3.org/2000/svg">
<mask id="path-1-inside-1_170_7174" fill="white">
<path d="M48 32L0 32L2.79753e-06 -4.19629e-06L48 0L48 32Z"/>
</mask>
<path d="M48 32L0 32L2.79753e-06 -4.19629e-06L48 0L48 32Z" fill="white"/>
<path d="M1 32L1 -4.10887e-06L-0.999997 -4.28372e-06L-1 32L1 32ZM47 -8.74228e-08L47 32L49 32L49 8.74228e-08L47 -8.74228e-08Z" fill="#61449B" mask="url(#path-1-inside-1_170_7174)"/>
<path d="M47.5 16.5C47.7761 16.5 48 16.2761 48 16C48 15.7239 47.7761 15.5 47.5 15.5L47.5 16.5ZM0.5 15.5L4.37114e-08 15.5L-4.37114e-08 16.5L0.5 16.5L0.5 15.5ZM47.5 15.5L0.5 15.5L0.5 16.5L47.5 16.5L47.5 15.5Z" fill="#61449B"/>
<circle cx="24" cy="16" r="5.5" transform="rotate(-180 24 16)" fill="white" stroke="#61449B"/>
<path d="M23.5503 17.336C23.497 17.336 23.4703 17.3093 23.4703 17.256V16.856C23.4703 16.616 23.5316 16.4187 23.6543 16.264C23.777 16.1093 23.9556 15.944 24.1903 15.768C24.409 15.6027 24.5743 15.4533 24.6863 15.32C24.7983 15.1867 24.8543 15.016 24.8543 14.808C24.8543 14.568 24.7743 14.3787 24.6143 14.24C24.4596 14.096 24.2543 14.024 23.9983 14.024C23.737 14.024 23.5263 14.0987 23.3663 14.248C23.2063 14.392 23.1263 14.584 23.1263 14.824V15.032C23.1263 15.0853 23.0996 15.112 23.0463 15.112L22.4383 15.08C22.385 15.08 22.3583 15.0533 22.3583 15V14.824C22.3583 14.5307 22.4276 14.272 22.5663 14.048C22.705 13.8187 22.8996 13.6427 23.1503 13.52C23.4063 13.392 23.697 13.328 24.0223 13.328C24.5076 13.328 24.897 13.4613 25.1903 13.728C25.4836 13.9947 25.6303 14.3467 25.6303 14.784C25.6303 15.0187 25.5903 15.2213 25.5103 15.392C25.4303 15.5627 25.3343 15.704 25.2223 15.816C25.1103 15.9227 24.9663 16.04 24.7903 16.168C24.6036 16.3067 24.465 16.4267 24.3743 16.528C24.289 16.6293 24.2463 16.752 24.2463 16.896V17.256C24.2463 17.3093 24.2196 17.336 24.1663 17.336H23.5503ZM23.8383 18.992C23.689 18.992 23.5663 18.944 23.4703 18.848C23.3743 18.752 23.3263 18.6293 23.3263 18.48C23.3263 18.3307 23.3743 18.208 23.4703 18.112C23.5663 18.016 23.689 17.968 23.8383 17.968C23.9876 17.968 24.1103 18.016 24.2063 18.112C24.3023 18.208 24.3503 18.3307 24.3503 18.48C24.3503 18.6293 24.3023 18.752 24.2063 18.848C24.1103 18.944 23.9876 18.992 23.8383 18.992Z" fill="#61449B"/>
</svg>
