<svg width="40" height="40" viewBox="0 0 40 40" fill="none" xmlns="http://www.w3.org/2000/svg">
<path fill-rule="evenodd" clip-rule="evenodd" d="M13.1366 16.0028L24.3748 27.241L31.2498 20.366L39.6337 28.7499L38.7498 29.6338L31.2498 22.1338L24.3748 29.0088L13.113 17.747L1.22589 29.0085L0.366211 28.101L13.1366 16.0028Z" fill="#F16024"/>
<path fill-rule="evenodd" clip-rule="evenodd" d="M25 15C27.0711 15 28.75 13.3211 28.75 11.25C28.75 9.17893 27.0711 7.5 25 7.5C22.9289 7.5 21.25 9.17893 21.25 11.25C21.25 13.3211 22.9289 15 25 15ZM25 16.25C27.7614 16.25 30 14.0114 30 11.25C30 8.48858 27.7614 6.25 25 6.25C22.2386 6.25 20 8.48858 20 11.25C20 14.0114 22.2386 16.25 25 16.25Z" fill="#F16024"/>
<path fill-rule="evenodd" clip-rule="evenodd" d="M38.75 1.25H1.25V38.75H38.75V1.25ZM0 0V40H40V0H0Z" fill="#61449B"/>
</svg>
