<svg width="51" height="40" viewBox="0 0 51 40" fill="none" xmlns="http://www.w3.org/2000/svg">
<path d="M46.0609 33.8555H3.96158C2.9122 33.8555 1.9058 33.4386 1.16377 32.6966C0.421748 31.9546 0.00488281 30.9482 0.00488281 29.8988L0.00488281 25.0874C0.00488281 24.9563 0.056991 24.8305 0.149744 24.7377C0.242497 24.6449 0.368297 24.5928 0.49947 24.5928C0.630643 24.5928 0.756443 24.6449 0.849196 24.7377C0.941949 24.8305 0.994058 24.9563 0.994058 25.0874V29.8988C0.995104 30.6855 1.30809 31.4397 1.86438 31.996C2.42067 32.5523 3.17487 32.8652 3.96158 32.8663H46.0609C46.8473 32.8642 47.6008 32.5509 48.1569 31.9948C48.713 31.4388 49.0263 30.6852 49.0284 29.8988V3.95865C49.0273 3.17194 48.7143 2.41774 48.1581 1.86145C47.6018 1.30516 46.8476 0.992175 46.0609 0.991128H24.4968C24.3657 0.991128 24.2399 0.93902 24.1471 0.846267C24.0544 0.753513 24.0023 0.627713 24.0023 0.496541C24.0023 0.365368 24.0544 0.239568 24.1471 0.146814C24.2399 0.0540613 24.3657 0.00195313 24.4968 0.00195313L46.0609 0.00195312C47.1102 0.00195313 48.1166 0.418818 48.8587 1.16084C49.6007 1.90287 50.0176 2.90927 50.0176 3.95865V29.8988C50.0176 30.9482 49.6007 31.9546 48.8587 32.6966C48.1166 33.4386 47.1102 33.8555 46.0609 33.8555Z" fill="#61449B"/>
<path d="M25.0111 39.6795C24.8813 39.6743 24.7587 39.6183 24.6699 39.5236C24.5811 39.4288 24.5331 39.3029 24.5363 39.173V35.7465C24.5363 35.6154 24.5884 35.4896 24.6811 35.3968C24.7739 35.3041 24.8997 35.252 25.0309 35.252C25.162 35.252 25.2878 35.3041 25.3806 35.3968C25.4734 35.4896 25.5255 35.6154 25.5255 35.7465V39.173C25.5271 39.2407 25.5149 39.3079 25.4896 39.3707C25.4642 39.4334 25.4262 39.4903 25.378 39.5377C25.3298 39.5852 25.2724 39.6223 25.2093 39.6467C25.1461 39.6711 25.0787 39.6822 25.0111 39.6795Z" fill="#61449B"/>
<path d="M32.4098 39.9999H17.6118C17.4806 39.9999 17.3548 39.9478 17.262 39.8551C17.1693 39.7623 17.1172 39.6365 17.1172 39.5053C17.1172 39.3742 17.1693 39.2484 17.262 39.1556C17.3548 39.0629 17.4806 39.0107 17.6118 39.0107H32.4098C32.541 39.0107 32.6668 39.0629 32.7596 39.1556C32.8523 39.2484 32.9044 39.3742 32.9044 39.5053C32.9044 39.6365 32.8523 39.7623 32.7596 39.8551C32.6668 39.9478 32.541 39.9999 32.4098 39.9999Z" fill="#61449B"/>
<path d="M1.25068 21.1068C0.989533 21.1068 0.736304 21.1068 0.479119 21.087C0.414333 21.085 0.350592 21.0701 0.291579 21.0433C0.232566 21.0165 0.179452 20.9782 0.135304 20.9308C0.0911555 20.8833 0.056849 20.8276 0.0343661 20.7668C0.0118831 20.706 0.00166947 20.6413 0.00431513 20.5766C0.00686175 20.5116 0.0221927 20.4478 0.0494308 20.3888C0.0766689 20.3297 0.11528 20.2766 0.163054 20.2325C0.210829 20.1884 0.266829 20.1542 0.327852 20.1318C0.388875 20.1093 0.453723 20.0991 0.518686 20.1018C0.760045 20.1018 1.00536 20.1018 1.25068 20.1018C6.17112 20.0945 10.8881 18.1374 14.3685 14.6592C17.8489 11.181 19.809 6.4653 19.8195 1.54486C19.8195 1.22833 19.8195 0.895965 19.7918 0.524036C19.7881 0.459086 19.7973 0.394055 19.8188 0.332657C19.8403 0.271259 19.8737 0.214696 19.917 0.166197C19.9604 0.117699 20.0129 0.0782145 20.0715 0.0499989C20.1301 0.0217832 20.1937 0.0053887 20.2587 0.0017515C20.3236 -0.00188571 20.3886 0.00730558 20.45 0.0288006C20.5114 0.0502956 20.568 0.0836733 20.6165 0.127028C20.665 0.170383 20.7045 0.222866 20.7327 0.28148C20.7609 0.340094 20.7773 0.403692 20.7809 0.468642C20.8007 0.864312 20.8086 1.2125 20.8086 1.54486C20.8034 6.73072 18.7413 11.7027 15.0747 15.37C11.4081 19.0374 6.43653 21.1005 1.25068 21.1068Z" fill="#F16024"/>
<path d="M1.25113 14.4318C0.986032 14.4318 0.728846 14.4318 0.459791 14.4041C0.330663 14.394 0.210664 14.3336 0.12558 14.2359C0.0404969 14.1383 -0.0028801 14.0111 0.00477052 13.8818C0.00773997 13.8165 0.0238579 13.7524 0.0521607 13.6934C0.0804635 13.6344 0.12037 13.5817 0.169495 13.5385C0.218619 13.4953 0.275953 13.4624 0.338069 13.4419C0.400184 13.4213 0.465806 13.4135 0.531011 13.4189C0.768413 13.4189 1.00582 13.4426 1.25113 13.4426C4.40497 13.4384 7.42838 12.1835 9.65811 9.95299C11.8878 7.72251 13.1418 4.69869 13.145 1.54484C13.145 1.23622 13.145 0.903859 13.0975 0.539843C13.0865 0.408788 13.1277 0.278698 13.2122 0.177909C13.2967 0.0771201 13.4176 0.0137967 13.5486 0.00173164C13.6792 -0.00922469 13.8088 0.0321303 13.909 0.116709C14.0091 0.201288 14.0716 0.322171 14.0827 0.452795C14.1183 0.848465 14.1341 1.20457 14.1341 1.54484C14.131 4.96103 12.7728 8.23646 10.3576 10.6524C7.94233 13.0684 4.66732 14.4276 1.25113 14.4318Z" fill="#F16024"/>
<path d="M1.25113 8.91618C0.986678 8.91486 0.722499 8.89901 0.459788 8.8687C0.392327 8.86445 0.326471 8.8463 0.266352 8.8154C0.206232 8.7845 0.153146 8.74152 0.110423 8.68913C0.0677005 8.63675 0.0362624 8.57611 0.0180811 8.511C-0.000100318 8.4459 -0.00463276 8.37774 0.00476802 8.3108C0.0197028 8.18048 0.0853941 8.06131 0.187603 7.97909C0.289812 7.89688 0.420303 7.85826 0.550792 7.87161C0.781977 7.89804 1.01448 7.91125 1.24717 7.91117C2.93677 7.91014 4.55709 7.23957 5.7533 6.04633C6.94951 4.85309 7.62409 3.23443 7.62933 1.54485C7.62821 1.21867 7.60042 0.89314 7.54624 0.571498C7.53015 0.443683 7.56456 0.314633 7.64216 0.211803C7.71976 0.108973 7.83442 0.0404784 7.96174 0.0208898C8.08907 0.00130117 8.21902 0.0321649 8.32393 0.106915C8.42885 0.181665 8.50047 0.294402 8.52354 0.421143C8.58383 0.792739 8.61557 1.1684 8.6185 1.54485C8.61641 3.49852 7.83966 5.37163 6.45858 6.75345C5.07749 8.13528 3.2048 8.91304 1.25113 8.91618Z" fill="#F16024"/>
<path d="M0.50293 3.8518C0.744601 3.92964 0.996848 3.96968 1.25075 3.9705C1.56907 3.9705 1.88428 3.90773 2.17833 3.78579C2.47238 3.66385 2.7395 3.48513 2.96441 3.25986C3.18931 3.03458 3.3676 2.76717 3.48906 2.47292C3.61052 2.17868 3.67277 1.86337 3.67225 1.54504C3.67276 1.19787 3.59712 0.854808 3.45067 0.540039C2.64918 0.659237 1.91499 1.0561 1.37625 1.66138C0.837506 2.26665 0.528418 3.04189 0.50293 3.8518Z" fill="#F16024"/>
</svg>
