<svg width="40" height="40" viewBox="0 0 40 40" fill="none" xmlns="http://www.w3.org/2000/svg">
<path fill-rule="evenodd" clip-rule="evenodd" d="M20 38.75C30.3553 38.75 38.75 30.3553 38.75 20C38.75 9.64466 30.3553 1.25 20 1.25C9.64466 1.25 1.25 9.64466 1.25 20C1.25 30.3553 9.64466 38.75 20 38.75ZM20 40C31.0457 40 40 31.0457 40 20C40 8.95431 31.0457 0 20 0C8.95431 0 0 8.95431 0 20C0 31.0457 8.95431 40 20 40Z" fill="#61449B"/>
<path d="M15 12.3358C15 11.3375 16.1127 10.742 16.9434 11.2958L28.4399 18.9601C29.1821 19.4549 29.1821 20.5455 28.4399 21.0403L16.9434 28.7046C16.1127 29.2584 15 28.6629 15 27.6645V12.3358Z" fill="#F16024"/>
</svg>
