<svg width="40" height="40" viewBox="0 0 40 40" fill="none" xmlns="http://www.w3.org/2000/svg">
<path fill-rule="evenodd" clip-rule="evenodd" d="M38.75 1.25H1.25V10.4167H38.75V1.25ZM0 0V11.6667H40V0H0Z" fill="#61449B"/>
<path fill-rule="evenodd" clip-rule="evenodd" d="M38.75 29.5834H1.25V38.75H38.75V29.5834ZM0 28.3334V40H40V28.3334H0Z" fill="#61449B"/>
<path fill-rule="evenodd" clip-rule="evenodd" d="M3.92281 15.1578C4.24855 15.0705 4.58336 15.2638 4.67064 15.5895L7.19923 25.0263C7.28651 25.3521 7.0932 25.6869 6.76746 25.7742C6.44173 25.8614 6.10691 25.6681 6.01963 25.3424L3.49104 15.9056C3.40376 15.5799 3.59707 15.245 3.92281 15.1578Z" fill="#F16024"/>
<path fill-rule="evenodd" clip-rule="evenodd" d="M11.25 15.1578C11.5757 15.0705 11.9105 15.2638 11.9978 15.5895L14.5264 25.0263C14.6137 25.3521 14.4203 25.6869 14.0946 25.7742C13.7689 25.8614 13.4341 25.6681 13.3468 25.3424L10.8182 15.9056C10.7309 15.5799 10.9242 15.245 11.25 15.1578Z" fill="#F16024"/>
<path fill-rule="evenodd" clip-rule="evenodd" d="M18.5771 15.1578C18.9028 15.0705 19.2377 15.2638 19.3249 15.5895L21.8535 25.0263C21.9408 25.3521 21.7475 25.6869 21.4218 25.7742C21.096 25.8614 20.7612 25.6681 20.6739 25.3424L18.1453 15.9056C18.0581 15.5799 18.2514 15.245 18.5771 15.1578Z" fill="#F16024"/>
<path fill-rule="evenodd" clip-rule="evenodd" d="M25.9043 15.1578C26.23 15.0705 26.5648 15.2638 26.6521 15.5895L29.1807 25.0263C29.268 25.3521 29.0746 25.6869 28.7489 25.7742C28.4232 25.8614 28.0884 25.6681 28.0011 25.3424L25.4725 15.9056C25.3852 15.5799 25.5785 15.245 25.9043 15.1578Z" fill="#F16024"/>
<path fill-rule="evenodd" clip-rule="evenodd" d="M33.2314 15.1578C33.5571 15.0705 33.892 15.2638 33.9792 15.5895L36.5078 25.0263C36.5951 25.3521 36.4018 25.6869 36.0761 25.7742C35.7503 25.8614 35.4155 25.6681 35.3282 25.3424L32.7996 15.9056C32.7124 15.5799 32.9057 15.245 33.2314 15.1578Z" fill="#F16024"/>
</svg>
