<svg width="41" height="42" viewBox="0 0 41 42" fill="none" xmlns="http://www.w3.org/2000/svg">
<path fill-rule="evenodd" clip-rule="evenodd" d="M18.3333 36.9764L18.3333 5.02373L11.6667 11.6904C11.0415 12.3155 10.1937 12.6667 9.30965 12.6667L1.66666 12.6667L1.66667 29.3334L9.30964 29.3334C10.1937 29.3334 11.0415 29.6846 11.6667 30.3097L18.3333 36.9764ZM17.1548 38.1549C18.2048 39.2048 20 38.4612 20 36.9764L20 5.02374C20 3.53889 18.2048 2.79528 17.1548 3.84522L10.4882 10.5119C10.1756 10.8244 9.75167 11 9.30965 11L1.66666 11C0.74619 11 -1.46301e-06 11.7462 -1.54348e-06 12.6667L-1.09318e-06 29.3334C-1.17365e-06 30.2539 0.746192 31 1.66667 31L9.30964 31C9.75167 31 10.1756 31.1756 10.4882 31.4882L17.1548 38.1549Z" fill="#61449B"/>
<path fill-rule="evenodd" clip-rule="evenodd" d="M24.2542 10.6273C24.46 10.2157 24.9606 10.0488 25.3722 10.2547C29.1082 12.1227 30.8329 16.6796 30.8329 21C30.8329 25.3204 29.1082 29.8774 25.3722 31.7454C24.9606 31.9512 24.46 31.7843 24.2542 31.3727C24.0484 30.961 24.2152 30.4605 24.6269 30.2547C27.5575 28.7893 29.1662 25.0129 29.1662 21C29.1662 16.9871 27.5575 13.2107 24.6269 11.7454C24.2152 11.5396 24.0484 11.039 24.2542 10.6273Z" fill="#F16024"/>
<path fill-rule="evenodd" clip-rule="evenodd" d="M29.2542 0.627342C29.46 0.215693 29.9606 0.0488394 30.3722 0.254664C37.4416 3.78934 40.8329 12.5129 40.8329 21C40.8329 29.4871 37.4416 38.2107 30.3722 41.7454C29.9606 41.9512 29.46 41.7843 29.2542 41.3727C29.0484 40.961 29.2152 40.4605 29.6269 40.2547C35.8908 37.1227 39.1662 29.1796 39.1662 21C39.1662 12.8204 35.8908 4.87736 29.6269 1.74538C29.2152 1.53955 29.0484 1.03899 29.2542 0.627342Z" fill="#F16024"/>
</svg>
