<svg width="48" height="32" viewBox="0 0 48 32" fill="none" xmlns="http://www.w3.org/2000/svg">
<mask id="path-1-inside-1_170_7172" fill="white">
<path d="M0 0H48V32H0V0Z"/>
</mask>
<path d="M0 0H48V32H0V0Z" fill="white"/>
<path d="M0 0V-1H-1V0H0ZM48 0H49V-1H48V0ZM0 1H48V-1H0V1ZM47 0V32H49V0H47ZM1 32V0H-1V32H1Z" fill="#61449B" mask="url(#path-1-inside-1_170_7172)"/>
<path d="M0.5 15.5C0.223858 15.5 0 15.7239 0 16C0 16.2761 0.223858 16.5 0.5 16.5V15.5ZM47.5 16.5H48V15.5H47.5V16.5ZM0.5 16.5H47.5V15.5H0.5V16.5Z" fill="#61449B"/>
<circle cx="24" cy="16" r="5.5" fill="white" stroke="#61449B"/>
<path d="M21 15L24 18L27 15" stroke="#61449B" stroke-linecap="round"/>
</svg>
