<svg width="62" height="40" viewBox="0 0 62 40" fill="none" xmlns="http://www.w3.org/2000/svg">
<path d="M34.4597 34.9001H26.7406C26.4859 34.9001 26.2822 34.6927 26.2822 34.4417C26.2822 34.1907 26.4896 33.9834 26.7406 33.9834H34.4597C34.7144 33.9834 34.9181 34.1907 34.9181 34.4417C34.9181 34.6927 34.7107 34.9001 34.4597 34.9001Z" fill="#F16024"/>
<path d="M56.4278 40.0002H4.77264C3.46308 40.0002 2.32812 39.5273 1.39687 38.5924C0.472899 37.6721 0 36.5371 0 35.2275V34.4491C0 34.1944 0.207348 33.9907 0.458349 33.9907H22.8156C23.0156 33.9907 23.1939 34.1217 23.2557 34.3145L23.6632 35.6277C23.7395 35.8714 23.6013 36.126 23.3612 36.2024C23.1211 36.2788 22.8629 36.1406 22.7865 35.9005L22.4809 34.9111H0.920335V35.2312C0.920335 36.3043 1.29138 37.1919 2.04802 37.9485C2.81193 38.7124 3.70317 39.0835 4.77628 39.0871H56.4278C57.5009 39.0871 58.3885 38.7161 59.1451 37.9522C59.9091 37.1919 60.2837 36.3043 60.2837 35.2312V34.9111H38.6832L38.3776 35.9005C38.3012 36.1442 38.0466 36.2788 37.8028 36.2024C37.5591 36.126 37.4245 35.8714 37.5009 35.6277L37.9083 34.3145C37.9665 34.1217 38.1448 33.9907 38.3485 33.9907H60.7494C61.004 33.9907 61.2077 34.1981 61.2077 34.4491V35.2275C61.2077 36.5371 60.7312 37.6721 59.7999 38.596C58.8796 39.5273 57.7446 40.0002 56.4351 40.0002H56.4278Z" fill="#61449B"/>
<path d="M50.9603 29.1125H33.765C33.5104 29.1125 33.3066 28.9051 33.3066 28.6541C33.3066 28.4031 33.514 28.1958 33.765 28.1958H50.9603C51.215 28.1958 51.4187 28.4031 51.4187 28.6541C51.4187 28.9051 51.2113 29.1125 50.9603 29.1125Z" fill="#61449B"/>
<path d="M27.4535 29.1125H10.2582C10.0035 29.1125 9.7998 28.9051 9.7998 28.6541C9.7998 28.4031 10.0072 28.1958 10.2582 28.1958H27.4535C27.7081 28.1958 27.9118 28.4031 27.9118 28.6541C27.9118 28.9051 27.7045 29.1125 27.4535 29.1125Z" fill="#61449B"/>
<path d="M50.313 6.34399H34.4127C34.1617 6.34399 33.958 6.14028 33.958 5.88928C33.958 5.63828 34.1617 5.43457 34.4127 5.43457H50.313C50.564 5.43457 50.7678 5.63828 50.7678 5.88928C50.7678 6.14028 50.564 6.34399 50.313 6.34399Z" fill="#61449B"/>
<path d="M50.313 10.6184H34.4127C34.1617 10.6184 33.958 10.4147 33.958 10.1637C33.958 9.91269 34.1617 9.70898 34.4127 9.70898H50.313C50.564 9.70898 50.7678 9.91269 50.7678 10.1637C50.7678 10.4147 50.564 10.6184 50.313 10.6184Z" fill="#61449B"/>
<path d="M50.313 14.8928H34.4127C34.1617 14.8928 33.958 14.6891 33.958 14.4381C33.958 14.1871 34.1617 13.9834 34.4127 13.9834H50.313C50.564 13.9834 50.7678 14.1871 50.7678 14.4381C50.7678 14.6891 50.564 14.8928 50.313 14.8928Z" fill="#61449B"/>
<path d="M50.313 19.1667H34.4127C34.1617 19.1667 33.958 18.963 33.958 18.712C33.958 18.461 34.1617 18.2573 34.4127 18.2573H50.313C50.564 18.2573 50.7678 18.461 50.7678 18.712C50.7678 18.963 50.564 19.1667 50.313 19.1667Z" fill="#61449B"/>
<path d="M50.313 23.4412H34.4127C34.1617 23.4412 33.958 23.2374 33.958 22.9864C33.958 22.7354 34.1617 22.5317 34.4127 22.5317H50.313C50.564 22.5317 50.7678 22.7354 50.7678 22.9864C50.7678 23.2374 50.564 23.4412 50.313 23.4412Z" fill="#61449B"/>
<path d="M26.0787 19.1667H11.6334C11.3824 19.1667 11.1787 18.963 11.1787 18.712C11.1787 18.461 11.3824 18.2573 11.6334 18.2573H26.0787C26.3297 18.2573 26.5334 18.461 26.5334 18.712C26.5334 18.963 26.3297 19.1667 26.0787 19.1667Z" fill="#61449B"/>
<path d="M26.0787 23.4412H11.6334C11.3824 23.4412 11.1787 23.2374 11.1787 22.9864C11.1787 22.7354 11.3824 22.5317 11.6334 22.5317H26.0787C26.3297 22.5317 26.5334 22.7354 26.5334 22.9864C26.5334 23.2374 26.3297 23.4412 26.0787 23.4412Z" fill="#61449B"/>
<path d="M25.7149 15.2564H11.9972C11.5461 15.2564 11.1787 14.889 11.1787 14.4379V5.0636C11.1787 4.61252 11.5461 4.24512 11.9972 4.24512H25.7149C26.166 4.24512 26.5334 4.61252 26.5334 5.0636V14.4343C26.5334 14.8854 26.166 15.2528 25.7149 15.2528V15.2564ZM12.0881 14.347H25.624V5.15454H12.0881V14.3433V14.347Z" fill="#F16024"/>
<path d="M54.4891 31.466C54.2381 31.466 54.0344 31.2623 54.0344 31.0113V3.13205C54.0344 1.90615 53.0377 0.909422 51.8118 0.909422H9.45822C8.23232 0.909422 7.23559 1.90615 7.23559 3.13205V31.0113C7.23559 31.2623 7.03188 31.466 6.78088 31.466C6.52988 31.466 6.32617 31.2623 6.32617 31.0113V3.13205C6.32617 1.40415 7.73032 0 9.45822 0H51.8154C53.5433 0 54.9475 1.40415 54.9475 3.13205V31.0113C54.9475 31.2623 54.7438 31.466 54.4928 31.466H54.4891Z" fill="#61449B"/>
</svg>
