<svg width="30" height="40" viewBox="0 0 30 40" fill="none" xmlns="http://www.w3.org/2000/svg">
<path d="M25.379 39.9998H3.66514C1.64374 39.9998 0 38.669 0 37.0325V32.0761C0.0143872 31.4862 0.884812 31.4826 0.8992 32.0761V37.0325C0.8992 38.1727 2.14009 39.1006 3.66514 39.1006H25.3754C26.9005 39.1006 28.1413 38.1727 28.1413 37.0325V32.0761C28.1413 31.4898 29.0334 31.4826 29.0406 32.0761V37.0325C29.0406 38.669 27.3968 39.9998 25.3754 39.9998H25.379Z" fill="#61449B"/>
<path d="M28.5945 28.9614C28.3464 28.9614 28.1449 28.76 28.1449 28.5118V2.96736C28.1449 1.82717 26.9041 0.8992 25.379 0.8992H3.66514C2.14009 0.8992 0.8992 1.82717 0.8992 2.96736V28.5118C0.8992 28.76 0.697779 28.9614 0.4496 28.9614C0.201421 28.9614 0 28.76 0 28.5118V2.96736C0 1.33082 1.64374 0 3.66514 0H25.3754C27.3968 0 29.0406 1.33082 29.0406 2.96736V28.5118C29.0406 28.76 28.8391 28.9614 28.591 28.9614H28.5945Z" fill="#61449B"/>
<path d="M26.8462 30.7527H2.19731C1.61462 30.7455 1.60024 29.8643 2.19731 29.8535H26.8462C27.4289 29.8607 27.4432 30.7419 26.8462 30.7527Z" fill="#F16024"/>
<path d="M14.5238 37.9318C13.3117 37.9318 12.3262 36.9462 12.3262 35.7341C12.4305 32.8243 16.6207 32.8243 16.7251 35.7341C16.7251 36.9462 15.7395 37.9318 14.5274 37.9318H14.5238ZM14.5238 34.2522C12.5672 34.3134 12.5708 37.1477 14.5238 37.2124C16.4805 37.1513 16.4805 34.317 14.5238 34.2522Z" fill="#F16024"/>
</svg>
