<svg width="21" height="40" viewBox="0 0 21 40" fill="none" xmlns="http://www.w3.org/2000/svg">
<path d="M18.0523 39.9998H2.71918C1.21931 39.9998 0 38.669 0 37.0325V32.0761C0 31.8279 0.201421 31.6265 0.4496 31.6265C0.697779 31.6265 0.8992 31.8279 0.8992 32.0761V37.0325C0.8992 38.1726 1.71567 39.1006 2.71918 39.1006H18.0523C19.0558 39.1006 19.8723 38.1726 19.8723 37.0325V32.0761C19.8723 31.8279 20.0737 31.6265 20.3219 31.6265C20.5701 31.6265 20.7715 31.8279 20.7715 32.0761V37.0325C20.7715 38.669 19.5522 39.9998 18.0523 39.9998Z" fill="#61449B"/>
<path d="M20.3219 24.2101C20.0737 24.2101 19.8723 24.0086 19.8723 23.7605V2.96736C19.8723 1.82717 19.0558 0.8992 18.0523 0.8992H2.71918C1.71567 0.8992 0.8992 1.82717 0.8992 2.96736V23.7605C0.8992 24.0086 0.697779 24.2101 0.4496 24.2101C0.201421 24.2101 0 24.0086 0 23.7605V2.96736C0 1.33082 1.21931 0 2.71918 0H18.0523C19.5522 0 20.7715 1.33082 20.7715 2.96736V23.7605C20.7715 24.0086 20.5701 24.2101 20.3219 24.2101Z" fill="#61449B"/>
<path d="M19.9622 30.7528H0.80928C0.363277 30.7528 0 30.3896 0 29.9436V25.8972C0 25.4512 0.363277 25.0879 0.80928 25.0879H19.9622C20.4082 25.0879 20.7715 25.4512 20.7715 25.8972V29.9436C20.7715 30.3896 20.4082 30.7528 19.9622 30.7528ZM0.8992 29.8536H19.8723V25.9871H0.8992V29.8536Z" fill="#F16024"/>
<path d="M10.3871 37.9319C9.17498 37.9319 8.18945 36.9464 8.18945 35.7343C8.18945 34.5221 9.17498 33.5366 10.3871 33.5366C11.5992 33.5366 12.5847 34.5221 12.5847 35.7343C12.5847 36.9464 11.5992 37.9319 10.3871 37.9319ZM10.3871 34.2524C9.57062 34.2524 8.90881 34.9142 8.90881 35.7307C8.90881 36.5471 9.57062 37.209 10.3871 37.209C11.2036 37.209 11.8654 36.5471 11.8654 35.7307C11.8654 34.9142 11.2036 34.2524 10.3871 34.2524Z" fill="#F16024"/>
<path d="M12.499 2.76965H8.27277C8.07494 2.76965 7.91309 2.6078 7.91309 2.40997C7.91309 2.21215 8.07494 2.05029 8.27277 2.05029H12.499C12.6968 2.05029 12.8587 2.21215 12.8587 2.40997C12.8587 2.6078 12.6968 2.76965 12.499 2.76965Z" fill="#F16024"/>
</svg>
