<svg width="1162" height="160" viewBox="0 0 1162 160" fill="none" xmlns="http://www.w3.org/2000/svg">
<g clip-path="url(#clip0_178_7711)">
<path d="M125.373 99.9969C125.294 99.9348 125.2 99.8932 125.101 99.8758C125.002 99.8585 124.9 99.8659 124.804 99.8974C124.708 99.9289 124.622 99.9835 124.552 100.056C124.482 100.129 124.432 100.218 124.405 100.316C121.353 111.434 114.733 121.242 105.565 128.233C96.3962 135.223 85.1856 139.01 73.656 139.01C62.1263 139.01 50.9157 135.223 41.7472 128.233C32.5786 121.242 25.9594 111.434 22.907 100.316C22.8797 100.218 22.8286 100.129 22.7583 100.055C22.688 99.9824 22.6006 99.928 22.5041 99.897C22.4076 99.866 22.3048 99.8595 22.2051 99.878C22.1054 99.8965 22.0119 99.9395 21.9329 100.003C19.3145 102.2 16.1179 103.596 12.7264 104.021C9.33489 104.447 5.89251 103.886 2.81207 102.405C2.70844 102.352 2.5919 102.33 2.47609 102.34C2.36027 102.351 2.24997 102.395 2.15807 102.466C2.06618 102.538 1.99649 102.634 1.95716 102.743C1.91783 102.853 1.91048 102.971 1.93598 103.085C5.70839 119.277 14.8492 133.716 27.8712 144.053C40.8932 154.39 57.03 160.016 73.656 160.016C90.282 160.016 106.419 154.39 119.441 144.053C132.463 133.716 141.604 119.277 145.376 103.085C145.401 102.972 145.393 102.855 145.354 102.746C145.315 102.638 145.246 102.542 145.155 102.471C145.064 102.4 144.955 102.356 144.84 102.344C144.725 102.333 144.609 102.354 144.506 102.405C141.426 103.892 137.983 104.459 134.589 104.037C131.195 103.615 127.995 102.223 125.373 100.028V99.9969Z" fill="#61439A"/>
<path d="M21.9329 72.7523C22.0119 72.8159 22.1054 72.8589 22.2051 72.8774C22.3048 72.8959 22.4076 72.8894 22.5041 72.8584C22.6006 72.8274 22.688 72.773 22.7583 72.6999C22.8286 72.6269 22.8797 72.5375 22.907 72.4399C25.9594 61.3216 32.5786 51.5134 41.7472 44.5227C50.9157 37.532 62.1263 33.7457 73.656 33.7457C85.1856 33.7457 96.3963 37.532 105.565 44.5227C114.733 51.5134 121.353 61.3216 124.405 72.4399C124.433 72.5365 124.484 72.6248 124.554 72.697C124.623 72.7693 124.71 72.8232 124.806 72.8541C124.901 72.8849 125.003 72.8918 125.102 72.8741C125.201 72.8563 125.294 72.8145 125.373 72.7523C127.996 70.5576 131.196 69.1665 134.59 68.7459C137.984 68.3254 141.427 68.8932 144.506 70.3814C144.609 70.4325 144.725 70.4534 144.84 70.4416C144.955 70.4298 145.064 70.3859 145.155 70.3148C145.246 70.2438 145.315 70.1485 145.354 70.04C145.393 69.9314 145.401 69.814 145.376 69.7013C141.609 53.5045 132.47 39.0598 119.447 28.7186C106.425 18.3774 90.2851 12.7487 73.656 12.7487C57.0268 12.7487 40.8873 18.3774 27.8647 28.7186C14.8421 39.0598 5.70331 53.5045 1.93598 69.7013C1.90899 69.8153 1.91522 69.9345 1.95392 70.0451C1.99263 70.1556 2.06219 70.2527 2.15437 70.3249C2.24655 70.3971 2.35749 70.4413 2.47405 70.4524C2.59062 70.4635 2.70792 70.441 2.81207 70.3875C5.89251 68.9061 9.33489 68.3447 12.7264 68.7707C16.1179 69.1966 19.3145 70.5919 21.9329 72.7891V72.7523Z" fill="#61439A"/>
<path d="M451.745 75.932H373.38C371.755 75.932 370.197 76.5775 369.048 77.7264C367.899 78.8754 367.254 80.4337 367.254 82.0585V96.9521H451.849C451.958 96.9508 452.065 96.9203 452.159 96.8636C452.252 96.807 452.329 96.7264 452.381 96.6301C452.433 96.5338 452.458 96.4254 452.454 96.3161C452.45 96.2068 452.416 96.1006 452.357 96.0086C450.515 93.1592 449.528 89.8421 449.512 86.4493C449.496 83.0566 450.451 79.7302 452.265 76.8632C452.322 76.7705 452.353 76.6645 452.355 76.556C452.357 76.4475 452.33 76.3404 452.277 76.2456C452.224 76.1509 452.147 76.0719 452.053 76.0168C451.96 75.9617 451.853 75.9325 451.745 75.932Z" fill="#61439A"/>
<path d="M474.805 70.2527C474.909 70.3023 475.026 70.3212 475.141 70.3073C475.256 70.2934 475.364 70.2473 475.454 70.1742C475.544 70.1011 475.611 70.0041 475.648 69.8944C475.685 69.7847 475.69 69.6668 475.662 69.5543C472.333 56.6602 465.662 44.8724 456.321 35.3806C442.23 21.0262 423.759 13.025 404.295 12.8473C394.685 12.742 385.151 14.5569 376.251 18.1854C367.352 21.8139 359.267 27.1829 352.471 33.9776C342.564 43.7456 335.64 56.1288 332.504 69.6829C332.479 69.7964 332.486 69.9149 332.525 70.0243C332.565 70.1338 332.634 70.2298 332.726 70.3012C332.818 70.3725 332.929 70.4162 333.044 70.4271C333.16 70.4381 333.277 70.4158 333.38 70.363C336.463 68.8735 339.911 68.3066 343.309 68.7305C346.706 69.1544 349.909 70.551 352.532 72.7523C352.611 72.8159 352.704 72.8589 352.804 72.8774C352.904 72.8959 353.006 72.8894 353.103 72.8584C353.2 72.8274 353.287 72.773 353.357 72.6999C353.428 72.6269 353.479 72.5375 353.506 72.4399C355.942 63.5235 360.689 55.4083 367.266 48.9141C372.041 44.1366 377.712 40.3484 383.953 37.7664C390.195 35.1844 396.885 33.8594 403.639 33.8674H404.105C417.951 33.9899 431.166 39.7549 441.311 50.0965C447.536 56.4093 452.134 64.1401 454.71 72.6237C454.738 72.7214 454.79 72.8105 454.862 72.8829C454.933 72.9554 455.021 73.0089 455.119 73.0387C455.216 73.0685 455.319 73.0736 455.419 73.0536C455.519 73.0335 455.612 72.9889 455.69 72.9239C458.279 70.683 461.461 69.2382 464.852 68.7632C468.243 68.2883 471.699 68.8034 474.805 70.2466V70.2527Z" fill="#61439A"/>
<path d="M332.467 103.054C335.951 117.988 344.002 131.464 355.501 141.61C366.999 151.756 381.373 158.066 396.624 159.663C397.479 159.756 398.344 159.668 399.162 159.404C399.981 159.141 400.735 158.709 401.375 158.135C402.015 157.561 402.527 156.859 402.878 156.074C403.23 155.289 403.411 154.439 403.412 153.579C403.412 147.398 403.412 139.017 403.412 139.017C379.77 139.017 359.62 122.242 353.512 100.273C353.485 100.175 353.434 100.086 353.363 100.013C353.293 99.9395 353.206 99.8851 353.109 99.8541C353.013 99.8232 352.91 99.8166 352.81 99.8351C352.71 99.8537 352.617 99.8966 352.538 99.9602C349.914 102.172 346.705 103.576 343.3 104.003C339.895 104.431 336.439 103.863 333.35 102.368C333.245 102.313 333.127 102.289 333.01 102.299C332.892 102.309 332.78 102.353 332.687 102.426C332.593 102.498 332.523 102.596 332.484 102.707C332.445 102.819 332.44 102.939 332.467 103.054Z" fill="#61439A"/>
<path d="M496.437 101.265V159.865H512.899C514.524 159.865 516.083 159.22 517.231 158.071C518.38 156.922 519.026 155.364 519.026 153.739V101.345C519.025 101.234 518.993 101.125 518.935 101.03C518.876 100.935 518.793 100.858 518.694 100.807C518.595 100.756 518.484 100.733 518.373 100.741C518.262 100.748 518.155 100.785 518.064 100.849C515.042 102.99 511.426 104.134 507.722 104.12C504.018 104.106 500.411 102.934 497.405 100.769C497.314 100.704 497.206 100.665 497.094 100.657C496.983 100.649 496.87 100.672 496.771 100.723C496.671 100.774 496.587 100.852 496.528 100.947C496.469 101.043 496.438 101.153 496.437 101.265Z" fill="#61439A"/>
<path d="M519.026 30.6877C519.026 29.0629 518.38 27.5045 517.231 26.3556C516.083 25.2067 514.524 24.5612 512.899 24.5612H496.437V71.429C496.439 71.5407 496.471 71.6499 496.53 71.7447C496.59 71.8394 496.674 71.9162 496.773 71.9667C496.873 72.0172 496.985 72.0394 497.096 72.031C497.207 72.0226 497.314 71.984 497.405 71.9191C500.899 69.3993 505.189 68.2345 509.477 68.6413C513.765 69.0481 517.76 70.999 520.717 74.1308C520.79 74.2054 520.881 74.2599 520.982 74.2893C521.082 74.3186 521.188 74.3218 521.29 74.2984C521.392 74.2751 521.487 74.226 521.564 74.1559C521.642 74.0858 521.7 73.997 521.734 73.898C524.902 64.314 530.575 55.7512 538.165 49.0964C545.754 42.4416 554.985 37.9368 564.901 36.0484C566.307 35.7852 567.577 35.0383 568.49 33.9373C569.403 32.8362 569.902 31.4503 569.9 30.0199V12.737C550.652 14.1139 532.569 22.4734 519.05 36.2444L519.026 30.6877Z" fill="#61439A"/>
<path d="M755.178 101.516V153.671C755.178 155.296 755.824 156.854 756.973 158.003C758.122 159.152 759.68 159.798 761.305 159.798H777.099V101.596C777.097 101.486 777.066 101.379 777.009 101.285C776.952 101.192 776.87 101.115 776.773 101.064C776.676 101.012 776.567 100.988 776.457 100.993C776.347 100.999 776.241 101.033 776.149 101.094C773.19 103.09 769.697 104.149 766.127 104.131C762.556 104.114 759.074 103.021 756.134 100.996C756.041 100.933 755.932 100.896 755.82 100.891C755.708 100.886 755.596 100.911 755.498 100.965C755.399 101.019 755.317 101.099 755.261 101.196C755.205 101.293 755.176 101.404 755.178 101.516Z" fill="#61439A"/>
<path d="M777.111 71.1472V34.4494C777.111 32.8245 776.466 31.2662 775.317 30.1173C774.168 28.9683 772.61 28.3229 770.985 28.3229H755.185V71.2513C755.187 71.3616 755.218 71.4693 755.276 71.563C755.335 71.6567 755.417 71.733 755.515 71.7838C755.613 71.8346 755.722 71.8581 755.833 71.8517C755.943 71.8453 756.049 71.8094 756.14 71.7476C759.082 69.7248 762.565 68.6353 766.136 68.6211C769.706 68.6069 773.198 69.6686 776.156 71.6679C776.249 71.7309 776.357 71.767 776.469 71.7724C776.582 71.7778 776.693 71.7522 776.792 71.6984C776.891 71.6447 776.973 71.5648 777.029 71.4676C777.085 71.3704 777.114 71.2595 777.111 71.1472Z" fill="#61439A"/>
<path d="M761.427 21.6817H776.983V6.12651C776.983 4.50166 776.337 2.94336 775.188 1.79441C774.039 0.64547 772.481 0 770.856 0L755.301 0V15.5552C755.301 17.1801 755.946 18.7384 757.095 19.8873C758.244 21.0363 759.803 21.6817 761.427 21.6817Z" fill="#F15F22"/>
<path d="M293.295 12.6451C292.114 12.6452 290.959 12.9864 289.967 13.6277C288.976 14.269 288.191 15.183 287.707 16.2598L239.663 123.21C239.624 123.299 239.606 123.395 239.611 123.491C239.616 123.588 239.644 123.682 239.693 123.765C239.741 123.849 239.809 123.92 239.89 123.973C239.971 124.025 240.063 124.058 240.159 124.068C243.524 124.307 246.752 125.5 249.464 127.506C252.176 129.512 254.261 132.248 255.476 135.396C255.517 135.51 255.592 135.609 255.69 135.681C255.789 135.753 255.906 135.793 256.028 135.798C256.149 135.803 256.27 135.771 256.373 135.707C256.477 135.643 256.559 135.55 256.609 135.439L312.25 12.6451H293.295Z" fill="#61439A"/>
<path d="M237.991 123.21L189.959 16.2965C189.475 15.2197 188.69 14.3057 187.699 13.6645C186.707 13.0232 185.552 12.682 184.371 12.6819H165.183L221.069 135.641C221.12 135.752 221.203 135.845 221.306 135.908C221.41 135.971 221.531 136.003 221.652 135.997C221.774 135.992 221.891 135.951 221.989 135.878C222.087 135.806 222.161 135.707 222.202 135.592C223.385 132.413 225.453 129.64 228.162 127.599C230.87 125.558 234.107 124.335 237.488 124.074C237.586 124.065 237.679 124.033 237.762 123.981C237.845 123.928 237.913 123.857 237.962 123.772C238.012 123.687 238.04 123.592 238.045 123.495C238.05 123.397 238.031 123.299 237.991 123.21Z" fill="#61439A"/>
<path d="M0.0306328 86.9536C0.0306328 86.7575 0.0306328 86.5615 0.0306328 86.3409C0.0306328 86.1204 0.0306328 85.9488 0.0306328 85.7283C0.0306328 85.9243 0.0306328 86.1204 0.0306328 86.3409C0.0306328 86.5615 2.29105e-07 86.7575 0.0306328 86.9536Z" fill="#F15F22"/>
<path d="M0.030633 86.9536C0.183767 89.685 1.39617 92.2489 3.41011 94.1004C5.42406 95.9519 8.08071 96.9449 10.8153 96.8683C13.5499 96.7917 16.1468 95.6516 18.054 93.6902C19.9611 91.7289 21.0281 89.1011 21.0281 86.3654C21.0281 83.6298 19.9611 81.002 18.054 79.0407C16.1468 77.0793 13.5499 75.9392 10.8153 75.8626C8.08071 75.786 5.42406 76.779 3.41011 78.6305C1.39617 80.482 0.183767 83.0459 0.030633 85.7773C0.030633 85.9733 0.030633 86.1694 0.030633 86.39C0.030633 86.6105 0.030633 86.7575 0.030633 86.9536Z" fill="#F15F22"/>
<path d="M126.274 86.6044C126.336 89.3696 127.487 91.9985 129.476 93.9206C131.465 95.8428 134.132 96.9032 136.897 96.8717C139.663 96.8403 142.305 95.7195 144.249 93.7526C146.194 91.7857 147.285 89.1314 147.285 86.3654C147.285 83.5995 146.194 80.9452 144.249 78.9783C142.305 77.0114 139.663 75.8906 136.897 75.8592C134.132 75.8277 131.465 76.8881 129.476 78.8103C127.487 80.7324 126.336 83.3613 126.274 86.1265C126.274 86.2062 126.274 86.2858 126.274 86.3654C126.274 86.4451 126.274 86.5247 126.274 86.6044Z" fill="#F15F22"/>
<path d="M330.574 86.5676C330.633 89.3294 331.779 91.9564 333.764 93.8782C335.748 95.8 338.41 96.8614 341.172 96.832C343.935 96.8025 346.574 95.6846 348.517 93.7209C350.459 91.7572 351.549 89.1064 351.549 86.344C351.549 83.5816 350.459 80.9308 348.517 78.9671C346.574 77.0034 343.935 75.8855 341.172 75.856C338.41 75.8266 335.748 76.888 333.764 78.8098C331.779 80.7316 330.633 83.3586 330.574 86.1204V86.5676Z" fill="#F15F22"/>
<path d="M477.304 89.5451C477.63 88.5167 477.795 87.4442 477.794 86.3654C477.794 86.1265 477.794 85.8937 477.758 85.6609C477.758 85.9243 477.758 86.1878 477.758 86.4512C477.761 87.4993 477.609 88.5421 477.304 89.5451Z" fill="#F15F22"/>
<path d="M467.281 75.8585C465.185 75.8403 463.131 76.445 461.38 77.5959C459.628 78.7469 458.257 80.3921 457.442 82.3231C456.627 84.254 456.404 86.3836 456.8 88.4417C457.197 90.4998 458.196 92.3936 459.671 93.883C461.146 95.3724 463.03 96.3903 465.084 96.8074C467.138 97.2245 469.27 97.0222 471.208 96.226C473.147 95.4299 474.806 94.0758 475.974 92.3355C477.142 90.5952 477.767 88.5472 477.77 86.4512C477.77 86.1878 477.77 85.9243 477.77 85.6609C477.593 83.0008 476.41 80.5077 474.462 78.6874C472.515 76.867 469.947 75.8557 467.281 75.8585Z" fill="#F15F22"/>
<path d="M507.79 96.8602C513.596 96.8602 518.303 92.1533 518.303 86.3471C518.303 80.5408 513.596 75.834 507.79 75.834C501.984 75.834 497.277 80.5408 497.277 86.3471C497.277 92.1533 501.984 96.8602 507.79 96.8602Z" fill="#F15F22"/>
<path d="M249.349 140.72C249.146 138.742 248.387 136.863 247.159 135.299C245.932 133.736 244.286 132.552 242.413 131.886C240.54 131.22 238.516 131.099 236.577 131.536C234.638 131.974 232.863 132.952 231.457 134.358C230.051 135.763 229.073 137.539 228.635 139.478C228.198 141.417 228.319 143.441 228.985 145.314C229.651 147.187 230.835 148.833 232.398 150.06C233.962 151.288 235.841 152.047 237.819 152.25C239.371 152.405 240.939 152.213 242.408 151.688C243.877 151.163 245.211 150.319 246.315 149.215C247.418 148.112 248.262 146.778 248.787 145.309C249.312 143.84 249.504 142.272 249.349 140.72Z" fill="#F15F22"/>
<path d="M716.024 12.6451C714.843 12.6452 713.688 12.9864 712.697 13.6277C711.705 14.269 710.921 15.183 710.436 16.2598L662.392 123.21C662.353 123.299 662.335 123.395 662.341 123.491C662.346 123.588 662.374 123.682 662.422 123.765C662.47 123.849 662.538 123.92 662.619 123.973C662.7 124.025 662.793 124.058 662.889 124.068C666.254 124.307 669.481 125.5 672.193 127.506C674.906 129.512 676.991 132.248 678.205 135.396C678.247 135.51 678.321 135.609 678.42 135.681C678.518 135.753 678.636 135.793 678.757 135.798C678.879 135.803 678.999 135.771 679.102 135.707C679.206 135.643 679.288 135.55 679.338 135.439L735.004 12.6267L716.024 12.6451Z" fill="#61439A"/>
<path d="M660.72 123.21L612.688 16.2965C612.204 15.2197 611.419 14.3057 610.428 13.6645C609.437 13.0232 608.281 12.682 607.101 12.6819H587.912L643.798 135.641C643.849 135.752 643.932 135.845 644.036 135.908C644.14 135.971 644.26 136.003 644.382 135.997C644.503 135.992 644.621 135.951 644.719 135.878C644.817 135.806 644.891 135.707 644.932 135.592C646.117 132.409 648.189 129.632 650.904 127.591C653.619 125.55 656.861 124.329 660.248 124.074C660.343 124.061 660.433 124.026 660.512 123.971C660.591 123.917 660.656 123.845 660.701 123.761C660.747 123.677 660.773 123.583 660.776 123.488C660.779 123.392 660.76 123.297 660.72 123.21Z" fill="#61439A"/>
<path d="M661.59 152.305C667.396 152.305 672.103 147.598 672.103 141.792C672.103 135.986 667.396 131.279 661.59 131.279C655.784 131.279 651.077 135.986 651.077 141.792C651.077 147.598 655.784 152.305 661.59 152.305Z" fill="#F15F22"/>
<path d="M1098.27 124.007C1101.74 124.007 1105.13 125.021 1108.03 126.925C1110.92 128.829 1113.2 131.539 1114.58 134.722C1114.62 134.836 1114.7 134.934 1114.8 135.003C1114.9 135.073 1115.02 135.109 1115.15 135.109C1115.27 135.109 1115.39 135.073 1115.49 135.003C1115.59 134.934 1115.67 134.836 1115.72 134.722L1161.92 13.0924H1143.46C1142.25 13.0916 1141.06 13.4585 1140.05 14.145C1139.05 14.8315 1138.27 15.8056 1137.83 16.9398L1098.26 115.871L1077.26 40.7352C1077.22 40.6239 1077.16 40.5239 1077.07 40.4468C1076.99 40.3697 1076.88 40.3185 1076.77 40.2993C1076.65 40.2801 1076.54 40.2935 1076.43 40.3381C1076.32 40.3828 1076.23 40.4567 1076.16 40.5514C1074.5 42.905 1072.3 44.8198 1069.73 46.1308C1067.17 47.4419 1064.32 48.1099 1061.44 48.0774C1058.56 48.0448 1055.74 47.3127 1053.2 45.944C1050.67 44.5753 1048.5 42.6111 1046.9 40.2206C1046.83 40.122 1046.74 40.0442 1046.63 39.9964C1046.53 39.9486 1046.41 39.9327 1046.29 39.9508C1046.18 39.9689 1046.07 40.0202 1045.98 40.0984C1045.89 40.1767 1045.83 40.2787 1045.8 40.3921L1024.84 116.146L985.351 16.8969C984.911 15.7592 984.138 14.7812 983.132 14.0913C982.126 13.4014 980.935 13.0318 979.715 13.0311H961.158L1007.43 134.091C1007.47 134.202 1007.54 134.297 1007.64 134.366C1007.74 134.435 1007.85 134.474 1007.97 134.479C1008.09 134.483 1008.21 134.453 1008.31 134.392C1008.41 134.33 1008.49 134.241 1008.55 134.134C1009.92 131.283 1012.04 128.852 1014.67 127.092C1017.3 125.333 1020.35 124.308 1023.51 124.124C1026.67 123.941 1029.83 124.605 1032.64 126.048C1035.46 127.491 1037.84 129.661 1039.54 132.333C1039.6 132.433 1039.69 132.514 1039.8 132.565C1039.91 132.615 1040.03 132.634 1040.14 132.619C1040.26 132.603 1040.37 132.554 1040.46 132.477C1040.55 132.4 1040.62 132.299 1040.65 132.186L1061.57 61.161L1082.62 131.444C1082.65 131.555 1082.71 131.653 1082.8 131.729C1082.89 131.805 1082.99 131.855 1083.11 131.873C1083.22 131.891 1083.34 131.876 1083.44 131.831C1083.55 131.785 1083.64 131.711 1083.71 131.616C1085.34 129.267 1087.52 127.348 1090.05 126.023C1092.59 124.698 1095.41 124.006 1098.27 124.007Z" fill="#61439A"/>
<path d="M1029.19 152.852C1034.94 151.923 1038.85 146.51 1037.92 140.761C1036.99 135.013 1031.58 131.107 1025.83 132.036C1020.08 132.965 1016.17 138.377 1017.1 144.126C1018.03 149.874 1023.44 153.781 1029.19 152.852Z" fill="#F15F22"/>
<path d="M1105.71 149.21C1109.81 145.104 1109.81 138.448 1105.71 134.342C1101.6 130.236 1094.94 130.236 1090.84 134.342C1086.73 138.448 1086.73 145.104 1090.84 149.21C1094.94 153.315 1101.6 153.315 1105.71 149.21Z" fill="#F15F22"/>
<path d="M1063.32 40.6304C1069.05 39.7001 1072.94 34.2998 1072.01 28.5686C1071.08 22.8374 1065.68 18.9455 1059.95 19.8758C1054.22 20.8061 1050.33 26.2063 1051.26 31.9376C1052.19 37.6688 1057.59 41.5607 1063.32 40.6304Z" fill="#F15F22"/>
<path d="M767.893 96.7256C773.624 95.7953 777.516 90.395 776.586 84.6638C775.656 78.9326 770.255 75.0407 764.524 75.971C758.793 76.9013 754.901 82.3016 755.831 88.0328C756.762 93.764 762.162 97.6559 767.893 96.7256Z" fill="#F15F22"/>
<path d="M798.695 103.054C802.317 118.587 810.877 132.526 823.092 142.782C835.306 153.039 850.517 159.058 866.442 159.939C866.855 159.956 867.267 159.89 867.654 159.744C868.04 159.597 868.393 159.375 868.692 159.088C868.99 158.802 869.227 158.459 869.389 158.078C869.551 157.698 869.634 157.289 869.634 156.875C869.634 151.006 869.634 139.004 869.634 139.004C845.649 139.004 825.266 121.746 819.476 99.3046C816.858 101.77 813.554 103.382 810 103.929C806.445 104.476 802.809 103.932 799.571 102.368C799.467 102.314 799.35 102.292 799.233 102.303C799.116 102.314 799.006 102.358 798.913 102.431C798.821 102.503 798.752 102.6 798.713 102.71C798.674 102.821 798.668 102.94 798.695 103.054Z" fill="#61439A"/>
<path d="M917.972 75.932H839.608C837.983 75.932 836.425 76.5775 835.276 77.7264C834.127 78.8754 833.481 80.4337 833.481 82.0585V96.9521H918.076C918.186 96.9508 918.293 96.9203 918.386 96.8636C918.48 96.807 918.557 96.7264 918.608 96.6301C918.66 96.5338 918.686 96.4254 918.681 96.3161C918.677 96.2068 918.644 96.1006 918.585 96.0086C916.743 93.1592 915.756 89.8421 915.739 86.4493C915.723 83.0566 916.679 79.7302 918.493 76.8632C918.549 76.7705 918.58 76.6645 918.582 76.556C918.584 76.4475 918.557 76.3404 918.504 76.2456C918.451 76.1509 918.374 76.0719 918.281 76.0168C918.187 75.9617 918.081 75.9325 917.972 75.932Z" fill="#61439A"/>
<path d="M941.032 70.2527C941.137 70.3023 941.253 70.3212 941.368 70.3073C941.483 70.2934 941.592 70.2473 941.682 70.1742C941.771 70.1011 941.839 70.0041 941.875 69.8944C941.912 69.7847 941.917 69.6668 941.89 69.5543C938.561 56.6602 931.889 44.8724 922.549 35.3806C908.458 21.0262 889.986 13.025 870.522 12.8473C860.912 12.742 851.378 14.5569 842.479 18.1854C833.58 21.8139 825.495 27.1829 818.698 33.9776C808.792 43.7456 801.867 56.1288 798.732 69.6829C798.706 69.7964 798.714 69.9149 798.753 70.0243C798.792 70.1338 798.862 70.2298 798.954 70.3012C799.046 70.3725 799.156 70.4162 799.272 70.4271C799.388 70.4381 799.504 70.4158 799.608 70.363C802.691 68.8735 806.139 68.3066 809.536 68.7305C812.934 69.1544 816.137 70.551 818.759 72.7523C818.838 72.8159 818.932 72.8589 819.032 72.8774C819.131 72.8959 819.234 72.8894 819.331 72.8584C819.427 72.8274 819.514 72.773 819.585 72.6999C819.655 72.6269 819.706 72.5375 819.733 72.4399C822.17 63.5235 826.916 55.4083 833.494 48.9141C838.269 44.1366 843.939 40.3484 850.181 37.7664C856.422 35.1844 863.112 33.8594 869.867 33.8674H870.332C884.178 33.9899 897.393 39.7549 907.539 50.0965C913.764 56.4093 918.362 64.1401 920.937 72.6237C920.966 72.7214 921.018 72.8105 921.089 72.8829C921.161 72.9554 921.249 73.0089 921.346 73.0387C921.444 73.0685 921.547 73.0736 921.646 73.0536C921.746 73.0335 921.839 72.9889 921.918 72.9239C924.507 70.683 927.689 69.2382 931.08 68.7632C934.471 68.2883 937.927 68.8034 941.032 70.2466V70.2527Z" fill="#61439A"/>
<path d="M796.802 86.5676C796.861 89.3294 798.007 91.9564 799.991 93.8782C801.975 95.8 804.638 96.8614 807.4 96.832C810.162 96.8025 812.801 95.6846 814.744 93.7209C816.687 91.7572 817.777 89.1064 817.777 86.344C817.777 83.5816 816.687 80.9308 814.744 78.9671C812.801 77.0034 810.162 75.8855 807.4 75.856C804.638 75.8266 801.975 76.888 799.991 78.8098C798.007 80.7316 796.861 83.3586 796.802 86.1204V86.5676Z" fill="#F15F22"/>
<path d="M933.509 75.8585C931.413 75.8403 929.359 76.445 927.607 77.5959C925.855 78.7469 924.485 80.3921 923.67 82.3231C922.854 84.254 922.631 86.3836 923.028 88.4417C923.425 90.4998 924.424 92.3936 925.899 93.883C927.373 95.3724 929.257 96.3903 931.311 96.8074C933.365 97.2245 935.497 97.0222 937.436 96.226C939.375 95.4299 941.034 94.0758 942.202 92.3355C943.37 90.5952 943.995 88.5472 943.997 86.4512C943.997 86.1878 943.997 85.9243 943.997 85.6609C943.82 83.0008 942.638 80.5077 940.69 78.6874C938.742 76.867 936.175 75.8557 933.509 75.8585Z" fill="#F15F22"/>
</g>
<defs>
<clipPath id="clip0_178_7711">
<rect width="1161.92" height="160" fill="white"/>
</clipPath>
</defs>
</svg>
