<svg width="19" height="25" viewBox="0 0 19 25" fill="none" xmlns="http://www.w3.org/2000/svg">
<path fill-rule="evenodd" clip-rule="evenodd" d="M11.3699 10.5014C11.46 10.5533 11.4908 10.6684 11.4388 10.7585L6.92216 18.5815C6.87019 18.6716 6.7551 18.7024 6.66508 18.6504C6.57507 18.5985 6.54423 18.4834 6.5962 18.3933L11.1129 10.5703C11.1648 10.4802 11.2799 10.4494 11.3699 10.5014ZM8.23458 12.1681C8.32459 12.2201 8.35543 12.3352 8.30346 12.4252L5.29235 17.6406C5.24039 17.7306 5.12529 17.7614 5.03528 17.7095C4.94526 17.6575 4.91442 17.5424 4.96639 17.4524L7.9775 12.237C8.02947 12.147 8.14456 12.1161 8.23458 12.1681Z" fill="#F16024"/>
<path fill-rule="evenodd" clip-rule="evenodd" d="M3.48535 19.6401L5.76708 20.9575L5.57889 21.2835L3.29716 19.9661L3.48535 19.6401Z" fill="#F16024"/>
<path fill-rule="evenodd" clip-rule="evenodd" d="M17.0276 3.33715L13.1161 1.07882C12.936 0.974878 12.7059 1.03656 12.6019 1.21658L11.0964 3.82428L15.6598 6.459L17.1654 3.8513C17.2693 3.67128 17.2076 3.44108 17.0276 3.33715ZM13.3043 0.752853C12.9442 0.54498 12.4838 0.668341 12.276 1.02839L10.5822 3.96205L15.7976 6.97315L17.4913 4.0395C17.6992 3.67945 17.5759 3.21906 17.2158 3.01118L13.3043 0.752853Z" fill="#61449B"/>
<path fill-rule="evenodd" clip-rule="evenodd" d="M7.93058 19.3811L3.77002 16.979L3.4482 22.3406L7.93058 19.3811ZM3.95822 16.653C3.7159 16.5131 3.41108 16.6771 3.39431 16.9564L3.07249 22.3181C3.05391 22.6277 3.39676 22.8256 3.65559 22.6547L8.13796 19.6952C8.37146 19.541 8.36109 19.195 8.11877 19.0551L3.95822 16.653Z" fill="#61449B"/>
<path fill-rule="evenodd" clip-rule="evenodd" d="M14.9063 7.76264L10.3428 5.12793L3.75605 16.5366L8.31952 19.1713L14.9063 7.76264ZM10.2051 4.61377L3.24189 16.6744L8.45728 19.6855L15.4205 7.62488L10.2051 4.61377Z" fill="#F16024"/>
<path fill-rule="evenodd" clip-rule="evenodd" d="M16.1232 7.16117L10.2559 3.77368L9.87954 4.4256L15.7469 7.8131L16.1232 7.16117ZM10.4441 3.44772C10.2641 3.34378 10.0339 3.40546 9.92997 3.58548L9.55358 4.23741C9.44964 4.41743 9.51133 4.64763 9.69135 4.75156L15.5587 8.13906C15.7387 8.243 15.9689 8.18131 16.0728 8.00129L16.4492 7.34937C16.5531 7.16934 16.4915 6.93915 16.3114 6.83521L10.4441 3.44772Z" fill="#F16024"/>
</svg>
