<svg width="24" height="24" viewBox="0 0 24 24" fill="none" xmlns="http://www.w3.org/2000/svg">
<path d="M10.2933 13.9117C10.3296 13.9114 10.3656 13.9052 10.3999 13.8935C11.0843 13.6436 11.72 13.2759 12.2783 12.8072C12.3365 12.7577 12.3749 12.6889 12.3866 12.6134C12.3982 12.5379 12.3824 12.4606 12.3419 12.3959L12.0174 11.8754C11.944 11.7607 11.9023 11.6284 11.8968 11.4923C11.8912 11.3561 11.9219 11.2208 11.9857 11.1005L12.4394 10.2823C12.5138 10.1676 12.6178 10.0753 12.7405 10.0152C12.8632 9.95517 12.9999 9.92966 13.1359 9.94141L13.728 9.95959C13.8026 9.96119 13.8754 9.93662 13.9338 9.89014C13.9922 9.84366 14.0326 9.77819 14.0479 9.70506C14.1976 8.98325 14.1976 8.23832 14.0479 7.51651C14.0315 7.44869 13.9933 7.38814 13.9392 7.3442C13.8851 7.30026 13.818 7.27536 13.7484 7.27333H13.12C12.9851 7.28376 12.85 7.25632 12.7297 7.1941C12.6095 7.13188 12.509 7.03734 12.4394 6.92108L11.9653 6.10293C11.9038 5.98075 11.8758 5.84441 11.8842 5.70785C11.8926 5.5713 11.937 5.43941 12.0129 5.32568L12.3282 4.81889C12.3676 4.75491 12.3832 4.67912 12.3725 4.60476C12.3617 4.5304 12.3251 4.4622 12.2693 4.41208C11.725 3.92923 11.0882 3.56268 10.3976 3.33485C10.3264 3.3105 10.2489 3.31247 10.179 3.34039C10.1091 3.36832 10.0514 3.42036 10.0165 3.48712L9.71704 4.03028C9.65694 4.15145 9.56543 4.2542 9.45207 4.32777C9.33872 4.40134 9.20771 4.44302 9.07275 4.44845H8.129C7.9946 4.44198 7.86448 4.39901 7.75259 4.32415C7.64069 4.24929 7.55123 4.14535 7.49378 4.02346L7.20339 3.4803C7.16753 3.41275 7.10858 3.36041 7.03733 3.33287C6.96609 3.30532 6.88732 3.30441 6.81545 3.33031C6.47293 3.45031 6.14251 3.6025 5.8286 3.78484C5.51439 3.96543 5.21745 4.17464 4.94156 4.40981C4.88458 4.45904 4.84676 4.52681 4.83472 4.60121C4.82269 4.67561 4.83722 4.75188 4.87577 4.81661L5.19565 5.34841C5.26963 5.46195 5.31201 5.59323 5.31839 5.72868C5.32477 5.86412 5.29493 5.99881 5.23195 6.11883L4.7646 6.92789C4.6935 7.04242 4.59253 7.13533 4.4726 7.1966C4.35266 7.25788 4.2183 7.28519 4.08401 7.27561L3.47602 7.27333C3.40176 7.27302 3.32961 7.29807 3.27146 7.34434C3.21332 7.39061 3.17264 7.45534 3.15614 7.52787C3.00207 8.24478 2.9959 8.98567 3.13799 9.70506C3.15301 9.77665 3.19203 9.84094 3.24857 9.88725C3.30511 9.93355 3.37577 9.95908 3.44879 9.95959L4.07494 9.94141C4.20931 9.93305 4.34345 9.96115 4.46323 10.0227C4.583 10.0843 4.68398 10.1771 4.75553 10.2914L5.20926 11.1005C5.2753 11.2201 5.30747 11.3555 5.30227 11.4921C5.29707 11.6286 5.25471 11.7612 5.17976 11.8754L4.86215 12.4004C4.82341 12.4639 4.80831 12.5391 4.81952 12.6127C4.83072 12.6863 4.86752 12.7536 4.92341 12.8027C5.47499 13.2906 6.12043 13.6603 6.81999 13.889C6.8915 13.9127 6.96908 13.9101 7.03889 13.8818C7.1087 13.8535 7.1662 13.8013 7.20112 13.7344L7.49378 13.1958C7.55219 13.0756 7.64218 12.9736 7.75409 12.9007C7.866 12.8278 7.99561 12.7869 8.129 12.7822H9.06594C9.20261 12.7866 9.33547 12.8283 9.45022 12.9028C9.56496 12.9773 9.65722 13.0818 9.71704 13.2049L10.0097 13.7435C10.0369 13.795 10.0778 13.838 10.1278 13.8677C10.1779 13.8974 10.2351 13.9126 10.2933 13.9117ZM11.6545 12.4936C11.471 12.6348 11.2785 12.7639 11.0782 12.8799C10.8758 12.998 10.6659 13.1028 10.4498 13.1936L10.2797 12.8845C10.164 12.6647 9.99217 12.4797 9.7817 12.3483C9.57123 12.2169 9.3297 12.1439 9.08182 12.1368H8.13353C7.88967 12.1428 7.65166 12.2129 7.4434 12.3401C7.23514 12.4674 7.06396 12.6473 6.94704 12.8618L6.93569 12.8799L6.76781 13.1822C6.33238 13.0166 5.92406 12.7868 5.55636 12.5004L5.74012 12.1981C5.87191 11.9897 5.94653 11.7501 5.95649 11.5035C5.96645 11.257 5.91138 11.0121 5.79684 10.7937L5.32269 9.96868C5.19292 9.76041 5.01084 9.58992 4.79466 9.47426C4.57848 9.3586 4.33577 9.30182 4.09082 9.30962H3.72103C3.65454 8.84277 3.65837 8.36857 3.73237 7.90285L4.07948 7.91422C4.3254 7.92288 4.56922 7.86601 4.78603 7.74943C5.00285 7.63284 5.18491 7.46071 5.31361 7.25061L5.78776 6.43019C5.90354 6.21448 5.9609 5.97215 5.95413 5.72734C5.94737 5.48252 5.87671 5.24375 5.74919 5.03479L5.56543 4.72571C5.74988 4.58295 5.94393 4.4531 6.14621 4.33709C6.34658 4.22082 6.55421 4.11758 6.76781 4.02801L6.93569 4.3439C7.05185 4.56173 7.22338 4.74495 7.43292 4.87505C7.64246 5.00514 7.88258 5.0775 8.129 5.08478H9.08182C9.32695 5.077 9.56569 5.00462 9.77399 4.87495C9.9823 4.74528 10.1528 4.56289 10.2683 4.34618L10.4385 4.03028C10.8753 4.19945 11.2844 4.43308 11.6522 4.72343L11.4707 5.01433C11.3392 5.22391 11.2652 5.46448 11.256 5.71184C11.2469 5.9592 11.3029 6.20461 11.4185 6.42337L11.8995 7.25288C12.0267 7.46136 12.2065 7.63263 12.4208 7.74951C12.635 7.86639 12.8761 7.92476 13.12 7.91876L13.4875 7.9074C13.5578 8.37368 13.5578 8.84788 13.4875 9.31416H13.1518C12.9053 9.30393 12.6605 9.35881 12.4419 9.47329C12.2233 9.58777 12.0386 9.75783 11.9063 9.96641L11.4367 10.7982C11.3194 11.0128 11.2606 11.2545 11.2662 11.499C11.2718 11.7436 11.3415 11.9823 11.4684 12.1913V12.2118L11.6545 12.4936Z" fill="#F16024"/>
<path d="M8.58304 17.2162C10.7672 17.2493 12.8761 16.4179 14.452 14.9026L16.3962 16.8435C16.426 16.8733 16.4614 16.897 16.5003 16.9132C16.5392 16.9293 16.581 16.9376 16.6231 16.9376C16.6652 16.9376 16.707 16.9293 16.7459 16.9132C16.7848 16.897 16.8202 16.8733 16.85 16.8435C16.8798 16.8136 16.9034 16.7782 16.9195 16.7392C16.9356 16.7002 16.9439 16.6584 16.9439 16.6162C16.9439 16.574 16.9356 16.5322 16.9195 16.4932C16.9034 16.4542 16.8798 16.4188 16.85 16.389L14.9057 14.4458C16.3974 12.8725 17.2157 10.7771 17.1857 8.60744C17.2014 7.47506 16.9861 6.3514 16.5531 5.30528C16.1201 4.25916 15.4785 3.3126 14.6675 2.52359C13.8786 1.70979 12.9319 1.06621 11.8855 0.632399C10.8392 0.198586 9.71533 -0.0162948 8.58304 0.000962908C7.4542 -0.0133659 6.33428 0.202934 5.29166 0.636657C4.24905 1.07038 3.30562 1.71242 2.51896 2.52359C1.708 3.3126 1.06636 4.25916 0.63336 5.30528C0.200356 6.3514 -0.0149002 7.47506 0.000774384 8.60744C-0.0150776 9.74018 0.200089 10.8642 0.633095 11.9108C1.0661 12.9573 1.70783 13.9042 2.51896 14.6936C3.30586 15.5044 4.24934 16.1462 5.29189 16.5799C6.33445 17.0136 7.45425 17.2301 8.58304 17.2162ZM8.58304 0.639574C9.63154 0.623451 10.6723 0.82217 11.6413 1.22353C12.6104 1.62489 13.4873 2.22043 14.2183 2.97357C14.9688 3.70455 15.5624 4.5812 15.963 5.5499C16.3637 6.51861 16.5628 7.559 16.5482 8.60744C16.562 9.6534 16.3635 10.6913 15.965 11.6581C15.5664 12.625 14.9761 13.5007 14.2297 14.2322C13.4977 14.988 12.6192 15.5858 11.6482 15.9892C10.6772 16.3925 9.63411 16.5927 8.58304 16.5776C7.53621 16.5914 6.49753 16.3916 5.53027 15.9903C4.56301 15.5891 3.68741 14.9948 2.95681 14.2436C2.2092 13.5108 1.61844 12.6332 1.2206 11.6642C0.822752 10.6951 0.626154 9.65508 0.642799 8.60744C0.6278 7.55934 0.826273 6.51919 1.22609 5.55052C1.6259 4.58185 2.21866 3.70501 2.96816 2.97357C3.69687 2.22305 4.57052 1.62906 5.53585 1.22779C6.50119 0.826515 7.53798 0.626378 8.58304 0.639574ZM8.58304 10.7278C9.13988 10.7248 9.67306 10.5019 10.0668 10.1075C10.4606 9.71302 10.6831 9.1789 10.6861 8.62108C10.6895 8.27241 10.6067 7.92832 10.4449 7.6196C10.2831 7.31088 10.0474 7.04717 9.75887 6.85206C9.47039 6.65696 9.13812 6.53655 8.7918 6.50162C8.44547 6.46669 8.09591 6.51832 7.77439 6.65189C7.45287 6.78546 7.16942 6.99681 6.94942 7.26702C6.72942 7.53723 6.57973 7.85786 6.51375 8.20022C6.44777 8.54259 6.46755 8.896 6.57133 9.22883C6.67511 9.56165 6.85965 9.86351 7.10843 10.1074C7.29989 10.3049 7.52918 10.4617 7.78257 10.5683C8.03595 10.6749 8.30822 10.7291 8.58304 10.7278ZM8.58304 7.15068C8.97157 7.15248 9.34363 7.30804 9.61815 7.58347C9.89267 7.8589 10.0474 8.23186 10.0486 8.62108C10.0504 8.86396 9.99219 9.10352 9.87906 9.31835C9.76594 9.53318 9.60145 9.71659 9.40029 9.85219C9.19913 9.9878 8.96758 10.0714 8.72631 10.0954C8.48504 10.1195 8.24158 10.0834 8.01767 9.99016C7.79377 9.89698 7.59639 9.74968 7.44318 9.56142C7.28997 9.37317 7.1857 9.14983 7.13968 8.91136C7.09367 8.67288 7.10734 8.4267 7.17948 8.19481C7.25161 7.96292 7.37997 7.75255 7.55308 7.58248C7.68599 7.44357 7.84603 7.33354 8.02322 7.25925C8.20041 7.18497 8.39097 7.14801 8.58304 7.15068Z" fill="#F16024"/>
<path d="M21.7185 24C22.1708 23.9974 22.6122 23.8609 22.9872 23.6077C23.3623 23.3545 23.6542 22.9958 23.8264 22.5769C23.9985 22.1579 24.0432 21.6973 23.9547 21.253C23.8663 20.8086 23.6486 20.4004 23.3292 20.0797L18.2928 15.023C18.2325 14.9631 18.151 14.9294 18.066 14.9294C17.981 14.9294 17.8994 14.9631 17.8391 15.023L15.0487 17.8207C15.0185 17.8503 14.9945 17.8856 14.9781 17.9247C14.9618 17.9637 14.9533 18.0056 14.9533 18.0479C14.9533 18.0902 14.9618 18.1322 14.9781 18.1712C14.9945 18.2102 15.0185 18.2456 15.0487 18.2752L20.0987 23.3273C20.3106 23.5414 20.563 23.7112 20.8411 23.8267C21.1192 23.9422 21.4174 24.0011 21.7185 24ZM18.0682 15.7003L22.8891 20.5319C23.043 20.6858 23.1651 20.8686 23.2485 21.0698C23.3318 21.271 23.3747 21.4867 23.3747 21.7046C23.3747 21.9224 23.3318 22.1382 23.2485 22.3394C23.1651 22.5406 23.043 22.7234 22.8891 22.8773C22.578 23.187 22.1571 23.3609 21.7185 23.3609C21.2798 23.3609 20.859 23.187 20.5479 22.8773L15.7247 18.0456L18.0682 15.7003Z" fill="#F16024"/>
</svg>
