<svg width="30" height="32" viewBox="0 0 30 32" fill="none" xmlns="http://www.w3.org/2000/svg">
<path d="M14.7807 3.97106C14.6443 3.97106 14.5135 3.91715 14.4167 3.82107C14.3199 3.72499 14.2651 3.59454 14.2641 3.45818V0.560566C14.258 0.489278 14.2668 0.417502 14.2899 0.349788C14.313 0.282073 14.3499 0.219896 14.3983 0.167197C14.4467 0.114497 14.5055 0.0724236 14.571 0.0436425C14.6365 0.0148614 14.7073 0 14.7788 0C14.8504 0 14.9212 0.0148614 14.9867 0.0436425C15.0522 0.0724236 15.111 0.114497 15.1594 0.167197C15.2078 0.219896 15.2447 0.282073 15.2678 0.349788C15.2909 0.417502 15.2997 0.489278 15.2936 0.560566V3.45818C15.2936 3.52553 15.2803 3.59222 15.2546 3.65445C15.2288 3.71667 15.191 3.77321 15.1434 3.82084C15.0957 3.86847 15.0392 3.90624 14.977 3.93202C14.9148 3.95779 14.8481 3.97106 14.7807 3.97106Z" fill="#F16024"/>
<path d="M20.029 22.7532C19.9295 22.7534 19.8321 22.7249 19.7484 22.6711C19.6647 22.6173 19.5984 22.5405 19.5573 22.4499C18.9741 21.0637 18.6774 19.5738 18.685 18.0698V12.0238C18.6768 11.3751 18.4889 10.7414 18.1422 10.1931C18.1287 10.1745 18.1174 10.1544 18.1085 10.1332C17.9431 9.89131 17.755 9.66567 17.5469 9.45937C17.1132 9.0139 16.5773 8.68106 15.9858 8.48976C15.6028 8.40607 15.2132 8.35596 14.8215 8.34001C14.7542 8.3378 14.6879 8.32234 14.6265 8.29452C14.5651 8.2667 14.5098 8.22707 14.4638 8.17788C14.4177 8.12869 14.3818 8.07091 14.3581 8.00783C14.3343 7.94476 14.3233 7.87763 14.3255 7.81028C14.3277 7.74293 14.3431 7.67667 14.371 7.61529C14.3988 7.55391 14.4384 7.49861 14.4876 7.45255C14.5368 7.40649 14.5946 7.37057 14.6576 7.34684C14.7207 7.3231 14.7879 7.31203 14.8552 7.31424C15.3175 7.33158 15.7774 7.39047 16.2291 7.49019H16.2666C17.0289 7.72677 17.7199 8.15017 18.2769 8.72187C18.557 8.99183 18.808 9.29047 19.0257 9.61286C19.0396 9.63578 19.0521 9.65953 19.0631 9.68399C19.4895 10.3899 19.7148 11.1991 19.7145 12.0238V18.0623C19.7052 19.4231 19.9713 20.7717 20.4969 22.0269C20.5525 22.151 20.5565 22.2921 20.5081 22.4192C20.4596 22.5463 20.3627 22.6489 20.2386 22.7045C20.1735 22.7369 20.1017 22.7536 20.029 22.7532Z" fill="#F16024"/>
<path d="M14.7432 32.0001H14.7133C13.9156 32.0005 13.1441 31.7153 12.5385 31.1962C11.9328 30.677 11.533 29.9583 11.4114 29.1699H0.517252C0.449585 29.1704 0.382489 29.1575 0.31983 29.1319C0.257171 29.1064 0.200189 29.0687 0.152166 29.021C0.104143 28.9733 0.0660289 28.9166 0.0400203 28.8541C0.0140116 28.7917 0.000622465 28.7247 0.000624268 28.657V25.9915C-0.0293252 23.6816 1.01891 22.1318 3.02552 21.559C4.59786 21.0948 5.38029 19.923 5.41773 17.9725V11.8778C5.44997 10.2515 5.92498 8.66465 6.79166 7.28807C7.17491 6.6991 7.62048 6.15311 8.12067 5.65957C9.23131 4.5185 10.6234 3.69074 12.1564 3.25987C13.0137 3.0476 13.8937 2.94074 14.7769 2.94166C15.6356 2.95393 16.4904 3.05937 17.3264 3.25613H17.3451C18.8697 3.67975 20.2554 4.49853 21.3621 5.62962C21.8625 6.13112 22.308 6.68457 22.6911 7.28058C23.5586 8.65052 24.0374 10.2305 24.0762 11.8516V17.9838C24.1099 19.923 24.8886 21.0948 26.461 21.559C28.4676 22.143 29.5196 23.6779 29.4933 25.999V28.657C29.4933 28.7247 29.48 28.7917 29.4539 28.8541C29.4279 28.9166 29.3898 28.9733 29.3418 29.021C29.2938 29.0687 29.2368 29.1064 29.1741 29.1319C29.1115 29.1575 29.0444 29.1704 28.9767 29.1699H18.0377C17.9177 29.9576 17.5194 30.6763 16.915 31.1955C16.3106 31.7148 15.5401 32.0002 14.7432 32.0001ZM1.03014 28.1404H11.8868C12.0238 28.1404 12.1552 28.1948 12.2521 28.2917C12.349 28.3886 12.4034 28.52 12.4034 28.657C12.401 28.9612 12.459 29.2629 12.5741 29.5444C12.6893 29.826 12.8593 30.0819 13.0742 30.2972C13.2891 30.5125 13.5447 30.6829 13.8261 30.7985C14.1075 30.9141 14.4091 30.9726 14.7133 30.9706H14.7358C15.0385 30.9779 15.3395 30.9225 15.6197 30.8078C15.9 30.6931 16.1535 30.5217 16.3643 30.3042C16.5835 30.0904 16.7568 29.8339 16.8733 29.5506C16.9898 29.2674 17.0472 28.9633 17.0419 28.657C17.0414 28.5893 17.0543 28.5222 17.0798 28.4596C17.1054 28.3969 17.1431 28.3399 17.1908 28.2919C17.2384 28.2439 17.2951 28.2058 17.3576 28.1798C17.4201 28.1538 17.4871 28.1404 17.5547 28.1404H28.4713V25.9915C28.4713 24.1197 27.7638 22.9966 26.1764 22.5473C24.1474 21.9483 23.0954 20.4172 23.0542 17.9913V11.8778C23.0213 10.4462 22.598 9.05077 21.83 7.84213C21.4878 7.30882 21.0886 6.81425 20.6395 6.36712C19.6624 5.36483 18.4382 4.63784 17.0905 4.25943C16.3309 4.07903 15.5538 3.98236 14.7732 3.97117C13.9791 3.96525 13.1876 4.06214 12.4184 4.25943C11.0642 4.63532 9.83341 5.36244 8.85069 6.36712C8.40265 6.81281 8.0047 7.30617 7.66394 7.83839C6.89765 9.05448 6.47584 10.4558 6.4435 11.8928V17.9838C6.39483 20.4172 5.34286 21.9483 3.31004 22.5473C1.72646 23.0078 1.00393 24.1009 1.02639 25.9878L1.03014 28.1404Z" fill="#61449B"/>
</svg>
