<svg width="16" height="16" viewBox="0 0 16 16" fill="none" xmlns="http://www.w3.org/2000/svg">
<circle cx="8" cy="8" r="7.5" stroke="#FF442B"/>
<path fill-rule="evenodd" clip-rule="evenodd" d="M11.5983 4.28188C11.2283 3.90604 10.6284 3.90604 10.2584 4.28188L7.99998 6.57585L5.74173 4.282C5.37172 3.90617 4.77183 3.90617 4.40182 4.282C4.03182 4.65784 4.03182 5.26719 4.40182 5.64303L6.66007 7.93688L4.2775 10.357C3.9075 10.7328 3.9075 11.3422 4.2775 11.718C4.64751 12.0939 5.2474 12.0939 5.61741 11.718L7.99998 9.2979L10.3827 11.7182C10.7527 12.094 11.3526 12.094 11.7226 11.7182C12.0926 11.3423 12.0926 10.733 11.7226 10.3571L9.33988 7.93688L11.5983 5.6429C11.9683 5.26707 11.9683 4.65771 11.5983 4.28188Z" fill="#FF442B"/>
</svg>
