<svg width="24" height="26" viewBox="0 0 24 26" fill="none" xmlns="http://www.w3.org/2000/svg">
<mask id="path-1-outside-1_240_7926" maskUnits="userSpaceOnUse" x="2.42871" y="0" width="18" height="26" fill="black">
<rect fill="white" x="2.42871" width="18" height="26"/>
<path d="M11.5843 25H11.5387C11.4781 24.9894 11.4213 24.9628 11.374 24.9228L11.3563 24.9048L5.31223 18.7115C5.27678 18.6833 5.24761 18.6479 5.22662 18.6074C5.20563 18.567 5.1933 18.5225 5.19045 18.4769C5.1876 18.4313 5.19428 18.3855 5.21006 18.3427C5.22585 18.2999 5.25037 18.261 5.28202 18.2285C5.31368 18.196 5.35174 18.1706 5.39373 18.1541C5.43571 18.1376 5.48065 18.1303 5.52561 18.1327C5.57057 18.1351 5.61453 18.1471 5.65459 18.168C5.69465 18.1888 5.72992 18.218 5.75807 18.2537L11.2499 23.8863V17.5026C9.9175 17.4702 8.61511 17.0941 7.46541 16.4095L7.43501 16.3889C6.84219 16.0309 6.29585 15.5988 5.80873 15.103C5.72514 15.0232 5.64408 14.9383 5.55542 14.8458C5.43382 14.712 5.3173 14.5886 5.20331 14.4368C4.02333 12.9678 3.39499 11.1213 3.43011 9.22598C3.40742 7.35039 4.04118 5.52752 5.21851 4.08203C5.3249 3.94571 5.43889 3.8094 5.55795 3.67823C5.64154 3.58821 5.72514 3.50076 5.81126 3.42103C6.31292 2.90793 6.87636 2.46116 7.48821 2.09131C8.73085 1.35725 10.1468 0.980278 11.5843 1.00079C13.0057 0.981962 14.4058 1.35246 15.6373 2.07331L15.6627 2.09131C16.2751 2.45827 16.8387 2.90342 17.3396 3.41588C17.4232 3.50076 17.5093 3.58821 17.5929 3.67308C17.7145 3.80425 17.831 3.93028 17.94 4.07431C19.1101 5.52295 19.7381 7.34494 19.7132 9.21827V9.25685C19.7465 11.1401 19.1179 12.9739 17.94 14.4291C17.8336 14.5603 17.717 14.6863 17.5929 14.8303L17.3396 15.0875C16.8481 15.5897 16.2977 16.0285 15.7007 16.3941L15.6373 16.4327C14.4974 17.108 13.2077 17.4796 11.8883 17.5129V23.8966L17.3801 18.264C17.4087 18.2294 17.444 18.2012 17.4839 18.1812C17.5237 18.1611 17.5672 18.1497 17.6117 18.1476C17.6561 18.1455 17.7004 18.1528 17.742 18.169C17.7835 18.1851 17.8212 18.2099 17.8528 18.2416C17.8845 18.2734 17.9092 18.3114 17.9257 18.3534C17.9421 18.3954 17.9497 18.4403 17.9481 18.4854C17.9466 18.5306 17.9358 18.5749 17.9165 18.6155C17.8972 18.6562 17.8699 18.6924 17.8361 18.7218L11.8047 24.9023C11.7514 24.9535 11.6827 24.9852 11.6096 24.9923L11.5843 25ZM11.8984 16.8288V16.8519C13.0966 16.8198 14.2679 16.4838 15.3055 15.8746L15.3308 15.8565C15.8898 15.5158 16.4039 15.1044 16.8608 14.6323C16.947 14.55 17.0255 14.4702 17.1142 14.3905L17.256 14.2285C17.2079 14.1719 17.1598 14.1153 17.1091 14.0613C17.0584 14.0073 16.9596 13.907 16.8786 13.8273C16.4172 13.3533 15.8989 12.9403 15.3359 12.5978C14.2925 11.9783 13.1118 11.6368 11.9035 11.6051L11.8984 16.8288ZM5.88472 14.2285C5.93285 14.2851 5.98352 14.3391 6.03418 14.3957C6.08484 14.4522 6.18364 14.55 6.2647 14.6297C6.71953 15.0956 7.23015 15.5017 7.78458 15.8385L7.80991 15.8565C8.85664 16.4772 10.0407 16.8196 11.2525 16.8519V11.6051C10.0375 11.6366 8.85037 11.9808 7.80231 12.6056C7.24156 12.944 6.72497 13.3527 6.2647 13.8221L6.02405 14.0664L5.88472 14.2285ZM11.8908 10.9544C13.2142 10.9869 14.5077 11.3604 15.65 12.0397C16.2576 12.4082 16.8168 12.8532 17.3143 13.3643L17.5676 13.6215L17.6588 13.7218C18.5946 12.4331 19.0877 10.868 19.0621 9.26714V9.23113C19.081 7.63718 18.5874 6.08045 17.6562 4.79704L17.5727 4.8922L17.3193 5.1494C16.8226 5.65947 16.2642 6.10366 15.6576 6.47139C14.5146 7.14906 13.2215 7.52242 11.8984 7.55677L11.8908 10.9544ZM5.48449 4.79961C4.55059 6.08078 4.05588 7.63736 4.07606 9.23113C4.04688 10.8433 4.53894 12.4207 5.47689 13.7218C5.50729 13.6909 5.53515 13.6601 5.56301 13.6266C5.65167 13.5366 5.73274 13.4517 5.81633 13.3694C6.31094 12.8616 6.86672 12.4191 7.47047 12.0526C8.61821 11.3671 9.91878 10.9892 11.2499 10.9544V7.5542C9.92009 7.52052 8.62047 7.1444 7.47301 6.46111C6.86787 6.09548 6.31115 5.65296 5.81633 5.14425C5.73274 5.06195 5.65167 4.97965 5.56301 4.88706L5.48449 4.79961ZM11.8908 1.65665V6.91635C13.1003 6.88471 14.2821 6.54225 15.3258 5.92099C15.8861 5.5801 16.4019 5.16876 16.8608 4.69673C16.9444 4.61443 17.023 4.53727 17.099 4.45754L17.2433 4.2955C17.1952 4.24149 17.1446 4.18748 17.0964 4.13089C17.0483 4.07431 16.9444 3.96886 16.8634 3.8917C16.3996 3.41079 15.8769 2.99241 15.308 2.64686L15.2776 2.62629C14.2444 2.02519 13.0811 1.69214 11.8908 1.65665ZM5.88979 4.28264C5.93539 4.33922 5.98605 4.39324 6.03418 4.44725C6.08231 4.50126 6.18364 4.60157 6.2647 4.6813C6.72338 5.15288 7.2392 5.56339 7.79978 5.90299C8.84664 6.53223 10.0339 6.88094 11.2499 6.91635V1.65665C10.0422 1.68991 8.86202 2.03038 7.81751 2.64686C7.25062 2.98809 6.72882 3.40121 6.2647 3.87627C6.18364 3.956 6.10511 4.0383 6.02911 4.13347L5.88979 4.28264Z"/>
</mask>
<path d="M11.5843 25H11.5387C11.4781 24.9894 11.4213 24.9628 11.374 24.9228L11.3563 24.9048L5.31223 18.7115C5.27678 18.6833 5.24761 18.6479 5.22662 18.6074C5.20563 18.567 5.1933 18.5225 5.19045 18.4769C5.1876 18.4313 5.19428 18.3855 5.21006 18.3427C5.22585 18.2999 5.25037 18.261 5.28202 18.2285C5.31368 18.196 5.35174 18.1706 5.39373 18.1541C5.43571 18.1376 5.48065 18.1303 5.52561 18.1327C5.57057 18.1351 5.61453 18.1471 5.65459 18.168C5.69465 18.1888 5.72992 18.218 5.75807 18.2537L11.2499 23.8863V17.5026C9.9175 17.4702 8.61511 17.0941 7.46541 16.4095L7.43501 16.3889C6.84219 16.0309 6.29585 15.5988 5.80873 15.103C5.72514 15.0232 5.64408 14.9383 5.55542 14.8458C5.43382 14.712 5.3173 14.5886 5.20331 14.4368C4.02333 12.9678 3.39499 11.1213 3.43011 9.22598C3.40742 7.35039 4.04118 5.52752 5.21851 4.08203C5.3249 3.94571 5.43889 3.8094 5.55795 3.67823C5.64154 3.58821 5.72514 3.50076 5.81126 3.42103C6.31292 2.90793 6.87636 2.46116 7.48821 2.09131C8.73085 1.35725 10.1468 0.980278 11.5843 1.00079C13.0057 0.981962 14.4058 1.35246 15.6373 2.07331L15.6627 2.09131C16.2751 2.45827 16.8387 2.90342 17.3396 3.41588C17.4232 3.50076 17.5093 3.58821 17.5929 3.67308C17.7145 3.80425 17.831 3.93028 17.94 4.07431C19.1101 5.52295 19.7381 7.34494 19.7132 9.21827V9.25685C19.7465 11.1401 19.1179 12.9739 17.94 14.4291C17.8336 14.5603 17.717 14.6863 17.5929 14.8303L17.3396 15.0875C16.8481 15.5897 16.2977 16.0285 15.7007 16.3941L15.6373 16.4327C14.4974 17.108 13.2077 17.4796 11.8883 17.5129V23.8966L17.3801 18.264C17.4087 18.2294 17.444 18.2012 17.4839 18.1812C17.5237 18.1611 17.5672 18.1497 17.6117 18.1476C17.6561 18.1455 17.7004 18.1528 17.742 18.169C17.7835 18.1851 17.8212 18.2099 17.8528 18.2416C17.8845 18.2734 17.9092 18.3114 17.9257 18.3534C17.9421 18.3954 17.9497 18.4403 17.9481 18.4854C17.9466 18.5306 17.9358 18.5749 17.9165 18.6155C17.8972 18.6562 17.8699 18.6924 17.8361 18.7218L11.8047 24.9023C11.7514 24.9535 11.6827 24.9852 11.6096 24.9923L11.5843 25ZM11.8984 16.8288V16.8519C13.0966 16.8198 14.2679 16.4838 15.3055 15.8746L15.3308 15.8565C15.8898 15.5158 16.4039 15.1044 16.8608 14.6323C16.947 14.55 17.0255 14.4702 17.1142 14.3905L17.256 14.2285C17.2079 14.1719 17.1598 14.1153 17.1091 14.0613C17.0584 14.0073 16.9596 13.907 16.8786 13.8273C16.4172 13.3533 15.8989 12.9403 15.3359 12.5978C14.2925 11.9783 13.1118 11.6368 11.9035 11.6051L11.8984 16.8288ZM5.88472 14.2285C5.93285 14.2851 5.98352 14.3391 6.03418 14.3957C6.08484 14.4522 6.18364 14.55 6.2647 14.6297C6.71953 15.0956 7.23015 15.5017 7.78458 15.8385L7.80991 15.8565C8.85664 16.4772 10.0407 16.8196 11.2525 16.8519V11.6051C10.0375 11.6366 8.85037 11.9808 7.80231 12.6056C7.24156 12.944 6.72497 13.3527 6.2647 13.8221L6.02405 14.0664L5.88472 14.2285ZM11.8908 10.9544C13.2142 10.9869 14.5077 11.3604 15.65 12.0397C16.2576 12.4082 16.8168 12.8532 17.3143 13.3643L17.5676 13.6215L17.6588 13.7218C18.5946 12.4331 19.0877 10.868 19.0621 9.26714V9.23113C19.081 7.63718 18.5874 6.08045 17.6562 4.79704L17.5727 4.8922L17.3193 5.1494C16.8226 5.65947 16.2642 6.10366 15.6576 6.47139C14.5146 7.14906 13.2215 7.52242 11.8984 7.55677L11.8908 10.9544ZM5.48449 4.79961C4.55059 6.08078 4.05588 7.63736 4.07606 9.23113C4.04688 10.8433 4.53894 12.4207 5.47689 13.7218C5.50729 13.6909 5.53515 13.6601 5.56301 13.6266C5.65167 13.5366 5.73274 13.4517 5.81633 13.3694C6.31094 12.8616 6.86672 12.4191 7.47047 12.0526C8.61821 11.3671 9.91878 10.9892 11.2499 10.9544V7.5542C9.92009 7.52052 8.62047 7.1444 7.47301 6.46111C6.86787 6.09548 6.31115 5.65296 5.81633 5.14425C5.73274 5.06195 5.65167 4.97965 5.56301 4.88706L5.48449 4.79961ZM11.8908 1.65665V6.91635C13.1003 6.88471 14.2821 6.54225 15.3258 5.92099C15.8861 5.5801 16.4019 5.16876 16.8608 4.69673C16.9444 4.61443 17.023 4.53727 17.099 4.45754L17.2433 4.2955C17.1952 4.24149 17.1446 4.18748 17.0964 4.13089C17.0483 4.07431 16.9444 3.96886 16.8634 3.8917C16.3996 3.41079 15.8769 2.99241 15.308 2.64686L15.2776 2.62629C14.2444 2.02519 13.0811 1.69214 11.8908 1.65665ZM5.88979 4.28264C5.93539 4.33922 5.98605 4.39324 6.03418 4.44725C6.08231 4.50126 6.18364 4.60157 6.2647 4.6813C6.72338 5.15288 7.2392 5.56339 7.79978 5.90299C8.84664 6.53223 10.0339 6.88094 11.2499 6.91635V1.65665C10.0422 1.68991 8.86202 2.03038 7.81751 2.64686C7.25062 2.98809 6.72882 3.40121 6.2647 3.87627C6.18364 3.956 6.10511 4.0383 6.02911 4.13347L5.88979 4.28264Z" fill="#F16024"/>
<path d="M11.5843 25H11.5387C11.4781 24.9894 11.4213 24.9628 11.374 24.9228L11.3563 24.9048L5.31223 18.7115C5.27678 18.6833 5.24761 18.6479 5.22662 18.6074C5.20563 18.567 5.1933 18.5225 5.19045 18.4769C5.1876 18.4313 5.19428 18.3855 5.21006 18.3427C5.22585 18.2999 5.25037 18.261 5.28202 18.2285C5.31368 18.196 5.35174 18.1706 5.39373 18.1541C5.43571 18.1376 5.48065 18.1303 5.52561 18.1327C5.57057 18.1351 5.61453 18.1471 5.65459 18.168C5.69465 18.1888 5.72992 18.218 5.75807 18.2537L11.2499 23.8863V17.5026C9.9175 17.4702 8.61511 17.0941 7.46541 16.4095L7.43501 16.3889C6.84219 16.0309 6.29585 15.5988 5.80873 15.103C5.72514 15.0232 5.64408 14.9383 5.55542 14.8458C5.43382 14.712 5.3173 14.5886 5.20331 14.4368C4.02333 12.9678 3.39499 11.1213 3.43011 9.22598C3.40742 7.35039 4.04118 5.52752 5.21851 4.08203C5.3249 3.94571 5.43889 3.8094 5.55795 3.67823C5.64154 3.58821 5.72514 3.50076 5.81126 3.42103C6.31292 2.90793 6.87636 2.46116 7.48821 2.09131C8.73085 1.35725 10.1468 0.980278 11.5843 1.00079C13.0057 0.981962 14.4058 1.35246 15.6373 2.07331L15.6627 2.09131C16.2751 2.45827 16.8387 2.90342 17.3396 3.41588C17.4232 3.50076 17.5093 3.58821 17.5929 3.67308C17.7145 3.80425 17.831 3.93028 17.94 4.07431C19.1101 5.52295 19.7381 7.34494 19.7132 9.21827V9.25685C19.7465 11.1401 19.1179 12.9739 17.94 14.4291C17.8336 14.5603 17.717 14.6863 17.5929 14.8303L17.3396 15.0875C16.8481 15.5897 16.2977 16.0285 15.7007 16.3941L15.6373 16.4327C14.4974 17.108 13.2077 17.4796 11.8883 17.5129V23.8966L17.3801 18.264C17.4087 18.2294 17.444 18.2012 17.4839 18.1812C17.5237 18.1611 17.5672 18.1497 17.6117 18.1476C17.6561 18.1455 17.7004 18.1528 17.742 18.169C17.7835 18.1851 17.8212 18.2099 17.8528 18.2416C17.8845 18.2734 17.9092 18.3114 17.9257 18.3534C17.9421 18.3954 17.9497 18.4403 17.9481 18.4854C17.9466 18.5306 17.9358 18.5749 17.9165 18.6155C17.8972 18.6562 17.8699 18.6924 17.8361 18.7218L11.8047 24.9023C11.7514 24.9535 11.6827 24.9852 11.6096 24.9923L11.5843 25ZM11.8984 16.8288V16.8519C13.0966 16.8198 14.2679 16.4838 15.3055 15.8746L15.3308 15.8565C15.8898 15.5158 16.4039 15.1044 16.8608 14.6323C16.947 14.55 17.0255 14.4702 17.1142 14.3905L17.256 14.2285C17.2079 14.1719 17.1598 14.1153 17.1091 14.0613C17.0584 14.0073 16.9596 13.907 16.8786 13.8273C16.4172 13.3533 15.8989 12.9403 15.3359 12.5978C14.2925 11.9783 13.1118 11.6368 11.9035 11.6051L11.8984 16.8288ZM5.88472 14.2285C5.93285 14.2851 5.98352 14.3391 6.03418 14.3957C6.08484 14.4522 6.18364 14.55 6.2647 14.6297C6.71953 15.0956 7.23015 15.5017 7.78458 15.8385L7.80991 15.8565C8.85664 16.4772 10.0407 16.8196 11.2525 16.8519V11.6051C10.0375 11.6366 8.85037 11.9808 7.80231 12.6056C7.24156 12.944 6.72497 13.3527 6.2647 13.8221L6.02405 14.0664L5.88472 14.2285ZM11.8908 10.9544C13.2142 10.9869 14.5077 11.3604 15.65 12.0397C16.2576 12.4082 16.8168 12.8532 17.3143 13.3643L17.5676 13.6215L17.6588 13.7218C18.5946 12.4331 19.0877 10.868 19.0621 9.26714V9.23113C19.081 7.63718 18.5874 6.08045 17.6562 4.79704L17.5727 4.8922L17.3193 5.1494C16.8226 5.65947 16.2642 6.10366 15.6576 6.47139C14.5146 7.14906 13.2215 7.52242 11.8984 7.55677L11.8908 10.9544ZM5.48449 4.79961C4.55059 6.08078 4.05588 7.63736 4.07606 9.23113C4.04688 10.8433 4.53894 12.4207 5.47689 13.7218C5.50729 13.6909 5.53515 13.6601 5.56301 13.6266C5.65167 13.5366 5.73274 13.4517 5.81633 13.3694C6.31094 12.8616 6.86672 12.4191 7.47047 12.0526C8.61821 11.3671 9.91878 10.9892 11.2499 10.9544V7.5542C9.92009 7.52052 8.62047 7.1444 7.47301 6.46111C6.86787 6.09548 6.31115 5.65296 5.81633 5.14425C5.73274 5.06195 5.65167 4.97965 5.56301 4.88706L5.48449 4.79961ZM11.8908 1.65665V6.91635C13.1003 6.88471 14.2821 6.54225 15.3258 5.92099C15.8861 5.5801 16.4019 5.16876 16.8608 4.69673C16.9444 4.61443 17.023 4.53727 17.099 4.45754L17.2433 4.2955C17.1952 4.24149 17.1446 4.18748 17.0964 4.13089C17.0483 4.07431 16.9444 3.96886 16.8634 3.8917C16.3996 3.41079 15.8769 2.99241 15.308 2.64686L15.2776 2.62629C14.2444 2.02519 13.0811 1.69214 11.8908 1.65665ZM5.88979 4.28264C5.93539 4.33922 5.98605 4.39324 6.03418 4.44725C6.08231 4.50126 6.18364 4.60157 6.2647 4.6813C6.72338 5.15288 7.2392 5.56339 7.79978 5.90299C8.84664 6.53223 10.0339 6.88094 11.2499 6.91635V1.65665C10.0422 1.68991 8.86202 2.03038 7.81751 2.64686C7.25062 2.98809 6.72882 3.40121 6.2647 3.87627C6.18364 3.956 6.10511 4.0383 6.02911 4.13347L5.88979 4.28264Z" stroke="#F16024" stroke-width="0.3" mask="url(#path-1-outside-1_240_7926)"/>
</svg>
