<svg width="16" height="24" viewBox="0 0 16 24" fill="none" xmlns="http://www.w3.org/2000/svg">
<mask id="path-1-inside-1_235_7329" fill="white">
<path d="M16 0L16 24L-1.04907e-06 24L0 -6.99382e-07L16 0Z"/>
</mask>
<path d="M16 23L-1.00536e-06 23L-1.09278e-06 25L16 25L16 23ZM-4.37114e-08 0.999999L16 1L16 -1L4.37114e-08 -1L-4.37114e-08 0.999999Z" fill="#61449B" mask="url(#path-1-inside-1_235_7329)"/>
<path d="M7.6 19.4665L4.6 15.4665C4.35279 15.1369 4.58798 14.6665 5 14.6665L11 14.6665C11.412 14.6665 11.6472 15.1369 11.4 15.4665L8.4 19.4665C8.2 19.7332 7.8 19.7332 7.6 19.4665Z" fill="#61449B"/>
<path d="M8.4 4.5335L11.4 8.5335C11.6472 8.86311 11.412 9.3335 11 9.3335L5 9.3335C4.58798 9.3335 4.35279 8.86311 4.6 8.5335L7.6 4.5335C7.8 4.26683 8.2 4.26683 8.4 4.5335Z" fill="#61449B"/>
<rect x="9.33325" y="9.3335" width="5.33333" height="2.66667" transform="rotate(90 9.33325 9.3335)" fill="#61449B"/>
</svg>
