<svg width="24" height="16" viewBox="0 0 24 16" fill="none" xmlns="http://www.w3.org/2000/svg">
<mask id="path-1-inside-1_235_7326" fill="white">
<path d="M0 0H24V16H0V0Z"/>
</mask>
<path d="M23 0V16H25V0H23ZM1 16V0H-1V16H1Z" fill="#61449B" mask="url(#path-1-inside-1_235_7326)"/>
<path d="M19.4666 8.4L15.4666 11.4C15.137 11.6472 14.6666 11.412 14.6666 11L14.6666 5C14.6666 4.58798 15.137 4.35279 15.4666 4.6L19.4666 7.6C19.7333 7.8 19.7333 8.2 19.4666 8.4Z" fill="#61449B"/>
<path d="M4.53337 7.6L8.53337 4.6C8.86299 4.35279 9.33337 4.58798 9.33337 5L9.33337 11C9.33337 11.412 8.86299 11.6472 8.53337 11.4L4.53337 8.4C4.26671 8.2 4.26671 7.8 4.53337 7.6Z" fill="#61449B"/>
<rect x="9.33337" y="6.6665" width="5.33333" height="2.66667" fill="#61449B"/>
</svg>
