<svg width="50" height="50" viewBox="0 0 50 50" fill="none" xmlns="http://www.w3.org/2000/svg">
<path d="M42.514 37.5402C42.2652 37.5405 42.0234 37.4581 41.8266 37.3059C41.6298 37.1536 41.4893 36.9403 41.4271 36.6994C41.3268 36.1453 41.1152 35.6173 40.8051 35.1473C40.4949 34.6773 40.0926 34.2752 39.6225 33.9652C39.595 33.9533 39.5696 33.9372 39.5473 33.9173C39.3969 33.8489 37.7768 33.1585 28.9247 29.4536C28.739 29.3763 28.5776 29.2504 28.4574 29.0893C28.3371 28.9281 28.2624 28.7376 28.2411 28.5376C28.2154 28.3386 28.243 28.1362 28.3211 27.9513C28.3991 27.7664 28.5249 27.6054 28.6854 27.4849C29.5801 26.8082 30.3542 25.9855 30.9754 25.0515C32.6053 22.6653 33.4249 19.8183 33.3132 16.9307C33.3181 15.7519 33.1168 14.5813 32.7185 13.4718C32.6433 13.2531 32.5681 13.048 32.486 12.8566C32.4418 12.8012 32.4029 12.7417 32.3698 12.6789C31.9897 11.8797 31.4946 11.1404 30.9002 10.4847L30.6199 10.2249C29.9143 9.48117 29.0669 8.88629 28.1277 8.47538C27.1885 8.06447 26.1765 7.84585 25.1514 7.83243H24.8506C23.8278 7.84028 22.8169 8.05301 21.8776 8.45806C20.9384 8.86311 20.0898 9.45226 19.3821 10.1907C19.2727 10.2933 19.177 10.389 19.0813 10.4915C18.4918 11.1308 17.9968 11.8513 17.6116 12.6311C17.6116 12.6789 17.6116 12.7268 17.5706 12.7473C17.4554 12.9809 17.3527 13.2205 17.263 13.465C16.8731 14.5625 16.672 15.7181 16.6683 16.8828C16.5496 19.7735 17.3645 22.6257 18.9924 25.0173C19.614 25.9571 20.3906 26.7846 21.2892 27.4644C21.4515 27.5827 21.5795 27.7419 21.6601 27.9258C21.7408 28.1096 21.7712 28.3116 21.7482 28.5111C21.7253 28.7106 21.6498 28.9004 21.5296 29.0612C21.4093 29.2219 21.2485 29.3479 21.0637 29.4263C12.2115 33.1244 10.5914 33.8216 10.4137 33.9036C9.93103 34.2144 9.51748 34.6211 9.19879 35.0986C8.8801 35.576 8.66307 36.114 8.56123 36.6789C8.53041 36.8308 8.46881 36.9747 8.38023 37.1019C8.29165 37.229 8.17796 37.3367 8.04617 37.4182C7.91438 37.4998 7.76729 37.5534 7.61396 37.576C7.46064 37.5985 7.30433 37.5893 7.15467 37.5491C7.00501 37.5089 6.86517 37.4384 6.74379 37.3421C6.6224 37.2458 6.52203 37.1256 6.44887 36.989C6.37571 36.8524 6.3313 36.7022 6.3184 36.5478C6.30549 36.3933 6.32435 36.2379 6.37382 36.091C6.5481 35.2515 6.88972 34.4556 7.37828 33.751C7.86684 33.0463 8.49234 32.4473 9.21745 31.9896L9.37467 31.8939C9.50455 31.8324 9.71646 31.7231 18.5208 28.0386C18.0214 27.5054 17.5643 26.934 17.1537 26.3297C15.2507 23.559 14.2918 20.2485 14.4194 16.8897C14.4166 15.4498 14.6641 14.0204 15.1508 12.6652C15.2602 12.385 15.3764 12.1047 15.5063 11.8313C15.5216 11.7868 15.5398 11.7434 15.5609 11.7014C16.0435 10.7038 16.6699 9.78259 17.4202 8.96715L17.4818 8.89879L17.8167 8.56384C19.6589 6.68283 22.1702 5.60658 24.8028 5.56982H25.1856C27.8185 5.60826 30.3286 6.69 32.1648 8.57751C32.2536 8.65271 32.3767 8.77575 32.5065 8.89879L32.5749 8.96715C33.276 9.74396 33.8671 10.6134 34.3317 11.551C34.3945 11.6246 34.4452 11.7077 34.4821 11.7971C34.6188 12.091 34.735 12.3986 34.8443 12.7063C35.3296 14.0476 35.5771 15.4633 35.5758 16.8897C35.7039 20.255 34.7452 23.5721 32.8415 26.3502C32.4331 26.954 31.9759 27.5233 31.4744 28.0523C40.2787 31.7367 40.4906 31.8461 40.6 31.9008L40.7845 32.0033C41.5079 32.4622 42.1317 33.0617 42.619 33.7663C43.1063 34.4708 43.4471 35.266 43.6213 36.1047C43.6963 36.392 43.6541 36.6974 43.5042 36.9537C43.3543 37.21 43.1087 37.3964 42.8216 37.4718C42.723 37.5099 42.6193 37.533 42.514 37.5402Z" fill="#61449B"/>
<path d="M25 49C38.2548 49 49 38.2548 49 25C49 11.7452 38.2548 1 25 1C11.7452 1 1 11.7452 1 25C1 38.2548 11.7452 49 25 49Z" stroke="#F16024" stroke-width="1.5" stroke-miterlimit="10" stroke-linecap="round"/>
</svg>
