<svg width="81" height="81" viewBox="0 0 81 81" fill="none" xmlns="http://www.w3.org/2000/svg">
<path fill-rule="evenodd" clip-rule="evenodd" d="M17.6473 5.61189C18.273 5.22361 19.095 5.41607 19.4833 6.04177L29.326 21.9027C29.7143 22.5284 29.5218 23.3504 28.8961 23.7387C28.2704 24.1269 27.4484 23.9345 27.0601 23.3088L17.2175 7.44786C16.8292 6.82217 17.0216 6.00018 17.6473 5.61189Z" fill="#61449B"/>
<path fill-rule="evenodd" clip-rule="evenodd" d="M50.9284 28.8971C50.5401 28.2714 50.7326 27.4494 51.3583 27.0611L66.0863 17.9215C66.712 17.5332 67.534 17.7257 67.9222 18.3513C68.3105 18.977 68.1181 19.799 67.4924 20.1873L52.7644 29.327C52.1387 29.7152 51.3167 29.5228 50.9284 28.8971Z" fill="#61449B"/>
<path fill-rule="evenodd" clip-rule="evenodd" d="M0.720691 30.6981C0.888568 29.9811 1.60589 29.536 2.32289 29.7039L20.4981 33.9594C21.2151 34.1273 21.6602 34.8446 21.4923 35.5616C21.3245 36.2786 20.6071 36.7237 19.8901 36.5559L1.71495 32.3003C0.997961 32.1324 0.552815 31.4151 0.720691 30.6981Z" fill="#61449B"/>
<path fill-rule="evenodd" clip-rule="evenodd" d="M36.5367 53.333C37.2731 53.333 37.87 53.93 37.87 54.6663V73.3331C37.87 74.0695 37.2731 74.6664 36.5367 74.6664C35.8003 74.6664 35.2034 74.0695 35.2034 73.3331V54.6663C35.2034 53.93 35.8003 53.333 36.5367 53.333Z" fill="#61449B"/>
<path fill-rule="evenodd" clip-rule="evenodd" d="M41.3301 71.1012C40.0193 71.2547 38.6856 71.3336 37.3335 71.3336C18.5557 71.3336 3.33333 56.1112 3.33333 37.3335C3.33333 18.5557 18.5557 3.33333 37.3335 3.33333C56.1112 3.33333 71.3336 18.5557 71.3336 37.3335C71.3336 38.6854 71.2547 40.0189 71.1013 41.3296C72.1755 42.1014 73.175 42.9706 74.087 43.9243C74.4681 41.7849 74.667 39.5824 74.667 37.3335C74.667 16.7148 57.9522 0 37.3335 0C16.7148 0 0 16.7148 0 37.3335C0 57.9522 16.7148 74.667 37.3335 74.667C39.5826 74.667 41.7852 74.4681 43.9248 74.0869C42.9712 73.175 42.102 72.1754 41.3301 71.1012ZM37.426 56.6667C37.3952 56.6668 37.3643 56.6669 37.3335 56.6669C26.6559 56.6669 18.0001 48.011 18.0001 37.3335C18.0001 26.6559 26.6559 18.0001 37.3335 18.0001C48.011 18.0001 56.6669 26.6559 56.6669 37.3335C56.6669 37.3642 56.6668 37.395 56.6667 37.4257C55.5223 37.5321 54.4042 37.7289 53.3195 38.0089C53.3288 37.7849 53.3335 37.5597 53.3335 37.3335C53.3335 28.4969 46.1701 21.3334 37.3335 21.3334C28.4969 21.3334 21.3334 28.4969 21.3334 37.3335C21.3334 46.1701 28.4969 53.3335 37.3335 53.3335C37.5598 53.3335 37.7851 53.3288 38.0091 53.3195C37.7292 54.4042 37.5324 55.5223 37.426 56.6667Z" fill="#61449B"/>
<path d="M57.8242 79.9733C54.3334 79.8896 50.9213 78.9176 47.9092 77.1489L47.8296 77.0957C46.2764 76.1705 44.8451 75.0542 43.5689 73.7729C43.3499 73.5669 43.1375 73.3476 42.9052 73.1084C42.5867 72.7628 42.2814 72.4438 41.9828 72.0517C38.8913 68.2559 37.2452 63.4849 37.3372 58.5877C37.2777 53.7415 38.9381 49.0314 42.0226 45.2965C42.3013 44.9443 42.6 44.5921 42.9119 44.2531C43.1309 44.0205 43.3499 43.7946 43.5755 43.5886C44.8898 42.2628 46.366 41.1084 47.9689 40.1528C51.2245 38.2561 54.9341 37.2821 58.7003 37.3351C62.4242 37.2864 66.0923 38.2437 69.3188 40.1063L69.3851 40.1528C70.9896 41.101 72.4661 42.2512 73.7786 43.5753C73.9976 43.7946 74.2232 44.0205 74.4422 44.2398C74.7608 44.5788 75.066 44.9044 75.3514 45.2766C78.417 49.0196 80.0625 53.7274 79.997 58.5678V58.6675C80.0844 63.5336 78.4374 68.2717 75.3514 72.0318C75.0727 72.3707 74.7674 72.6963 74.4422 73.0685L73.7786 73.733C72.491 75.0305 71.0489 76.1643 69.4847 77.109L69.3188 77.2087C66.3322 78.9537 62.9545 79.9998 59.4967 79.9998C58.9332 79.9998 58.483 79.9592 57.8242 79.9733ZM59.5232 78.2321V78.2919C62.6624 78.209 65.731 77.3409 68.4494 75.7666L68.5158 75.7201C69.9802 74.8397 71.3271 73.7768 72.5242 72.5568C72.7499 72.3441 72.9556 72.1381 73.1879 71.9321L73.5596 71.5134C73.4335 71.3672 73.3074 71.221 73.1746 71.0814C73.0419 70.9419 72.7831 70.6827 72.5707 70.4767C71.362 69.2521 70.0041 68.1848 68.529 67.3001C65.7955 65.6993 62.7021 64.8169 59.5365 64.7349L59.5232 78.2321ZM43.768 71.5134C43.8941 71.6596 44.0268 71.7992 44.1595 71.9454C44.2923 72.0916 44.5511 72.3441 44.7635 72.5501C45.9551 73.7539 47.2929 74.8033 48.7454 75.6736L48.8118 75.7201C51.5541 77.3237 54.6563 78.2084 57.8309 78.2919V64.7349C54.6479 64.8163 51.5377 65.7058 48.7919 67.32C47.3228 68.1945 45.9693 69.2506 44.7635 70.4634L44.133 71.0947L43.768 71.5134ZM59.5033 63.0536C62.9704 63.1377 66.3594 64.1027 69.352 65.858C70.9438 66.81 72.4088 67.96 73.7122 69.2805L74.3758 69.945L74.6148 70.2042C77.0666 66.8745 78.3583 62.8305 78.2914 58.694V58.601C78.3408 54.4825 77.0477 50.4601 74.6081 47.144L74.3891 47.3899L73.7255 48.0544C72.424 49.3724 70.9612 50.5201 69.3719 51.4703C66.3775 53.2213 62.9897 54.1859 59.5232 54.2747L59.5033 63.0536ZM42.7194 47.1506C40.2727 50.461 38.9766 54.4829 39.0295 58.601C38.953 62.7665 40.2422 66.8423 42.6995 70.2042C42.7791 70.1245 42.8521 70.0447 42.9251 69.9583C43.1574 69.7257 43.3698 69.5064 43.5888 69.2938C44.8846 67.9815 46.3407 66.8383 47.9225 65.8912C50.9294 64.12 54.3368 63.1435 57.8242 63.0536V54.2681C54.3402 54.1811 50.9354 53.2092 47.9291 51.4437C46.3437 50.499 44.8852 49.3555 43.5888 48.0411C43.3698 47.8285 43.1574 47.6158 42.9251 47.3766L42.7194 47.1506ZM59.5033 39.0297V52.62C62.6719 52.5382 65.7681 51.6534 68.5025 50.0481C69.9706 49.1673 71.3219 48.1045 72.5242 46.8848C72.7433 46.6721 72.949 46.4728 73.1481 46.2668L73.5264 45.8481C73.4003 45.7085 73.2675 45.569 73.1414 45.4228C73.0153 45.2766 72.7432 45.0041 72.5309 44.8047C71.3159 43.5621 69.9464 42.4811 68.456 41.5882L68.3764 41.5351C65.6695 39.9819 62.6217 39.1214 59.5033 39.0297ZM43.7813 45.8149C43.9007 45.9611 44.0335 46.1006 44.1595 46.2402C44.2856 46.3797 44.5511 46.6389 44.7635 46.8449C45.9652 48.0634 47.3166 49.1241 48.7852 50.0016C51.5279 51.6275 54.6383 52.5285 57.8242 52.62V39.0297C54.6602 39.1156 51.5682 39.9954 48.8317 41.5882C47.3465 42.4699 45.9794 43.5374 44.7635 44.7648C44.5511 44.9709 44.3454 45.1835 44.1463 45.4294L43.7813 45.8149Z" fill="#F16024"/>
<path fill-rule="evenodd" clip-rule="evenodd" d="M57.8123 80.4731C54.2365 80.3874 50.7414 79.3918 47.656 77.58L47.6311 77.5654L47.5626 77.5187C45.9802 76.5747 44.5215 75.4369 43.2203 74.1315C43.0011 73.9249 42.7892 73.7066 42.5691 73.4799L42.5375 73.4474C42.4965 73.4029 42.4554 73.3583 42.414 73.3136C42.1429 73.021 41.8632 72.7191 41.59 72.3612C38.4287 68.4767 36.7448 63.596 36.8371 58.5861C36.7781 53.6261 38.4777 48.8057 41.6337 44.9821C41.9186 44.6223 42.2242 44.262 42.544 43.9145L42.5478 43.9104C42.7662 43.6784 42.9925 43.4445 43.2291 43.2278C44.5708 41.8758 46.0773 40.6984 47.7129 39.7233L47.7172 39.7207C51.0493 37.7795 54.8459 36.782 58.7005 36.835C62.5121 36.7864 66.2664 37.7669 69.5688 39.6733L69.6069 39.6953L69.6563 39.7323C71.2909 40.7001 72.7953 41.8731 74.133 43.2226C74.1332 43.2229 74.1328 43.2224 74.133 43.2226L74.8067 43.8973C75.1215 44.2322 75.4418 44.5735 75.7432 44.9659C78.8796 48.7982 80.5632 53.6167 80.497 58.571V58.6631C80.5854 63.6463 78.8983 68.4983 75.7379 72.349C75.554 72.5726 75.3516 72.7988 75.1482 73.0262C75.0379 73.1496 74.9272 73.2733 74.8187 73.3975L74.7968 73.4226L74.1335 74.0852C72.817 75.4118 71.3425 76.5711 69.7432 77.537L69.571 77.6404C66.5193 79.4234 63.0555 80.4998 59.4967 80.4998C59.2518 80.4998 59.0264 80.4924 58.8065 80.4851C58.7643 80.4837 58.7223 80.4823 58.6804 80.481C58.4181 80.4727 58.1512 80.4664 57.835 80.4731L57.8123 80.4731ZM73.7786 73.733L74.4422 73.0685C74.5596 72.9341 74.6744 72.8058 74.7863 72.6808C74.9844 72.4595 75.1733 72.2483 75.3514 72.0318C78.4374 68.2717 80.0844 63.5336 79.997 58.6675V58.5678C80.0625 53.7274 78.417 49.0196 75.3514 45.2766C75.066 44.9044 74.7608 44.5788 74.4422 44.2398L73.7786 43.5753C72.4661 42.2512 70.9896 41.101 69.3851 40.1528L69.3188 40.1063C66.0923 38.2437 62.4242 37.2864 58.7003 37.3351C54.9341 37.2821 51.2245 38.2561 47.9689 40.1528C46.366 41.1084 44.8898 42.2628 43.5755 43.5886C43.3499 43.7946 43.1309 44.0205 42.9119 44.2531C42.6 44.5921 42.3013 44.9443 42.0226 45.2965C38.9381 49.0314 37.2777 53.7415 37.3372 58.5877C37.2452 63.4849 38.8913 68.2559 41.9828 72.0517C42.2418 72.3918 42.5059 72.677 42.7793 72.9722C42.8211 73.0173 42.863 73.0626 42.9052 73.1083L42.9245 73.1282C43.1493 73.3597 43.3559 73.5726 43.5689 73.7729C44.8451 75.0542 46.2764 76.1705 47.8296 77.0957L47.9092 77.1489C50.9213 78.9176 54.3334 79.8896 57.8242 79.9733C58.2072 79.9651 58.5197 79.9754 58.8249 79.9855C59.0447 79.9927 59.2608 79.9998 59.4967 79.9998C62.9545 79.9998 66.3322 78.9537 69.3188 77.2087L69.4847 77.109C71.0489 76.1643 72.491 75.0305 73.7786 73.733ZM68.2581 75.2915C69.6863 74.433 70.9998 73.3964 72.1674 72.2066L72.1811 72.1926C72.2479 72.1296 72.3164 72.0643 72.3861 71.9974C72.5292 71.8599 72.6784 71.7167 72.8335 71.5782L72.8924 71.5119C72.8658 71.4829 72.8392 71.4543 72.8123 71.426C72.686 71.2932 72.4324 71.0391 72.2226 70.8356L72.2148 70.828C71.0362 69.6339 69.7124 68.5931 68.2742 67.7303C65.7618 66.2594 62.9371 65.412 60.036 65.2552L60.0237 77.7713C62.8927 77.6148 65.6872 76.7845 68.1802 75.3447L68.2581 75.2915ZM68.4494 75.7666C65.8755 77.2572 62.9877 78.1147 60.0232 78.2721C59.8568 78.2809 59.6901 78.2875 59.5232 78.2919L59.5365 64.7349C59.7034 64.7392 59.87 64.7458 60.0365 64.7545C63.0272 64.9119 65.9396 65.7837 68.529 67.3001C70.0041 68.1848 71.362 69.2521 72.5707 70.4767C72.7831 70.6827 73.0419 70.9419 73.1746 71.0814C73.3074 71.221 73.4335 71.3672 73.5595 71.5134L73.1879 71.9321C73.0319 72.0704 72.8879 72.2087 72.7419 72.3491C72.6704 72.4177 72.5984 72.4869 72.5242 72.5568C71.3271 73.7768 69.9802 74.8397 68.5158 75.7201L68.4494 75.7666ZM44.7635 70.4634L44.133 71.0947L43.768 71.5134C43.8532 71.6122 43.9414 71.708 44.0306 71.8048C44.0735 71.8512 44.1165 71.898 44.1595 71.9454C44.2923 72.0916 44.5511 72.3441 44.7635 72.5501C45.9551 73.7539 47.2929 74.8033 48.7454 75.6736L48.8118 75.7201C51.4099 77.2394 54.3311 78.1134 57.3309 78.2721C57.4973 78.2809 57.664 78.2875 57.8309 78.2919V64.7349C57.664 64.7392 57.4973 64.7456 57.3309 64.7543C54.3228 64.9115 51.3937 65.7904 48.7919 67.32C47.3228 68.1945 45.9693 69.2506 44.7635 70.4634ZM49.0466 67.7502C47.614 68.6032 46.2941 69.6332 45.118 70.8159L44.4988 71.4361L44.4366 71.5074C44.4666 71.54 44.4975 71.5738 44.5297 71.6093C44.6493 71.7409 44.8945 71.9806 45.1116 72.1912L45.1189 72.1983C46.2811 73.3724 47.5857 74.3959 49.0024 75.2446L49.0331 75.2631L49.0818 75.2988C51.599 76.767 54.4268 77.6135 57.3309 77.7714V65.255C54.4126 65.4117 51.5714 66.2663 49.0466 67.7502ZM73.7255 48.0544C72.424 49.3724 70.9612 50.5201 69.3719 51.4703C66.3775 53.2213 62.9897 54.1859 59.5232 54.2747L59.5033 63.0536C59.5033 63.0536 59.5033 63.0536 59.5033 63.0536C62.9704 63.1377 66.3594 64.1027 69.352 65.858C70.9438 66.81 72.4088 67.96 73.7122 69.2805L74.3758 69.945L74.6148 70.2042C74.7158 70.067 74.8149 69.9286 74.912 69.7889C77.1707 66.541 78.3555 62.66 78.2914 58.694V58.601C78.3388 54.6536 77.1529 50.7946 74.9063 47.561C74.8089 47.4208 74.7095 47.2818 74.6081 47.144L74.3891 47.3899L73.7255 48.0544ZM74.5547 47.9317L74.0812 48.4057C74.0809 48.4061 74.0815 48.4054 74.0812 48.4057C72.7503 49.7533 71.2536 50.9278 69.6284 51.8994L69.6243 51.9019C66.6972 53.6135 63.4031 54.5917 60.0221 54.7565L60.0044 62.5713C63.3855 62.7324 66.68 63.7111 69.6049 65.4267L69.6086 65.4289C71.2362 66.4023 72.7342 67.578 74.0669 68.9281C74.0673 68.9285 74.0666 68.9277 74.0669 68.9281L74.5588 69.4206C76.7204 66.2756 77.8534 62.5296 77.7915 58.7021L77.7914 58.694L77.7914 58.595C77.8371 54.7864 76.7037 51.0623 74.5547 47.9317ZM42.4212 47.5658C40.1676 50.7945 38.9788 54.6536 39.0295 58.601C38.9561 62.5969 40.1394 66.5102 42.4051 69.79C42.5013 69.9292 42.5994 70.0673 42.6995 70.2042C42.7791 70.1245 42.8521 70.0447 42.9251 69.9583C42.9669 69.9165 43.008 69.8751 43.0486 69.8342C43.0846 69.7979 43.1201 69.7619 43.1554 69.7263C43.3021 69.5779 43.444 69.4344 43.5888 69.2938C44.8846 67.9815 46.3407 66.8383 47.9225 65.8912C50.9294 64.12 54.3368 63.1435 57.8242 63.0536V54.2681C54.3402 54.1811 50.9354 53.2092 47.9291 51.4437C46.3437 50.499 44.8852 49.3555 43.5888 48.0411C43.4151 47.8725 43.2456 47.7038 43.067 47.5219C43.0204 47.4744 42.9732 47.4261 42.9251 47.3766L42.7194 47.1506C42.618 47.2878 42.5186 47.4262 42.4212 47.5658ZM42.7729 47.9359C40.6169 51.0618 39.4805 54.7859 39.5294 58.5946L39.5296 58.6102C39.4589 62.466 40.5894 66.2427 42.7565 69.4185C42.7693 69.4056 42.7821 69.3927 42.7948 69.3798C42.9426 69.2303 43.0897 69.0816 43.2367 68.9387C44.5612 67.5981 46.0492 66.43 47.6656 65.4622L47.6687 65.4604C50.6086 63.7286 53.9222 62.7386 57.3242 62.5719V54.7501C53.9258 54.5863 50.6149 53.6008 47.6759 51.8748C46.0555 50.9092 44.5619 49.7392 43.2366 48.3961C43.0817 48.2456 42.9301 48.0952 42.7729 47.9359ZM72.1759 46.5261L72.1928 46.5097C72.4044 46.3043 72.597 46.1173 72.7828 45.9252L72.8511 45.8497C72.8211 45.8162 72.7915 45.7826 72.7628 45.7493C72.6543 45.6235 72.3976 45.3654 72.1887 45.1693L72.173 45.1546C70.988 43.9426 69.6526 42.888 68.1991 42.0172L68.1781 42.0046L68.113 41.9604C65.6303 40.5389 62.8539 39.7154 60.0033 39.5518V52.0997C62.9071 51.9428 65.7342 51.0931 68.2474 49.6181C69.6786 48.7592 70.9959 47.7229 72.1682 46.5338L72.1759 46.5261ZM68.5025 50.0481C65.9121 51.5688 62.997 52.443 60.0033 52.6004C59.8369 52.6091 59.6702 52.6156 59.5033 52.62V39.0297C59.6702 39.0346 59.8369 39.0417 60.0033 39.051C62.947 39.2155 65.8143 40.065 68.3764 41.5351L68.456 41.5882C69.9464 42.4811 71.3159 43.5621 72.5309 44.8047C72.7432 45.0041 73.0153 45.2766 73.1414 45.4228C73.2244 45.5189 73.3102 45.6122 73.3951 45.7045C73.4392 45.7525 73.4832 45.8003 73.5264 45.8481L73.1481 46.2668C72.9549 46.4666 72.7555 46.6602 72.5438 46.8658L72.5242 46.8848C71.3219 48.1045 69.9706 49.1673 68.5025 50.0481ZM45.1195 46.4938C46.2912 47.682 47.6089 48.7163 49.0409 49.5719C51.5626 51.0666 54.4036 51.9319 57.3242 52.0981V39.5506C54.4242 39.7106 51.6005 40.5555 49.0851 42.0193C47.6371 42.8791 46.3043 43.9199 45.1187 45.1167L45.1117 45.1238C44.9068 45.3225 44.7165 45.5197 44.5349 45.7441L44.5104 45.7742L44.459 45.8263C44.4822 45.8517 44.506 45.8778 44.5305 45.905C44.6429 46.0293 44.894 46.2749 45.1116 46.486L45.1195 46.4938ZM43.7813 45.8149C43.8702 45.9237 43.9665 46.0289 44.062 46.1332C44.0947 46.1689 44.1274 46.2045 44.1595 46.2402C44.2856 46.3797 44.5511 46.6389 44.7635 46.8449C45.9652 48.0634 47.3166 49.1241 48.7852 50.0016C51.3842 51.5423 54.3135 52.4321 57.3242 52.5989C57.4907 52.6081 57.6574 52.6152 57.8242 52.62V39.0297C57.6574 39.0342 57.4907 39.041 57.3242 39.0499C54.335 39.2104 51.4239 40.0794 48.8317 41.5882C47.3465 42.4699 45.9794 43.5374 44.7635 44.7648C44.5511 44.9709 44.3454 45.1835 44.1463 45.4294L43.7813 45.8149Z" fill="#F16024"/>
</svg>
